<?xml version="1.0" encoding="utf-8" standalone="no"?>
<!DOCTYPE svg PUBLIC "-//W3C//DTD SVG 1.1//EN"
  "http://www.w3.org/Graphics/SVG/1.1/DTD/svg11.dtd">
<!-- Created with matplotlib (https://matplotlib.org/) -->
<svg height="129.6pt" version="1.1" viewBox="0 0 216 129.6" width="216pt" xmlns="http://www.w3.org/2000/svg" xmlns:xlink="http://www.w3.org/1999/xlink">
 <metadata>
  <rdf:RDF xmlns:cc="http://creativecommons.org/ns#" xmlns:dc="http://purl.org/dc/elements/1.1/" xmlns:rdf="http://www.w3.org/1999/02/22-rdf-syntax-ns#">
   <cc:Work>
    <dc:type rdf:resource="http://purl.org/dc/dcmitype/StillImage"/>
    <dc:date>2022-05-17T10:30:43.839544</dc:date>
    <dc:format>image/svg+xml</dc:format>
    <dc:creator>
     <cc:Agent>
      <dc:title>Matplotlib v3.3.4, https://matplotlib.org/</dc:title>
     </cc:Agent>
    </dc:creator>
   </cc:Work>
  </rdf:RDF>
 </metadata>
 <defs>
  <style type="text/css">*{stroke-linecap:butt;stroke-linejoin:round;}</style>
 </defs>
 <g id="figure_1">
  <g id="patch_1">
   <path d="M 0 129.6 
L 216 129.6 
L 216 0 
L 0 0 
z
" style="fill:none;"/>
  </g>
  <g id="axes_1">
   <g id="matplotlib.axis_1">
    <g id="ytick_1">
     <g id="line2d_1">
      <defs>
       <path d="M 0 0 
L 3.5 0 
" id="mc6e60c749a" style="stroke:#999999;stroke-width:0.8;"/>
      </defs>
      <g>
       <use style="fill:#999999;stroke:#999999;stroke-width:0.8;" x="164.14" xlink:href="#mc6e60c749a" y="97.831281"/>
      </g>
     </g>
     <g id="text_1">
      <text style="fill:#999999;font-family:DejaVu Sans;font-size:8px;font-stretch:normal;font-style:normal;font-weight:normal;text-anchor:start;" transform="rotate(-0, 171.14, 100.870656)" x="171.14" y="100.870656">0.00</text>
     </g>
    </g>
    <g id="ytick_2">
     <g id="line2d_2">
      <g>
       <use style="fill:#999999;stroke:#999999;stroke-width:0.8;" x="164.14" xlink:href="#mc6e60c749a" y="62.919633"/>
      </g>
     </g>
     <g id="text_2">
      <text style="fill:#999999;font-family:DejaVu Sans;font-size:8px;font-stretch:normal;font-style:normal;font-weight:normal;text-anchor:start;" transform="rotate(-0, 171.14, 65.959008)" x="171.14" y="65.959008">0.05</text>
     </g>
    </g>
    <g id="ytick_3">
     <g id="line2d_3">
      <g>
       <use style="fill:#999999;stroke:#999999;stroke-width:0.8;" x="164.14" xlink:href="#mc6e60c749a" y="28.007986"/>
      </g>
     </g>
     <g id="text_3">
      <text style="fill:#999999;font-family:DejaVu Sans;font-size:8px;font-stretch:normal;font-style:normal;font-weight:normal;text-anchor:start;" transform="rotate(-0, 171.14, 31.047361)" x="171.14" y="31.047361">0.10</text>
     </g>
    </g>
    <g id="text_4">
     <text style="fill:#999999;font-family:DejaVu Sans;font-size:8px;font-stretch:normal;font-style:normal;font-weight:normal;text-anchor:middle;" transform="rotate(-90, 199.03125, 59.14)" x="199.03125" y="59.14">Flow velocity (µm/s)</text>
    </g>
   </g>
   <g id="line2d_4">
    <path clip-path="url(#p1a35c95216)" d="M 40.039545 97.774487 
L 41.233393 98.185251 
L 42.427241 98.584859 
L 43.621088 98.964101 
L 44.814936 99.31438 
L 46.008783 99.627994 
L 47.202631 99.898371 
L 48.396478 100.120243 
L 49.590326 100.289759 
L 50.784174 100.404522 
L 51.978021 100.463567 
L 53.171869 100.467273 
L 54.365716 100.41721 
L 55.559564 100.315957 
L 56.753411 100.166877 
L 57.947259 99.973874 
L 59.141107 99.741148 
L 60.334954 99.472951 
L 61.528802 99.173361 
L 62.722649 98.84609 
L 63.916497 98.494312 
L 65.110344 98.120533 
L 66.304192 97.726503 
L 67.498039 97.31316 
L 68.691887 96.880611 
L 69.885735 96.428145 
L 71.079582 95.954271 
L 72.27343 95.456779 
L 73.467277 94.932816 
L 74.661125 94.378972 
L 75.854972 93.791374 
L 77.04882 93.165781 
L 78.242668 92.497673 
L 79.436515 91.782351 
L 80.630363 91.015014 
L 81.82421 90.190845 
L 83.018058 89.305082 
L 84.211905 88.353093 
L 85.405753 87.33044 
L 86.599601 86.232942 
L 87.793448 85.056734 
L 88.987296 83.79833 
L 90.181143 82.454681 
L 91.374991 81.023232 
L 92.568838 79.501985 
L 93.762686 77.889561 
L 94.956534 76.185256 
L 96.150381 74.389112 
L 97.344229 72.501969 
L 98.538076 70.525534 
L 99.731924 68.462439 
L 100.925771 66.31629 
L 102.119619 64.091729 
L 103.313466 61.794472 
L 104.507314 59.431352 
L 105.701162 57.010347 
L 106.895009 54.540604 
L 108.088857 52.032446 
L 109.282704 49.497368 
L 110.476552 46.948027 
L 111.670399 44.398202 
L 112.864247 41.862758 
L 114.058095 39.357575 
L 115.251942 36.899476 
L 116.44579 34.506127 
L 117.639637 32.195929 
L 118.833485 29.987887 
L 120.027332 27.901469 
L 121.22118 25.956445 
L 122.415028 24.172716 
L 123.608875 22.570128 
L 124.802723 21.168282 
L 125.99657 19.986325 
L 127.190418 19.042743 
L 128.384265 18.35515 
L 129.578113 17.940069 
L 130.771961 17.812727 
L 131.965808 17.986842 
L 133.159656 18.474423 
L 134.353503 19.285588 
L 135.547351 20.428382 
L 136.741198 21.90862 
L 137.935046 23.729753 
L 139.128893 25.892746 
L 140.322741 28.395989 
L 141.516589 31.235229 
L 142.710436 34.403534 
L 143.904284 37.891287 
L 145.098131 41.686203 
L 146.291979 45.773386 
L 147.485826 50.135414 
L 148.679674 54.752451 
L 149.873522 59.602393 
L 151.067369 64.66104 
L 152.261217 69.902295 
L 153.455064 75.298387 
L 154.648912 80.820114 
L 155.842759 86.437109 
L 157.036607 92.118117 
L 158.230455 97.831281 
" style="fill:none;stroke:#cccccc;stroke-dasharray:5.55,2.4;stroke-dashoffset:0;stroke-width:1.5;"/>
   </g>
   <g id="patch_2">
    <path d="M 34.13 104.6 
L 34.13 13.68 
" style="fill:none;stroke:#000000;stroke-linecap:square;stroke-linejoin:miter;stroke-width:0.8;"/>
   </g>
   <g id="patch_3">
    <path d="M 164.14 104.6 
L 164.14 13.68 
" style="fill:none;stroke:#000000;stroke-linecap:square;stroke-linejoin:miter;stroke-width:0.8;"/>
   </g>
   <g id="patch_4">
    <path d="M 34.13 104.6 
L 164.14 104.6 
" style="fill:none;stroke:#000000;stroke-linecap:square;stroke-linejoin:miter;stroke-width:0.8;"/>
   </g>
   <g id="patch_5">
    <path d="M 34.13 13.68 
L 164.14 13.68 
" style="fill:none;stroke:#000000;stroke-linecap:square;stroke-linejoin:miter;stroke-width:0.8;"/>
   </g>
  </g>
  <g id="axes_2">
   <g id="matplotlib.axis_2">
    <g id="xtick_1">
     <g id="line2d_5">
      <defs>
       <path d="M 0 0 
L 0 3.5 
" id="m73d00d51bf" style="stroke:#000000;stroke-width:0.8;"/>
      </defs>
      <g>
       <use style="stroke:#000000;stroke-width:0.8;" x="40.039545" xlink:href="#m73d00d51bf" y="104.6"/>
      </g>
     </g>
     <g id="text_5">
      <text style="font-family:DejaVu Sans;font-size:8px;font-stretch:normal;font-style:normal;font-weight:normal;text-anchor:middle;" transform="rotate(-0, 40.039545, 117.67875)" x="40.039545" y="117.67875">A</text>
     </g>
    </g>
    <g id="xtick_2">
     <g id="line2d_6">
      <g>
       <use style="stroke:#000000;stroke-width:0.8;" x="158.230455" xlink:href="#m73d00d51bf" y="104.6"/>
      </g>
     </g>
     <g id="text_6">
      <text style="font-family:DejaVu Sans;font-size:8px;font-stretch:normal;font-style:normal;font-weight:normal;text-anchor:middle;" transform="rotate(-0, 158.230455, 117.67875)" x="158.230455" y="117.67875">P</text>
     </g>
    </g>
   </g>
   <g id="matplotlib.axis_3">
    <g id="ytick_4">
     <g id="line2d_7">
      <defs>
       <path d="M 0 0 
L -3.5 0 
" id="m32da877964" style="stroke:#000000;stroke-width:0.8;"/>
      </defs>
      <g>
       <use style="stroke:#000000;stroke-width:0.8;" x="34.13" xlink:href="#m32da877964" y="104.6"/>
      </g>
     </g>
     <g id="text_7">
      <text style="font-family:DejaVu Sans;font-size:8px;font-stretch:normal;font-style:normal;font-weight:normal;text-anchor:end;" transform="rotate(-0, 27.13, 107.639375)" x="27.13" y="107.639375">0</text>
     </g>
    </g>
    <g id="ytick_5">
     <g id="line2d_8">
      <g>
       <use style="stroke:#000000;stroke-width:0.8;" x="34.13" xlink:href="#m32da877964" y="74.293333"/>
      </g>
     </g>
     <g id="text_8">
      <text style="font-family:DejaVu Sans;font-size:8px;font-stretch:normal;font-style:normal;font-weight:normal;text-anchor:end;" transform="rotate(-0, 27.13, 77.332708)" x="27.13" y="77.332708">1</text>
     </g>
    </g>
    <g id="ytick_6">
     <g id="line2d_9">
      <g>
       <use style="stroke:#000000;stroke-width:0.8;" x="34.13" xlink:href="#m32da877964" y="43.986667"/>
      </g>
     </g>
     <g id="text_9">
      <text style="font-family:DejaVu Sans;font-size:8px;font-stretch:normal;font-style:normal;font-weight:normal;text-anchor:end;" transform="rotate(-0, 27.13, 47.026042)" x="27.13" y="47.026042">2</text>
     </g>
    </g>
    <g id="ytick_7">
     <g id="line2d_10">
      <g>
       <use style="stroke:#000000;stroke-width:0.8;" x="34.13" xlink:href="#m32da877964" y="13.68"/>
      </g>
     </g>
     <g id="text_10">
      <text style="font-family:DejaVu Sans;font-size:8px;font-stretch:normal;font-style:normal;font-weight:normal;text-anchor:end;" transform="rotate(-0, 27.13, 16.719375)" x="27.13" y="16.719375">3</text>
     </g>
    </g>
    <g id="text_11">
     <text style="font-family:DejaVu Sans;font-size:8px;font-stretch:normal;font-style:normal;font-weight:normal;text-anchor:middle;" transform="rotate(-90, 16.37625, 59.14)" x="16.37625" y="59.14">Normalised concentration</text>
    </g>
   </g>
   <g id="line2d_11">
    <path clip-path="url(#p1a35c95216)" d="M 40.039545 77.289843 
L 41.233393 77.222226 
L 42.427241 77.038571 
L 43.621088 76.738933 
L 44.814936 76.323453 
L 46.008783 75.792394 
L 47.202631 75.146162 
L 48.396478 74.385335 
L 49.590326 73.510668 
L 50.784174 72.52309 
L 51.978021 71.42368 
L 53.171869 70.213619 
L 54.365716 68.894136 
L 55.559564 67.46644 
L 56.753411 65.931663 
L 57.947259 64.290827 
L 59.141107 62.544848 
L 60.334954 60.694615 
L 61.528802 58.741138 
L 62.722649 56.685809 
L 63.916497 54.530764 
L 65.110344 52.279365 
L 66.304192 49.936795 
L 67.498039 47.510757 
L 68.691887 45.012247 
L 69.885735 42.456375 
L 71.079582 39.8632 
L 72.27343 37.258501 
L 73.467277 34.674441 
L 74.661125 32.150036 
L 75.854972 29.731343 
L 77.04882 27.47128 
L 78.242668 25.428983 
L 79.436515 23.66863 
L 80.630363 22.257654 
L 81.82421 21.264339 
L 83.018058 20.754803 
L 84.211905 20.789468 
L 85.405753 21.419162 
L 86.599601 22.681096 
L 87.793448 24.595021 
L 88.987296 27.159927 
L 90.181143 30.351675 
L 91.374991 34.121928 
L 92.568838 38.398687 
L 93.762686 43.088591 
L 94.956534 48.081001 
L 96.150381 53.253643 
L 97.344229 58.479401 
L 98.538076 63.633675 
L 99.731924 68.601595 
L 100.925771 73.284367 
L 102.119619 77.60412 
L 103.313466 81.506793 
L 104.507314 84.962868 
L 105.701162 87.966027 
L 106.895009 90.53007 
L 108.088857 92.68463 
L 109.282704 94.470302 
L 110.476552 95.933791 
L 111.670399 97.123597 
L 112.864247 98.086563 
L 114.058095 98.865451 
L 115.251942 99.497529 
L 116.44579 100.01403 
L 117.639637 100.440275 
L 118.833485 100.796233 
L 120.027332 101.097307 
L 121.22118 101.355188 
L 122.415028 101.578658 
L 123.608875 101.774292 
L 124.802723 101.94703 
L 125.99657 102.100616 
L 127.190418 102.237931 
L 128.384265 102.361225 
L 129.578113 102.472295 
L 130.771961 102.572598 
L 131.965808 102.663337 
L 133.159656 102.745516 
L 134.353503 102.819987 
L 135.547351 102.887475 
L 136.741198 102.948603 
L 137.935046 103.003906 
L 139.128893 103.053845 
L 140.322741 103.098818 
L 141.516589 103.139161 
L 142.710436 103.175163 
L 143.904284 103.207061 
L 145.098131 103.235044 
L 146.291979 103.259258 
L 147.485826 103.279797 
L 148.679674 103.296704 
L 149.873522 103.309962 
L 151.067369 103.319479 
L 152.261217 103.325074 
L 153.455064 103.326444 
L 154.648912 103.323126 
L 155.842759 103.314421 
L 157.036607 103.2993 
L 158.230455 103.276232 
" style="fill:none;stroke:#ff7f0e;stroke-linecap:square;stroke-width:1.5;"/>
   </g>
   <g id="line2d_12">
    <path clip-path="url(#p1a35c95216)" d="M 40.039545 69.425406 
L 41.233393 69.34511 
L 42.427241 69.184928 
L 43.621088 68.945679 
L 44.814936 68.628605 
L 46.008783 68.235376 
L 47.202631 67.76811 
L 48.396478 67.229384 
L 49.590326 66.622256 
L 50.784174 65.950282 
L 51.978021 65.217532 
L 53.171869 64.428612 
L 54.365716 63.588677 
L 55.559564 62.703436 
L 56.753411 61.779164 
L 57.947259 60.8227 
L 59.141107 59.841431 
L 60.334954 58.843282 
L 61.528802 57.836683 
L 62.722649 56.830531 
L 63.916497 55.834137 
L 65.110344 54.857163 
L 66.304192 53.909548 
L 67.498039 53.001414 
L 68.691887 52.142973 
L 69.885735 51.34441 
L 71.079582 50.615766 
L 72.27343 49.966808 
L 73.467277 49.406898 
L 74.661125 48.944855 
L 75.854972 48.588819 
L 77.04882 48.346117 
L 78.242668 48.223136 
L 79.436515 48.225202 
L 80.630363 48.356478 
L 81.82421 48.619871 
L 83.018058 49.016958 
L 84.211905 49.547938 
L 85.405753 50.211601 
L 86.599601 51.005322 
L 87.793448 51.925083 
L 88.987296 52.965519 
L 90.181143 54.119983 
L 91.374991 55.380646 
L 92.568838 56.738607 
L 93.762686 58.184032 
L 94.956534 59.706299 
L 96.150381 61.294168 
L 97.344229 62.93595 
L 98.538076 64.619686 
L 99.731924 66.333327 
L 100.925771 68.06491 
L 102.119619 69.802725 
L 103.313466 71.535477 
L 104.507314 73.252431 
L 105.701162 74.943539 
L 106.895009 76.599548 
L 108.088857 78.212096 
L 109.282704 79.773775 
L 110.476552 81.278179 
L 111.670399 82.719929 
L 112.864247 84.09468 
L 114.058095 85.399102 
L 115.251942 86.630851 
L 116.44579 87.78852 
L 117.639637 88.871578 
L 118.833485 89.880298 
L 120.027332 90.815675 
L 121.22118 91.679344 
L 122.415028 92.473488 
L 123.608875 93.200751 
L 124.802723 93.864148 
L 125.99657 94.466979 
L 127.190418 95.012751 
L 128.384265 95.505101 
L 129.578113 95.947731 
L 130.771961 96.344343 
L 131.965808 96.698592 
L 133.159656 97.014038 
L 134.353503 97.294111 
L 135.547351 97.542081 
L 136.741198 97.761037 
L 137.935046 97.953871 
L 139.128893 98.123266 
L 140.322741 98.271698 
L 141.516589 98.401426 
L 142.710436 98.514503 
L 143.904284 98.612781 
L 145.098131 98.697914 
L 146.291979 98.771375 
L 147.485826 98.83446 
L 148.679674 98.888303 
L 149.873522 98.93389 
L 151.067369 98.972062 
L 152.261217 99.003533 
L 153.455064 99.028894 
L 154.648912 99.048627 
L 155.842759 99.063106 
L 157.036607 99.072607 
L 158.230455 99.077313 
" style="fill:none;stroke:#1f77b4;stroke-linecap:square;stroke-width:1.5;"/>
   </g>
   <g id="patch_6">
    <path d="M 34.13 104.6 
L 34.13 13.68 
" style="fill:none;stroke:#000000;stroke-linecap:square;stroke-linejoin:miter;stroke-width:0.8;"/>
   </g>
   <g id="patch_7">
    <path d="M 164.14 104.6 
L 164.14 13.68 
" style="fill:none;stroke:#999999;stroke-linecap:square;stroke-linejoin:miter;stroke-width:0.8;"/>
   </g>
   <g id="patch_8">
    <path d="M 34.13 104.6 
L 164.14 104.6 
" style="fill:none;stroke:#000000;stroke-linecap:square;stroke-linejoin:miter;stroke-width:0.8;"/>
   </g>
   <g id="patch_9">
    <path d="M 34.13 13.68 
L 164.14 13.68 
" style="fill:none;stroke:#000000;stroke-linecap:square;stroke-linejoin:miter;stroke-width:0.8;"/>
   </g>
   <g id="legend_1">
    <g id="line2d_13">
     <path d="M 39.53 87.045312 
L 51.53 87.045312 
" style="fill:none;stroke:#ff7f0e;stroke-linecap:square;stroke-width:1.5;"/>
    </g>
    <g id="line2d_14"/>
    <g id="text_12">
     <text style="font-family:DejaVu Sans;font-size:6px;font-stretch:normal;font-style:normal;font-weight:normal;text-anchor:start;" transform="rotate(-0, 56.33, 89.145312)" x="56.33" y="89.145312">End of flow</text>
    </g>
    <g id="line2d_15">
     <path d="M 39.53 95.852187 
L 51.53 95.852187 
" style="fill:none;stroke:#1f77b4;stroke-linecap:square;stroke-width:1.5;"/>
    </g>
    <g id="line2d_16"/>
    <g id="text_13">
     <text style="font-family:DejaVu Sans;font-size:6px;font-stretch:normal;font-style:normal;font-weight:normal;text-anchor:start;" transform="rotate(-0, 56.33, 97.952187)" x="56.33" y="97.952187">300s post flow</text>
    </g>
   </g>
  </g>
 </g>
 <defs>
  <clipPath id="p1a35c95216">
   <rect height="90.92" width="130.01" x="34.13" y="13.68"/>
  </clipPath>
 </defs>
</svg>
