<?xml version="1.0" encoding="utf-8" standalone="no"?>
<!DOCTYPE svg PUBLIC "-//W3C//DTD SVG 1.1//EN"
  "http://www.w3.org/Graphics/SVG/1.1/DTD/svg11.dtd">
<!-- Created with matplotlib (https://matplotlib.org/) -->
<svg height="129.6pt" version="1.1" viewBox="0 0 216 129.6" width="216pt" xmlns="http://www.w3.org/2000/svg" xmlns:xlink="http://www.w3.org/1999/xlink">
 <metadata>
  <rdf:RDF xmlns:cc="http://creativecommons.org/ns#" xmlns:dc="http://purl.org/dc/elements/1.1/" xmlns:rdf="http://www.w3.org/1999/02/22-rdf-syntax-ns#">
   <cc:Work>
    <dc:type rdf:resource="http://purl.org/dc/dcmitype/StillImage"/>
    <dc:date>2022-05-17T10:30:43.169298</dc:date>
    <dc:format>image/svg+xml</dc:format>
    <dc:creator>
     <cc:Agent>
      <dc:title>Matplotlib v3.3.4, https://matplotlib.org/</dc:title>
     </cc:Agent>
    </dc:creator>
   </cc:Work>
  </rdf:RDF>
 </metadata>
 <defs>
  <style type="text/css">*{stroke-linecap:butt;stroke-linejoin:round;}</style>
 </defs>
 <g id="figure_1">
  <g id="patch_1">
   <path d="M 0 129.6 
L 216 129.6 
L 216 0 
L 0 0 
z
" style="fill:none;"/>
  </g>
  <g id="axes_1">
   <g id="matplotlib.axis_1">
    <g id="ytick_1">
     <g id="line2d_1">
      <defs>
       <path d="M 0 0 
L 3.5 0 
" id="m3ad1f0b6f5" style="stroke:#999999;stroke-width:0.8;"/>
      </defs>
      <g>
       <use style="fill:#999999;stroke:#999999;stroke-width:0.8;" x="164.14" xlink:href="#m3ad1f0b6f5" y="97.831281"/>
      </g>
     </g>
     <g id="text_1">
      <text style="fill:#999999;font-family:DejaVu Sans;font-size:8px;font-stretch:normal;font-style:normal;font-weight:normal;text-anchor:start;" transform="rotate(-0, 171.14, 100.870656)" x="171.14" y="100.870656">0.00</text>
     </g>
    </g>
    <g id="ytick_2">
     <g id="line2d_2">
      <g>
       <use style="fill:#999999;stroke:#999999;stroke-width:0.8;" x="164.14" xlink:href="#m3ad1f0b6f5" y="62.919633"/>
      </g>
     </g>
     <g id="text_2">
      <text style="fill:#999999;font-family:DejaVu Sans;font-size:8px;font-stretch:normal;font-style:normal;font-weight:normal;text-anchor:start;" transform="rotate(-0, 171.14, 65.959008)" x="171.14" y="65.959008">0.05</text>
     </g>
    </g>
    <g id="ytick_3">
     <g id="line2d_3">
      <g>
       <use style="fill:#999999;stroke:#999999;stroke-width:0.8;" x="164.14" xlink:href="#m3ad1f0b6f5" y="28.007986"/>
      </g>
     </g>
     <g id="text_3">
      <text style="fill:#999999;font-family:DejaVu Sans;font-size:8px;font-stretch:normal;font-style:normal;font-weight:normal;text-anchor:start;" transform="rotate(-0, 171.14, 31.047361)" x="171.14" y="31.047361">0.10</text>
     </g>
    </g>
    <g id="text_4">
     <text style="fill:#999999;font-family:DejaVu Sans;font-size:8px;font-stretch:normal;font-style:normal;font-weight:normal;text-anchor:middle;" transform="rotate(-90, 199.03125, 59.14)" x="199.03125" y="59.14">Flow velocity (µm/s)</text>
    </g>
   </g>
   <g id="line2d_4">
    <path clip-path="url(#p913ad6b0e0)" d="M 40.039545 97.774487 
L 41.233393 98.185251 
L 42.427241 98.584859 
L 43.621088 98.964101 
L 44.814936 99.31438 
L 46.008783 99.627994 
L 47.202631 99.898371 
L 48.396478 100.120243 
L 49.590326 100.289759 
L 50.784174 100.404522 
L 51.978021 100.463567 
L 53.171869 100.467273 
L 54.365716 100.41721 
L 55.559564 100.315957 
L 56.753411 100.166877 
L 57.947259 99.973874 
L 59.141107 99.741148 
L 60.334954 99.472951 
L 61.528802 99.173361 
L 62.722649 98.84609 
L 63.916497 98.494312 
L 65.110344 98.120533 
L 66.304192 97.726503 
L 67.498039 97.31316 
L 68.691887 96.880611 
L 69.885735 96.428145 
L 71.079582 95.954271 
L 72.27343 95.456779 
L 73.467277 94.932816 
L 74.661125 94.378972 
L 75.854972 93.791374 
L 77.04882 93.165781 
L 78.242668 92.497673 
L 79.436515 91.782351 
L 80.630363 91.015014 
L 81.82421 90.190845 
L 83.018058 89.305082 
L 84.211905 88.353093 
L 85.405753 87.33044 
L 86.599601 86.232942 
L 87.793448 85.056734 
L 88.987296 83.79833 
L 90.181143 82.454681 
L 91.374991 81.023232 
L 92.568838 79.501985 
L 93.762686 77.889561 
L 94.956534 76.185256 
L 96.150381 74.389112 
L 97.344229 72.501969 
L 98.538076 70.525534 
L 99.731924 68.462439 
L 100.925771 66.31629 
L 102.119619 64.091729 
L 103.313466 61.794472 
L 104.507314 59.431352 
L 105.701162 57.010347 
L 106.895009 54.540604 
L 108.088857 52.032446 
L 109.282704 49.497368 
L 110.476552 46.948027 
L 111.670399 44.398202 
L 112.864247 41.862758 
L 114.058095 39.357575 
L 115.251942 36.899476 
L 116.44579 34.506127 
L 117.639637 32.195929 
L 118.833485 29.987887 
L 120.027332 27.901469 
L 121.22118 25.956445 
L 122.415028 24.172716 
L 123.608875 22.570128 
L 124.802723 21.168282 
L 125.99657 19.986325 
L 127.190418 19.042743 
L 128.384265 18.35515 
L 129.578113 17.940069 
L 130.771961 17.812727 
L 131.965808 17.986842 
L 133.159656 18.474423 
L 134.353503 19.285588 
L 135.547351 20.428382 
L 136.741198 21.90862 
L 137.935046 23.729753 
L 139.128893 25.892746 
L 140.322741 28.395989 
L 141.516589 31.235229 
L 142.710436 34.403534 
L 143.904284 37.891287 
L 145.098131 41.686203 
L 146.291979 45.773386 
L 147.485826 50.135414 
L 148.679674 54.752451 
L 149.873522 59.602393 
L 151.067369 64.66104 
L 152.261217 69.902295 
L 153.455064 75.298387 
L 154.648912 80.820114 
L 155.842759 86.437109 
L 157.036607 92.118117 
L 158.230455 97.831281 
" style="fill:none;stroke:#cccccc;stroke-dasharray:5.55,2.4;stroke-dashoffset:0;stroke-width:1.5;"/>
   </g>
   <g id="patch_2">
    <path d="M 34.13 104.6 
L 34.13 13.68 
" style="fill:none;stroke:#000000;stroke-linecap:square;stroke-linejoin:miter;stroke-width:0.8;"/>
   </g>
   <g id="patch_3">
    <path d="M 164.14 104.6 
L 164.14 13.68 
" style="fill:none;stroke:#000000;stroke-linecap:square;stroke-linejoin:miter;stroke-width:0.8;"/>
   </g>
   <g id="patch_4">
    <path d="M 34.13 104.6 
L 164.14 104.6 
" style="fill:none;stroke:#000000;stroke-linecap:square;stroke-linejoin:miter;stroke-width:0.8;"/>
   </g>
   <g id="patch_5">
    <path d="M 34.13 13.68 
L 164.14 13.68 
" style="fill:none;stroke:#000000;stroke-linecap:square;stroke-linejoin:miter;stroke-width:0.8;"/>
   </g>
  </g>
  <g id="axes_2">
   <g id="matplotlib.axis_2">
    <g id="xtick_1">
     <g id="line2d_5">
      <defs>
       <path d="M 0 0 
L 0 3.5 
" id="m5125ef4890" style="stroke:#000000;stroke-width:0.8;"/>
      </defs>
      <g>
       <use style="stroke:#000000;stroke-width:0.8;" x="40.039545" xlink:href="#m5125ef4890" y="104.6"/>
      </g>
     </g>
     <g id="text_5">
      <text style="font-family:DejaVu Sans;font-size:8px;font-stretch:normal;font-style:normal;font-weight:normal;text-anchor:middle;" transform="rotate(-0, 40.039545, 117.67875)" x="40.039545" y="117.67875">A</text>
     </g>
    </g>
    <g id="xtick_2">
     <g id="line2d_6">
      <g>
       <use style="stroke:#000000;stroke-width:0.8;" x="158.230455" xlink:href="#m5125ef4890" y="104.6"/>
      </g>
     </g>
     <g id="text_6">
      <text style="font-family:DejaVu Sans;font-size:8px;font-stretch:normal;font-style:normal;font-weight:normal;text-anchor:middle;" transform="rotate(-0, 158.230455, 117.67875)" x="158.230455" y="117.67875">P</text>
     </g>
    </g>
   </g>
   <g id="matplotlib.axis_3">
    <g id="ytick_4">
     <g id="line2d_7">
      <defs>
       <path d="M 0 0 
L -3.5 0 
" id="m38139c6c63" style="stroke:#000000;stroke-width:0.8;"/>
      </defs>
      <g>
       <use style="stroke:#000000;stroke-width:0.8;" x="34.13" xlink:href="#m38139c6c63" y="104.6"/>
      </g>
     </g>
     <g id="text_7">
      <text style="font-family:DejaVu Sans;font-size:8px;font-stretch:normal;font-style:normal;font-weight:normal;text-anchor:end;" transform="rotate(-0, 27.13, 107.639375)" x="27.13" y="107.639375">0</text>
     </g>
    </g>
    <g id="ytick_5">
     <g id="line2d_8">
      <g>
       <use style="stroke:#000000;stroke-width:0.8;" x="34.13" xlink:href="#m38139c6c63" y="74.293333"/>
      </g>
     </g>
     <g id="text_8">
      <text style="font-family:DejaVu Sans;font-size:8px;font-stretch:normal;font-style:normal;font-weight:normal;text-anchor:end;" transform="rotate(-0, 27.13, 77.332708)" x="27.13" y="77.332708">1</text>
     </g>
    </g>
    <g id="ytick_6">
     <g id="line2d_9">
      <g>
       <use style="stroke:#000000;stroke-width:0.8;" x="34.13" xlink:href="#m38139c6c63" y="43.986667"/>
      </g>
     </g>
     <g id="text_9">
      <text style="font-family:DejaVu Sans;font-size:8px;font-stretch:normal;font-style:normal;font-weight:normal;text-anchor:end;" transform="rotate(-0, 27.13, 47.026042)" x="27.13" y="47.026042">2</text>
     </g>
    </g>
    <g id="ytick_7">
     <g id="line2d_10">
      <g>
       <use style="stroke:#000000;stroke-width:0.8;" x="34.13" xlink:href="#m38139c6c63" y="13.68"/>
      </g>
     </g>
     <g id="text_10">
      <text style="font-family:DejaVu Sans;font-size:8px;font-stretch:normal;font-style:normal;font-weight:normal;text-anchor:end;" transform="rotate(-0, 27.13, 16.719375)" x="27.13" y="16.719375">3</text>
     </g>
    </g>
    <g id="text_11">
     <text style="font-family:DejaVu Sans;font-size:8px;font-stretch:normal;font-style:normal;font-weight:normal;text-anchor:middle;" transform="rotate(-90, 16.37625, 59.14)" x="16.37625" y="59.14">Normalised concentration</text>
    </g>
   </g>
   <g id="line2d_11">
    <path clip-path="url(#p913ad6b0e0)" d="M 40.039545 76.512575 
L 41.233393 76.500388 
L 42.427241 76.42729 
L 43.621088 76.294818 
L 44.814936 76.104992 
L 46.008783 75.860309 
L 47.202631 75.563713 
L 48.396478 75.218543 
L 49.590326 74.82846 
L 50.784174 74.397342 
L 51.978021 73.929157 
L 53.171869 73.427819 
L 54.365716 72.89702 
L 55.559564 72.340061 
L 56.753411 71.759689 
L 57.947259 71.157946 
L 59.141107 70.53605 
L 60.334954 69.894322 
L 61.528802 69.232156 
L 62.722649 68.548054 
L 63.916497 67.839718 
L 65.110344 67.104204 
L 66.304192 66.338134 
L 67.498039 65.537962 
L 68.691887 64.700281 
L 69.885735 63.822169 
L 71.079582 62.901561 
L 72.27343 61.93764 
L 73.467277 60.931227 
L 74.661125 59.885169 
L 75.854972 58.804695 
L 77.04882 57.697736 
L 78.242668 56.575177 
L 79.436515 55.45101 
L 80.630363 54.34238 
L 81.82421 53.269471 
L 83.018058 52.255218 
L 84.211905 51.324822 
L 85.405753 50.505047 
L 86.599601 49.823314 
L 87.793448 49.306596 
L 88.987296 48.980166 
L 90.181143 48.866269 
L 91.374991 48.982787 
L 92.568838 49.342015 
L 93.762686 49.949662 
L 94.956534 50.804168 
L 96.150381 51.896443 
L 97.344229 53.210077 
L 98.538076 54.722024 
L 99.731924 56.403743 
L 100.925771 58.222681 
L 102.119619 60.143993 
L 103.313466 62.132328 
L 104.507314 64.153525 
L 105.701162 66.176082 
L 106.895009 68.172278 
L 108.088857 70.118907 
L 109.282704 71.997589 
L 110.476552 73.794727 
L 111.670399 75.501154 
L 112.864247 77.111582 
L 114.058095 78.623938 
L 115.251942 80.038669 
L 116.44579 81.358092 
L 117.639637 82.585815 
L 118.833485 83.726266 
L 120.027332 84.784323 
L 121.22118 85.765039 
L 122.415028 86.673453 
L 123.608875 87.514459 
L 124.802723 88.292732 
L 125.99657 89.012678 
L 127.190418 89.678418 
L 128.384265 90.293777 
L 129.578113 90.862291 
L 130.771961 91.387217 
L 131.965808 91.871542 
L 133.159656 92.317999 
L 134.353503 92.729078 
L 135.547351 93.107045 
L 136.741198 93.453946 
L 137.935046 93.771626 
L 139.128893 94.061731 
L 140.322741 94.325718 
L 141.516589 94.564857 
L 142.710436 94.780232 
L 143.904284 94.972736 
L 145.098131 95.14306 
L 146.291979 95.291675 
L 147.485826 95.4188 
L 148.679674 95.52436 
L 149.873522 95.607909 
L 151.067369 95.668535 
L 152.261217 95.704695 
L 153.455064 95.713986 
L 154.648912 95.692779 
L 155.842759 95.635657 
L 157.036607 95.534535 
L 158.230455 95.377234 
" style="fill:none;stroke:#ff7f0e;stroke-linecap:square;stroke-width:1.5;"/>
   </g>
   <g id="line2d_12">
    <path clip-path="url(#p913ad6b0e0)" d="M 40.039545 74.01596 
L 41.233393 74.007701 
L 42.427241 73.991208 
L 43.621088 73.966532 
L 44.814936 73.933746 
L 46.008783 73.892954 
L 47.202631 73.844282 
L 48.396478 73.787888 
L 49.590326 73.723955 
L 50.784174 73.652699 
L 51.978021 73.574368 
L 53.171869 73.489243 
L 54.365716 73.397641 
L 55.559564 73.299916 
L 56.753411 73.196465 
L 57.947259 73.087725 
L 59.141107 72.974178 
L 60.334954 72.856354 
L 61.528802 72.734831 
L 62.722649 72.610238 
L 63.916497 72.483253 
L 65.110344 72.354609 
L 66.304192 72.225088 
L 67.498039 72.095522 
L 68.691887 71.966793 
L 69.885735 71.839827 
L 71.079582 71.715589 
L 72.27343 71.59508 
L 73.467277 71.479329 
L 74.661125 71.369384 
L 75.854972 71.266304 
L 77.04882 71.171147 
L 78.242668 71.084961 
L 79.436515 71.008769 
L 80.630363 70.943557 
L 81.82421 70.890263 
L 83.018058 70.849759 
L 84.211905 70.822843 
L 85.405753 70.810223 
L 86.599601 70.812506 
L 87.793448 70.830185 
L 88.987296 70.863635 
L 90.181143 70.9131 
L 91.374991 70.978688 
L 92.568838 71.060368 
L 93.762686 71.157969 
L 94.956534 71.271179 
L 96.150381 71.399548 
L 97.344229 71.542492 
L 98.538076 71.699303 
L 99.731924 71.869156 
L 100.925771 72.05112 
L 102.119619 72.244173 
L 103.313466 72.447211 
L 104.507314 72.65907 
L 105.701162 72.878534 
L 106.895009 73.104356 
L 108.088857 73.335275 
L 109.282704 73.570024 
L 110.476552 73.807354 
L 111.670399 74.046042 
L 112.864247 74.284909 
L 114.058095 74.522826 
L 115.251942 74.758727 
L 116.44579 74.991619 
L 117.639637 75.220586 
L 118.833485 75.444796 
L 120.027332 75.663503 
L 121.22118 75.876051 
L 122.415028 76.081872 
L 123.608875 76.280488 
L 124.802723 76.471504 
L 125.99657 76.654611 
L 127.190418 76.829575 
L 128.384265 76.996237 
L 129.578113 77.154505 
L 130.771961 77.30435 
L 131.965808 77.445797 
L 133.159656 77.578919 
L 134.353503 77.703834 
L 135.547351 77.820693 
L 136.741198 77.929679 
L 137.935046 78.031 
L 139.128893 78.124879 
L 140.322741 78.211554 
L 141.516589 78.291274 
L 142.710436 78.364287 
L 143.904284 78.430844 
L 145.098131 78.491191 
L 146.291979 78.545568 
L 147.485826 78.594203 
L 148.679674 78.637311 
L 149.873522 78.675094 
L 151.067369 78.707735 
L 152.261217 78.735397 
L 153.455064 78.758224 
L 154.648912 78.776337 
L 155.842759 78.789835 
L 157.036607 78.798792 
L 158.230455 78.803257 
" style="fill:none;stroke:#1f77b4;stroke-linecap:square;stroke-width:1.5;"/>
   </g>
   <g id="patch_6">
    <path d="M 34.13 104.6 
L 34.13 13.68 
" style="fill:none;stroke:#000000;stroke-linecap:square;stroke-linejoin:miter;stroke-width:0.8;"/>
   </g>
   <g id="patch_7">
    <path d="M 164.14 104.6 
L 164.14 13.68 
" style="fill:none;stroke:#999999;stroke-linecap:square;stroke-linejoin:miter;stroke-width:0.8;"/>
   </g>
   <g id="patch_8">
    <path d="M 34.13 104.6 
L 164.14 104.6 
" style="fill:none;stroke:#000000;stroke-linecap:square;stroke-linejoin:miter;stroke-width:0.8;"/>
   </g>
   <g id="patch_9">
    <path d="M 34.13 13.68 
L 164.14 13.68 
" style="fill:none;stroke:#000000;stroke-linecap:square;stroke-linejoin:miter;stroke-width:0.8;"/>
   </g>
   <g id="legend_1">
    <g id="line2d_13">
     <path d="M 39.53 87.045312 
L 51.53 87.045312 
" style="fill:none;stroke:#ff7f0e;stroke-linecap:square;stroke-width:1.5;"/>
    </g>
    <g id="line2d_14"/>
    <g id="text_12">
     <text style="font-family:DejaVu Sans;font-size:6px;font-stretch:normal;font-style:normal;font-weight:normal;text-anchor:start;" transform="rotate(-0, 56.33, 89.145312)" x="56.33" y="89.145312">End of flow</text>
    </g>
    <g id="line2d_15">
     <path d="M 39.53 95.852187 
L 51.53 95.852187 
" style="fill:none;stroke:#1f77b4;stroke-linecap:square;stroke-width:1.5;"/>
    </g>
    <g id="line2d_16"/>
    <g id="text_13">
     <text style="font-family:DejaVu Sans;font-size:6px;font-stretch:normal;font-style:normal;font-weight:normal;text-anchor:start;" transform="rotate(-0, 56.33, 97.952187)" x="56.33" y="97.952187">300s post flow</text>
    </g>
   </g>
  </g>
 </g>
 <defs>
  <clipPath id="p913ad6b0e0">
   <rect height="90.92" width="130.01" x="34.13" y="13.68"/>
  </clipPath>
 </defs>
</svg>
