<?xml version="1.0" encoding="utf-8" standalone="no"?>
<!DOCTYPE svg PUBLIC "-//W3C//DTD SVG 1.1//EN"
  "http://www.w3.org/Graphics/SVG/1.1/DTD/svg11.dtd">
<!-- Created with matplotlib (https://matplotlib.org/) -->
<svg height="129.6pt" version="1.1" viewBox="0 0 223.2 129.6" width="223.2pt" xmlns="http://www.w3.org/2000/svg" xmlns:xlink="http://www.w3.org/1999/xlink">
 <metadata>
  <rdf:RDF xmlns:cc="http://creativecommons.org/ns#" xmlns:dc="http://purl.org/dc/elements/1.1/" xmlns:rdf="http://www.w3.org/1999/02/22-rdf-syntax-ns#">
   <cc:Work>
    <dc:type rdf:resource="http://purl.org/dc/dcmitype/StillImage"/>
    <dc:date>2022-05-17T10:52:00.963151</dc:date>
    <dc:format>image/svg+xml</dc:format>
    <dc:creator>
     <cc:Agent>
      <dc:title>Matplotlib v3.3.4, https://matplotlib.org/</dc:title>
     </cc:Agent>
    </dc:creator>
   </cc:Work>
  </rdf:RDF>
 </metadata>
 <defs>
  <style type="text/css">*{stroke-linecap:butt;stroke-linejoin:round;}</style>
 </defs>
 <g id="figure_1">
  <g id="patch_1">
   <path d="M 0 129.6 
L 223.2 129.6 
L 223.2 0 
L 0 0 
z
" style="fill:none;"/>
  </g>
  <g id="axes_1">
   <g id="matplotlib.axis_1">
    <g id="ytick_1">
     <g id="line2d_1">
      <defs>
       <path d="M 0 0 
L 3.5 0 
" id="ma6ad4571fd" style="stroke:#999999;stroke-width:0.8;"/>
      </defs>
      <g>
       <use style="fill:#999999;stroke:#999999;stroke-width:0.8;" x="171.34" xlink:href="#ma6ad4571fd" y="97.616873"/>
      </g>
     </g>
     <g id="text_1">
      <text style="fill:#999999;font-family:DejaVu Sans;font-size:8px;font-stretch:normal;font-style:normal;font-weight:normal;text-anchor:start;" transform="rotate(-0, 178.34, 100.656248)" x="178.34" y="100.656248">0.00</text>
     </g>
    </g>
    <g id="ytick_2">
     <g id="line2d_2">
      <g>
       <use style="fill:#999999;stroke:#999999;stroke-width:0.8;" x="171.34" xlink:href="#ma6ad4571fd" y="61.599358"/>
      </g>
     </g>
     <g id="text_2">
      <text style="fill:#999999;font-family:DejaVu Sans;font-size:8px;font-stretch:normal;font-style:normal;font-weight:normal;text-anchor:start;" transform="rotate(-0, 178.34, 64.638733)" x="178.34" y="64.638733">0.05</text>
     </g>
    </g>
    <g id="ytick_3">
     <g id="line2d_3">
      <g>
       <use style="fill:#999999;stroke:#999999;stroke-width:0.8;" x="171.34" xlink:href="#ma6ad4571fd" y="25.581842"/>
      </g>
     </g>
     <g id="text_3">
      <text style="fill:#999999;font-family:DejaVu Sans;font-size:8px;font-stretch:normal;font-style:normal;font-weight:normal;text-anchor:start;" transform="rotate(-0, 178.34, 28.621217)" x="178.34" y="28.621217">0.10</text>
     </g>
    </g>
    <g id="text_4">
     <text style="fill:#999999;font-family:DejaVu Sans;font-size:8px;font-stretch:normal;font-style:normal;font-weight:normal;text-anchor:middle;" transform="rotate(-90, 206.23125, 57.7)" x="206.23125" y="57.7">Flow velocity (µm/s)</text>
    </g>
   </g>
   <g id="line2d_4">
    <path clip-path="url(#p29548a89ed)" d="M 40.366818 97.558281 
L 41.626781 97.982056 
L 42.886745 98.394323 
L 44.146708 98.785577 
L 45.406671 99.146952 
L 46.666635 99.4705 
L 47.926598 99.749441 
L 49.186561 99.978342 
L 50.446524 100.153227 
L 51.706488 100.271625 
L 52.966451 100.332541 
L 54.226414 100.336364 
L 55.486377 100.284715 
L 56.746341 100.180255 
L 58.006304 100.026453 
L 59.266267 99.827336 
L 60.52623 99.587238 
L 61.786194 99.310545 
L 63.046157 99.001466 
L 64.30612 98.663828 
L 65.566084 98.300907 
L 66.826047 97.915288 
L 68.08601 97.508776 
L 69.345973 97.08234 
L 70.605937 96.63609 
L 71.8659 96.169292 
L 73.125863 95.680407 
L 74.385826 95.167157 
L 75.64579 94.626596 
L 76.905753 94.055209 
L 78.165716 93.448998 
L 79.42568 92.803588 
L 80.685643 92.114318 
L 81.945606 91.376337 
L 83.205569 90.584694 
L 84.465533 89.734417 
L 85.725496 88.820597 
L 86.985459 87.838453 
L 88.245422 86.783406 
L 89.505386 85.651143 
L 90.765349 84.437677 
L 92.025312 83.139412 
L 93.285275 81.753201 
L 94.545239 80.276409 
L 95.805202 78.706976 
L 97.065165 77.043476 
L 98.325129 75.285185 
L 99.585092 73.432145 
L 100.845055 71.485225 
L 102.105018 69.446185 
L 103.364982 67.317738 
L 104.624945 65.103608 
L 105.884908 62.808581 
L 107.144871 60.438556 
L 108.404835 58.000581 
L 109.664798 55.502888 
L 110.924761 52.954913 
L 112.184725 50.367305 
L 113.444688 47.751926 
L 114.704651 45.121831 
L 115.964614 42.491238 
L 117.224578 39.875481 
L 118.484541 37.290943 
L 119.744504 34.754981 
L 121.004467 32.28582 
L 122.264431 29.902443 
L 123.524394 27.624459 
L 124.784357 25.471951 
L 126.04432 23.465316 
L 127.304284 21.625085 
L 128.564247 19.971734 
L 129.82421 18.525483 
L 131.084174 17.306086 
L 132.344137 16.332615 
L 133.6041 15.623241 
L 134.864063 15.195012 
L 136.124027 15.063636 
L 137.38399 15.243266 
L 138.643953 15.746293 
L 139.903916 16.583152 
L 141.16388 17.762145 
L 142.423843 19.289272 
L 143.683806 21.168091 
L 144.94377 23.3996 
L 146.203733 25.982135 
L 147.463696 28.911312 
L 148.723659 32.179977 
L 149.983623 35.778209 
L 151.243586 39.693333 
L 152.503549 43.909983 
L 153.763512 48.410183 
L 155.023476 53.17347 
L 156.283439 58.17704 
L 157.543402 63.395926 
L 158.803365 68.803204 
L 160.063329 74.370223 
L 161.323292 80.066858 
L 162.583255 85.861778 
L 163.843219 91.722738 
L 165.103182 97.616873 
" style="fill:none;stroke:#cccccc;stroke-dasharray:5.55,2.4;stroke-dashoffset:0;stroke-width:1.5;"/>
   </g>
   <g id="patch_2">
    <path d="M 34.13 104.6 
L 34.13 10.8 
" style="fill:none;stroke:#000000;stroke-linecap:square;stroke-linejoin:miter;stroke-width:0.8;"/>
   </g>
   <g id="patch_3">
    <path d="M 171.34 104.6 
L 171.34 10.8 
" style="fill:none;stroke:#000000;stroke-linecap:square;stroke-linejoin:miter;stroke-width:0.8;"/>
   </g>
   <g id="patch_4">
    <path d="M 34.13 104.6 
L 171.34 104.6 
" style="fill:none;stroke:#000000;stroke-linecap:square;stroke-linejoin:miter;stroke-width:0.8;"/>
   </g>
   <g id="patch_5">
    <path d="M 34.13 10.8 
L 171.34 10.8 
" style="fill:none;stroke:#000000;stroke-linecap:square;stroke-linejoin:miter;stroke-width:0.8;"/>
   </g>
  </g>
  <g id="axes_2">
   <g id="PolyCollection_1">
    <defs>
     <path d="M 40.366818 -73.207648 
L 40.366818 -44.097212 
L 42.912458 -45.968362 
L 45.458098 -47.597527 
L 48.003738 -49.27445 
L 50.549378 -52.788242 
L 53.095019 -52.045159 
L 55.640659 -54.493937 
L 58.186299 -62.447018 
L 60.731939 -55.27872 
L 63.277579 -40.0123 
L 65.823219 -57.297026 
L 68.368859 -53.48386 
L 70.914499 -65.67297 
L 73.460139 -76.062433 
L 76.005779 -78.976243 
L 78.551419 -69.439058 
L 81.097059 -55.764424 
L 83.642699 -59.089866 
L 86.18834 -57.276024 
L 88.73398 -58.498772 
L 91.27962 -50.775688 
L 93.82526 -43.382089 
L 96.3709 -36.574435 
L 98.91654 -34.462557 
L 101.46218 -33.62778 
L 104.00782 -30.439097 
L 106.55346 -26.710046 
L 109.0991 -29.260511 
L 111.64474 -28.025783 
L 114.19038 -31.585684 
L 116.73602 -30.884493 
L 119.28166 -33.22078 
L 121.827301 -31.513532 
L 124.372941 -32.487182 
L 126.918581 -32.456738 
L 129.464221 -30.857548 
L 132.009861 -31.198326 
L 134.555501 -30.631973 
L 137.101141 -30.030404 
L 139.646781 -32.28955 
L 142.192421 -32.837572 
L 144.738061 -32.985151 
L 147.283701 -31.874494 
L 149.829341 -31.791915 
L 152.374981 -30.552177 
L 154.920622 -30.689997 
L 157.466262 -32.46069 
L 160.011902 -31.618957 
L 162.557542 -31.56428 
L 165.103182 -32.048151 
L 165.103182 -36.17293 
L 165.103182 -36.17293 
L 162.557542 -36.362638 
L 160.011902 -35.306697 
L 157.466262 -35.044353 
L 154.920622 -35.388643 
L 152.374981 -35.06051 
L 149.829341 -36.681592 
L 147.283701 -36.151972 
L 144.738061 -37.007082 
L 142.192421 -39.236004 
L 139.646781 -36.41013 
L 137.101141 -35.774884 
L 134.555501 -37.110097 
L 132.009861 -35.656481 
L 129.464221 -35.213327 
L 126.918581 -36.383386 
L 124.372941 -40.747803 
L 121.827301 -38.889549 
L 119.28166 -38.311248 
L 116.73602 -39.048431 
L 114.19038 -37.973545 
L 111.64474 -36.84699 
L 109.0991 -36.730262 
L 106.55346 -40.158546 
L 104.00782 -41.022711 
L 101.46218 -43.742702 
L 98.91654 -51.273987 
L 96.3709 -69.165318 
L 93.82526 -75.81707 
L 91.27962 -83.968318 
L 88.73398 -98.745108 
L 86.18834 -114.421417 
L 83.642699 -119.842539 
L 81.097059 -131.406888 
L 78.551419 -104.542209 
L 76.005779 -115.489747 
L 73.460139 -101.822002 
L 70.914499 -89.51713 
L 68.368859 -88.21373 
L 65.823219 -110.751101 
L 63.277579 -127.839075 
L 60.731939 -94.702907 
L 58.186299 -91.644274 
L 55.640659 -83.745968 
L 53.095019 -81.82262 
L 50.549378 -78.332723 
L 48.003738 -82.905522 
L 45.458098 -75.013987 
L 42.912458 -82.975016 
L 40.366818 -73.207648 
z
" id="m81b736fc63"/>
    </defs>
    <g clip-path="url(#p29548a89ed)">
     <use style="fill-opacity:0.1;" x="0" xlink:href="#m81b736fc63" y="129.6"/>
    </g>
   </g>
   <g id="line2d_5">
    <path clip-path="url(#p29548a89ed)" d="M 40.366818 70.94757 
L 42.912458 65.128311 
L 45.458098 68.294243 
L 48.003738 63.510014 
L 50.549378 64.039518 
L 53.095019 62.66611 
L 55.640659 60.480048 
L 58.186299 52.554354 
L 60.731939 54.609187 
L 63.277579 45.674312 
L 65.823219 45.575937 
L 68.368859 58.751205 
L 70.914499 52.00495 
L 73.460139 40.657783 
L 76.005779 32.367005 
L 78.551419 42.609366 
L 81.097059 36.014344 
L 83.642699 40.133797 
L 86.18834 43.75128 
L 88.73398 50.97806 
L 91.27962 62.227997 
L 93.82526 70.00042 
L 96.3709 76.730124 
L 98.91654 86.731728 
L 101.46218 90.914759 
L 104.00782 93.869096 
L 106.55346 96.165704 
L 109.0991 96.604614 
L 111.64474 97.163614 
L 114.19038 94.820385 
L 116.73602 94.633538 
L 119.28166 93.833986 
L 121.827301 94.398459 
L 124.372941 92.982508 
L 126.918581 95.179938 
L 129.464221 96.564562 
L 132.009861 96.172596 
L 134.555501 95.728965 
L 137.101141 96.697356 
L 139.646781 95.25016 
L 142.192421 93.563212 
L 144.738061 94.603883 
L 147.283701 95.586767 
L 149.829341 95.363247 
L 152.374981 96.793657 
L 154.920622 96.56068 
L 157.466262 95.847479 
L 160.011902 96.137173 
L 162.557542 95.636541 
L 165.103182 95.48946 
" style="fill:none;stroke:#000000;stroke-linecap:square;"/>
   </g>
   <g id="matplotlib.axis_2">
    <g id="xtick_1">
     <g id="line2d_6">
      <defs>
       <path d="M 0 0 
L 0 3.5 
" id="m5bf3229815" style="stroke:#000000;stroke-width:0.8;"/>
      </defs>
      <g>
       <use style="stroke:#000000;stroke-width:0.8;" x="40.366818" xlink:href="#m5bf3229815" y="104.6"/>
      </g>
     </g>
     <g id="text_5">
      <text style="font-family:DejaVu Sans;font-size:8px;font-stretch:normal;font-style:normal;font-weight:normal;text-anchor:middle;" transform="rotate(-0, 40.366818, 117.67875)" x="40.366818" y="117.67875">A</text>
     </g>
    </g>
    <g id="xtick_2">
     <g id="line2d_7">
      <g>
       <use style="stroke:#000000;stroke-width:0.8;" x="165.103182" xlink:href="#m5bf3229815" y="104.6"/>
      </g>
     </g>
     <g id="text_6">
      <text style="font-family:DejaVu Sans;font-size:8px;font-stretch:normal;font-style:normal;font-weight:normal;text-anchor:middle;" transform="rotate(-0, 165.103182, 117.67875)" x="165.103182" y="117.67875">P</text>
     </g>
    </g>
   </g>
   <g id="matplotlib.axis_3">
    <g id="ytick_4">
     <g id="line2d_8">
      <defs>
       <path d="M 0 0 
L -3.5 0 
" id="m203313f713" style="stroke:#000000;stroke-width:0.8;"/>
      </defs>
      <g>
       <use style="stroke:#000000;stroke-width:0.8;" x="34.13" xlink:href="#m203313f713" y="95.22"/>
      </g>
     </g>
     <g id="text_7">
      <text style="font-family:DejaVu Sans;font-size:8px;font-stretch:normal;font-style:normal;font-weight:normal;text-anchor:end;" transform="rotate(-0, 27.13, 98.259375)" x="27.13" y="98.259375">0</text>
     </g>
    </g>
    <g id="ytick_5">
     <g id="line2d_9">
      <g>
       <use style="stroke:#000000;stroke-width:0.8;" x="34.13" xlink:href="#m203313f713" y="76.46"/>
      </g>
     </g>
     <g id="text_8">
      <text style="font-family:DejaVu Sans;font-size:8px;font-stretch:normal;font-style:normal;font-weight:normal;text-anchor:end;" transform="rotate(-0, 27.13, 79.499375)" x="27.13" y="79.499375">1</text>
     </g>
    </g>
    <g id="ytick_6">
     <g id="line2d_10">
      <g>
       <use style="stroke:#000000;stroke-width:0.8;" x="34.13" xlink:href="#m203313f713" y="57.7"/>
      </g>
     </g>
     <g id="text_9">
      <text style="font-family:DejaVu Sans;font-size:8px;font-stretch:normal;font-style:normal;font-weight:normal;text-anchor:end;" transform="rotate(-0, 27.13, 60.739375)" x="27.13" y="60.739375">2</text>
     </g>
    </g>
    <g id="ytick_7">
     <g id="line2d_11">
      <g>
       <use style="stroke:#000000;stroke-width:0.8;" x="34.13" xlink:href="#m203313f713" y="38.94"/>
      </g>
     </g>
     <g id="text_10">
      <text style="font-family:DejaVu Sans;font-size:8px;font-stretch:normal;font-style:normal;font-weight:normal;text-anchor:end;" transform="rotate(-0, 27.13, 41.979375)" x="27.13" y="41.979375">3</text>
     </g>
    </g>
    <g id="ytick_8">
     <g id="line2d_12">
      <g>
       <use style="stroke:#000000;stroke-width:0.8;" x="34.13" xlink:href="#m203313f713" y="20.18"/>
      </g>
     </g>
     <g id="text_11">
      <text style="font-family:DejaVu Sans;font-size:8px;font-stretch:normal;font-style:normal;font-weight:normal;text-anchor:end;" transform="rotate(-0, 27.13, 23.219375)" x="27.13" y="23.219375">4</text>
     </g>
    </g>
    <g id="text_12">
     <text style="font-family:DejaVu Sans;font-size:8px;font-stretch:normal;font-style:normal;font-weight:normal;text-anchor:middle;" transform="rotate(-90, 16.37625, 57.7)" x="16.37625" y="57.7">Normalised concentration</text>
    </g>
   </g>
   <g id="line2d_13">
    <path clip-path="url(#p29548a89ed)" d="M 40.366818 74.176739 
L 41.626781 74.168632 
L 42.886745 74.148787 
L 44.146708 74.117436 
L 45.406671 74.07494 
L 46.666635 74.021783 
L 47.926598 73.958554 
L 49.186561 73.885935 
L 50.446524 73.804675 
L 51.706488 73.715575 
L 52.966451 73.619463 
L 54.226414 73.517175 
L 55.486377 73.409532 
L 56.746341 73.297325 
L 58.006304 73.181297 
L 59.266267 73.062134 
L 60.52623 72.940457 
L 61.786194 72.816815 
L 63.046157 72.691689 
L 64.30612 72.565493 
L 65.566084 72.438587 
L 66.826047 72.311279 
L 68.08601 72.183845 
L 69.345973 72.056544 
L 70.605937 71.929628 
L 71.8659 71.803362 
L 73.125863 71.678044 
L 74.385826 71.554013 
L 75.64579 71.431668 
L 76.905753 71.311481 
L 78.165716 71.194008 
L 79.42568 71.079897 
L 80.685643 70.969896 
L 81.945606 70.864859 
L 83.205569 70.765748 
L 84.465533 70.673634 
L 85.725496 70.589692 
L 86.985459 70.515201 
L 88.245422 70.451532 
L 89.505386 70.400142 
L 90.765349 70.362557 
L 92.025312 70.340362 
L 93.285275 70.335176 
L 94.545239 70.348638 
L 95.805202 70.382375 
L 97.065165 70.437984 
L 98.325129 70.516999 
L 99.585092 70.620858 
L 100.845055 70.750878 
L 102.105018 70.908219 
L 103.364982 71.09385 
L 104.624945 71.308522 
L 105.884908 71.552734 
L 107.144871 71.826713 
L 108.404835 72.130385 
L 109.664798 72.463363 
L 110.924761 72.824931 
L 112.184725 73.214045 
L 113.444688 73.62933 
L 114.704651 74.069093 
L 115.964614 74.531343 
L 117.224578 75.013814 
L 118.484541 75.513996 
L 119.744504 76.02918 
L 121.004467 76.556495 
L 122.264431 77.09296 
L 123.524394 77.635532 
L 124.784357 78.181158 
L 126.04432 78.726823 
L 127.304284 79.269598 
L 128.564247 79.806682 
L 129.82421 80.335442 
L 131.084174 80.853443 
L 132.344137 81.358473 
L 133.6041 81.848562 
L 134.864063 82.321993 
L 136.124027 82.777304 
L 137.38399 83.213288 
L 138.643953 83.628984 
L 139.903916 84.023664 
L 141.16388 84.396814 
L 142.423843 84.748118 
L 143.683806 85.077432 
L 144.94377 85.384763 
L 146.203733 85.670244 
L 147.463696 85.93411 
L 148.723659 86.176675 
L 149.983623 86.398315 
L 151.243586 86.599439 
L 152.503549 86.78048 
L 153.763512 86.941872 
L 155.023476 87.084038 
L 156.283439 87.207376 
L 157.543402 87.312251 
L 158.803365 87.39898 
L 160.063329 87.46783 
L 161.323292 87.519005 
L 162.583255 87.552647 
L 163.843219 87.568827 
L 165.103182 87.567541 
" style="fill:none;stroke:#ff7f0e;stroke-linecap:square;stroke-width:1.5;"/>
   </g>
   <g id="line2d_14">
    <path clip-path="url(#p29548a89ed)" d="M 40.366818 75.818768 
L 41.626781 75.81928 
L 42.886745 75.820305 
L 44.146708 75.821841 
L 45.406671 75.823889 
L 46.666635 75.826448 
L 47.926598 75.82952 
L 49.186561 75.833102 
L 50.446524 75.837196 
L 51.706488 75.8418 
L 52.966451 75.846914 
L 54.226414 75.852538 
L 55.486377 75.858671 
L 56.746341 75.865312 
L 58.006304 75.87246 
L 59.266267 75.880114 
L 60.52623 75.888272 
L 61.786194 75.896933 
L 63.046157 75.906095 
L 64.30612 75.915755 
L 65.566084 75.925912 
L 66.826047 75.936562 
L 68.08601 75.947702 
L 69.345973 75.959329 
L 70.605937 75.971438 
L 71.8659 75.984027 
L 73.125863 75.997088 
L 74.385826 76.010618 
L 75.64579 76.02461 
L 76.905753 76.039059 
L 78.165716 76.053956 
L 79.42568 76.069295 
L 80.685643 76.085068 
L 81.945606 76.101266 
L 83.205569 76.117879 
L 84.465533 76.134898 
L 85.725496 76.152311 
L 86.985459 76.170108 
L 88.245422 76.188277 
L 89.505386 76.206805 
L 90.765349 76.225678 
L 92.025312 76.244882 
L 93.285275 76.264402 
L 94.545239 76.284223 
L 95.805202 76.304328 
L 97.065165 76.324701 
L 98.325129 76.345323 
L 99.585092 76.366176 
L 100.845055 76.387242 
L 102.105018 76.408499 
L 103.364982 76.429927 
L 104.624945 76.451506 
L 105.884908 76.473214 
L 107.144871 76.495028 
L 108.404835 76.516925 
L 109.664798 76.538882 
L 110.924761 76.560875 
L 112.184725 76.582879 
L 113.444688 76.60487 
L 114.704651 76.626821 
L 115.964614 76.648708 
L 117.224578 76.670503 
L 118.484541 76.692182 
L 119.744504 76.713717 
L 121.004467 76.735081 
L 122.264431 76.756248 
L 123.524394 76.77719 
L 124.784357 76.79788 
L 126.04432 76.818292 
L 127.304284 76.838399 
L 128.564247 76.858172 
L 129.82421 76.877587 
L 131.084174 76.896615 
L 132.344137 76.915232 
L 133.6041 76.93341 
L 134.864063 76.951126 
L 136.124027 76.968352 
L 137.38399 76.985066 
L 138.643953 77.001242 
L 139.903916 77.016858 
L 141.16388 77.031891 
L 142.423843 77.046318 
L 143.683806 77.060119 
L 144.94377 77.073273 
L 146.203733 77.08576 
L 147.463696 77.097562 
L 148.723659 77.10866 
L 149.983623 77.119038 
L 151.243586 77.128681 
L 152.503549 77.137573 
L 153.763512 77.145701 
L 155.023476 77.153052 
L 156.283439 77.159616 
L 157.543402 77.165382 
L 158.803365 77.17034 
L 160.063329 77.174484 
L 161.323292 77.177807 
L 162.583255 77.180304 
L 163.843219 77.181971 
L 165.103182 77.182805 
" style="fill:none;stroke:#1f77b4;stroke-linecap:square;stroke-width:1.5;"/>
   </g>
   <g id="patch_6">
    <path d="M 34.13 104.6 
L 34.13 10.8 
" style="fill:none;stroke:#000000;stroke-linecap:square;stroke-linejoin:miter;stroke-width:0.8;"/>
   </g>
   <g id="patch_7">
    <path d="M 171.34 104.6 
L 171.34 10.8 
" style="fill:none;stroke:#999999;stroke-linecap:square;stroke-linejoin:miter;stroke-width:0.8;"/>
   </g>
   <g id="patch_8">
    <path d="M 34.13 104.6 
L 171.34 104.6 
" style="fill:none;stroke:#000000;stroke-linecap:square;stroke-linejoin:miter;stroke-width:0.8;"/>
   </g>
   <g id="patch_9">
    <path d="M 34.13 10.8 
L 171.34 10.8 
" style="fill:none;stroke:#000000;stroke-linecap:square;stroke-linejoin:miter;stroke-width:0.8;"/>
   </g>
   <g id="legend_1">
    <g id="line2d_15">
     <path d="M 39.53 87.045312 
L 51.53 87.045312 
" style="fill:none;stroke:#ff7f0e;stroke-linecap:square;stroke-width:1.5;"/>
    </g>
    <g id="line2d_16"/>
    <g id="text_13">
     <text style="font-family:DejaVu Sans;font-size:6px;font-stretch:normal;font-style:normal;font-weight:normal;text-anchor:start;" transform="rotate(-0, 56.33, 89.145312)" x="56.33" y="89.145312">End of flow</text>
    </g>
    <g id="line2d_17">
     <path d="M 39.53 95.852187 
L 51.53 95.852187 
" style="fill:none;stroke:#1f77b4;stroke-linecap:square;stroke-width:1.5;"/>
    </g>
    <g id="line2d_18"/>
    <g id="text_14">
     <text style="font-family:DejaVu Sans;font-size:6px;font-stretch:normal;font-style:normal;font-weight:normal;text-anchor:start;" transform="rotate(-0, 56.33, 97.952187)" x="56.33" y="97.952187">300s post flow</text>
    </g>
   </g>
  </g>
 </g>
 <defs>
  <clipPath id="p29548a89ed">
   <rect height="93.8" width="137.21" x="34.13" y="10.8"/>
  </clipPath>
 </defs>
</svg>
