<?xml version="1.0" encoding="utf-8" standalone="no"?>
<!DOCTYPE svg PUBLIC "-//W3C//DTD SVG 1.1//EN"
  "http://www.w3.org/Graphics/SVG/1.1/DTD/svg11.dtd">
<!-- Created with matplotlib (https://matplotlib.org/) -->
<svg height="129.6pt" version="1.1" viewBox="0 0 216 129.6" width="216pt" xmlns="http://www.w3.org/2000/svg" xmlns:xlink="http://www.w3.org/1999/xlink">
 <metadata>
  <rdf:RDF xmlns:cc="http://creativecommons.org/ns#" xmlns:dc="http://purl.org/dc/elements/1.1/" xmlns:rdf="http://www.w3.org/1999/02/22-rdf-syntax-ns#">
   <cc:Work>
    <dc:type rdf:resource="http://purl.org/dc/dcmitype/StillImage"/>
    <dc:date>2022-05-17T10:30:42.885050</dc:date>
    <dc:format>image/svg+xml</dc:format>
    <dc:creator>
     <cc:Agent>
      <dc:title>Matplotlib v3.3.4, https://matplotlib.org/</dc:title>
     </cc:Agent>
    </dc:creator>
   </cc:Work>
  </rdf:RDF>
 </metadata>
 <defs>
  <style type="text/css">*{stroke-linecap:butt;stroke-linejoin:round;}</style>
 </defs>
 <g id="figure_1">
  <g id="patch_1">
   <path d="M 0 129.6 
L 216 129.6 
L 216 0 
L 0 0 
z
" style="fill:none;"/>
  </g>
  <g id="axes_1">
   <g id="matplotlib.axis_1">
    <g id="ytick_1">
     <g id="line2d_1">
      <defs>
       <path d="M 0 0 
L 3.5 0 
" id="m28ea5ae690" style="stroke:#999999;stroke-width:0.8;"/>
      </defs>
      <g>
       <use style="fill:#999999;stroke:#999999;stroke-width:0.8;" x="164.14" xlink:href="#m28ea5ae690" y="97.831281"/>
      </g>
     </g>
     <g id="text_1">
      <text style="fill:#999999;font-family:DejaVu Sans;font-size:8px;font-stretch:normal;font-style:normal;font-weight:normal;text-anchor:start;" transform="rotate(-0, 171.14, 100.870656)" x="171.14" y="100.870656">0.00</text>
     </g>
    </g>
    <g id="ytick_2">
     <g id="line2d_2">
      <g>
       <use style="fill:#999999;stroke:#999999;stroke-width:0.8;" x="164.14" xlink:href="#m28ea5ae690" y="62.919633"/>
      </g>
     </g>
     <g id="text_2">
      <text style="fill:#999999;font-family:DejaVu Sans;font-size:8px;font-stretch:normal;font-style:normal;font-weight:normal;text-anchor:start;" transform="rotate(-0, 171.14, 65.959008)" x="171.14" y="65.959008">0.05</text>
     </g>
    </g>
    <g id="ytick_3">
     <g id="line2d_3">
      <g>
       <use style="fill:#999999;stroke:#999999;stroke-width:0.8;" x="164.14" xlink:href="#m28ea5ae690" y="28.007986"/>
      </g>
     </g>
     <g id="text_3">
      <text style="fill:#999999;font-family:DejaVu Sans;font-size:8px;font-stretch:normal;font-style:normal;font-weight:normal;text-anchor:start;" transform="rotate(-0, 171.14, 31.047361)" x="171.14" y="31.047361">0.10</text>
     </g>
    </g>
    <g id="text_4">
     <text style="fill:#999999;font-family:DejaVu Sans;font-size:8px;font-stretch:normal;font-style:normal;font-weight:normal;text-anchor:middle;" transform="rotate(-90, 199.03125, 59.14)" x="199.03125" y="59.14">Flow velocity (µm/s)</text>
    </g>
   </g>
   <g id="line2d_4">
    <path clip-path="url(#p4e6a54d627)" d="M 40.039545 97.774487 
L 41.233393 98.185251 
L 42.427241 98.584859 
L 43.621088 98.964101 
L 44.814936 99.31438 
L 46.008783 99.627994 
L 47.202631 99.898371 
L 48.396478 100.120243 
L 49.590326 100.289759 
L 50.784174 100.404522 
L 51.978021 100.463567 
L 53.171869 100.467273 
L 54.365716 100.41721 
L 55.559564 100.315957 
L 56.753411 100.166877 
L 57.947259 99.973874 
L 59.141107 99.741148 
L 60.334954 99.472951 
L 61.528802 99.173361 
L 62.722649 98.84609 
L 63.916497 98.494312 
L 65.110344 98.120533 
L 66.304192 97.726503 
L 67.498039 97.31316 
L 68.691887 96.880611 
L 69.885735 96.428145 
L 71.079582 95.954271 
L 72.27343 95.456779 
L 73.467277 94.932816 
L 74.661125 94.378972 
L 75.854972 93.791374 
L 77.04882 93.165781 
L 78.242668 92.497673 
L 79.436515 91.782351 
L 80.630363 91.015014 
L 81.82421 90.190845 
L 83.018058 89.305082 
L 84.211905 88.353093 
L 85.405753 87.33044 
L 86.599601 86.232942 
L 87.793448 85.056734 
L 88.987296 83.79833 
L 90.181143 82.454681 
L 91.374991 81.023232 
L 92.568838 79.501985 
L 93.762686 77.889561 
L 94.956534 76.185256 
L 96.150381 74.389112 
L 97.344229 72.501969 
L 98.538076 70.525534 
L 99.731924 68.462439 
L 100.925771 66.31629 
L 102.119619 64.091729 
L 103.313466 61.794472 
L 104.507314 59.431352 
L 105.701162 57.010347 
L 106.895009 54.540604 
L 108.088857 52.032446 
L 109.282704 49.497368 
L 110.476552 46.948027 
L 111.670399 44.398202 
L 112.864247 41.862758 
L 114.058095 39.357575 
L 115.251942 36.899476 
L 116.44579 34.506127 
L 117.639637 32.195929 
L 118.833485 29.987887 
L 120.027332 27.901469 
L 121.22118 25.956445 
L 122.415028 24.172716 
L 123.608875 22.570128 
L 124.802723 21.168282 
L 125.99657 19.986325 
L 127.190418 19.042743 
L 128.384265 18.35515 
L 129.578113 17.940069 
L 130.771961 17.812727 
L 131.965808 17.986842 
L 133.159656 18.474423 
L 134.353503 19.285588 
L 135.547351 20.428382 
L 136.741198 21.90862 
L 137.935046 23.729753 
L 139.128893 25.892746 
L 140.322741 28.395989 
L 141.516589 31.235229 
L 142.710436 34.403534 
L 143.904284 37.891287 
L 145.098131 41.686203 
L 146.291979 45.773386 
L 147.485826 50.135414 
L 148.679674 54.752451 
L 149.873522 59.602393 
L 151.067369 64.66104 
L 152.261217 69.902295 
L 153.455064 75.298387 
L 154.648912 80.820114 
L 155.842759 86.437109 
L 157.036607 92.118117 
L 158.230455 97.831281 
" style="fill:none;stroke:#cccccc;stroke-dasharray:5.55,2.4;stroke-dashoffset:0;stroke-width:1.5;"/>
   </g>
   <g id="patch_2">
    <path d="M 34.13 104.6 
L 34.13 13.68 
" style="fill:none;stroke:#000000;stroke-linecap:square;stroke-linejoin:miter;stroke-width:0.8;"/>
   </g>
   <g id="patch_3">
    <path d="M 164.14 104.6 
L 164.14 13.68 
" style="fill:none;stroke:#000000;stroke-linecap:square;stroke-linejoin:miter;stroke-width:0.8;"/>
   </g>
   <g id="patch_4">
    <path d="M 34.13 104.6 
L 164.14 104.6 
" style="fill:none;stroke:#000000;stroke-linecap:square;stroke-linejoin:miter;stroke-width:0.8;"/>
   </g>
   <g id="patch_5">
    <path d="M 34.13 13.68 
L 164.14 13.68 
" style="fill:none;stroke:#000000;stroke-linecap:square;stroke-linejoin:miter;stroke-width:0.8;"/>
   </g>
  </g>
  <g id="axes_2">
   <g id="matplotlib.axis_2">
    <g id="xtick_1">
     <g id="line2d_5">
      <defs>
       <path d="M 0 0 
L 0 3.5 
" id="m38f845dcc2" style="stroke:#000000;stroke-width:0.8;"/>
      </defs>
      <g>
       <use style="stroke:#000000;stroke-width:0.8;" x="40.039545" xlink:href="#m38f845dcc2" y="104.6"/>
      </g>
     </g>
     <g id="text_5">
      <text style="font-family:DejaVu Sans;font-size:8px;font-stretch:normal;font-style:normal;font-weight:normal;text-anchor:middle;" transform="rotate(-0, 40.039545, 117.67875)" x="40.039545" y="117.67875">A</text>
     </g>
    </g>
    <g id="xtick_2">
     <g id="line2d_6">
      <g>
       <use style="stroke:#000000;stroke-width:0.8;" x="158.230455" xlink:href="#m38f845dcc2" y="104.6"/>
      </g>
     </g>
     <g id="text_6">
      <text style="font-family:DejaVu Sans;font-size:8px;font-stretch:normal;font-style:normal;font-weight:normal;text-anchor:middle;" transform="rotate(-0, 158.230455, 117.67875)" x="158.230455" y="117.67875">P</text>
     </g>
    </g>
   </g>
   <g id="matplotlib.axis_3">
    <g id="ytick_4">
     <g id="line2d_7">
      <defs>
       <path d="M 0 0 
L -3.5 0 
" id="m3cded61b53" style="stroke:#000000;stroke-width:0.8;"/>
      </defs>
      <g>
       <use style="stroke:#000000;stroke-width:0.8;" x="34.13" xlink:href="#m3cded61b53" y="104.6"/>
      </g>
     </g>
     <g id="text_7">
      <text style="font-family:DejaVu Sans;font-size:8px;font-stretch:normal;font-style:normal;font-weight:normal;text-anchor:end;" transform="rotate(-0, 27.13, 107.639375)" x="27.13" y="107.639375">0</text>
     </g>
    </g>
    <g id="ytick_5">
     <g id="line2d_8">
      <g>
       <use style="stroke:#000000;stroke-width:0.8;" x="34.13" xlink:href="#m3cded61b53" y="74.293333"/>
      </g>
     </g>
     <g id="text_8">
      <text style="font-family:DejaVu Sans;font-size:8px;font-stretch:normal;font-style:normal;font-weight:normal;text-anchor:end;" transform="rotate(-0, 27.13, 77.332708)" x="27.13" y="77.332708">1</text>
     </g>
    </g>
    <g id="ytick_6">
     <g id="line2d_9">
      <g>
       <use style="stroke:#000000;stroke-width:0.8;" x="34.13" xlink:href="#m3cded61b53" y="43.986667"/>
      </g>
     </g>
     <g id="text_9">
      <text style="font-family:DejaVu Sans;font-size:8px;font-stretch:normal;font-style:normal;font-weight:normal;text-anchor:end;" transform="rotate(-0, 27.13, 47.026042)" x="27.13" y="47.026042">2</text>
     </g>
    </g>
    <g id="ytick_7">
     <g id="line2d_10">
      <g>
       <use style="stroke:#000000;stroke-width:0.8;" x="34.13" xlink:href="#m3cded61b53" y="13.68"/>
      </g>
     </g>
     <g id="text_10">
      <text style="font-family:DejaVu Sans;font-size:8px;font-stretch:normal;font-style:normal;font-weight:normal;text-anchor:end;" transform="rotate(-0, 27.13, 16.719375)" x="27.13" y="16.719375">3</text>
     </g>
    </g>
    <g id="text_11">
     <text style="font-family:DejaVu Sans;font-size:8px;font-stretch:normal;font-style:normal;font-weight:normal;text-anchor:middle;" transform="rotate(-90, 16.37625, 59.14)" x="16.37625" y="59.14">Normalised concentration</text>
    </g>
   </g>
   <g id="line2d_11">
    <path clip-path="url(#p4e6a54d627)" d="M 40.039545 70.604739 
L 41.233393 70.591641 
L 42.427241 70.559582 
L 43.621088 70.508935 
L 44.814936 70.440283 
L 46.008783 70.354408 
L 47.202631 70.252263 
L 48.396478 70.134946 
L 49.590326 70.003671 
L 50.784174 69.859731 
L 51.978021 69.704463 
L 53.171869 69.539217 
L 54.365716 69.365321 
L 55.559564 69.184051 
L 56.753411 68.996608 
L 57.947259 68.804102 
L 59.141107 68.607533 
L 60.334954 68.40779 
L 61.528802 68.205649 
L 62.722649 68.001782 
L 63.916497 67.796764 
L 65.110344 67.591099 
L 66.304192 67.385231 
L 67.498039 67.179577 
L 68.691887 66.974544 
L 69.885735 66.770564 
L 71.079582 66.568113 
L 72.27343 66.367741 
L 73.467277 66.170094 
L 74.661125 65.975933 
L 75.854972 65.786155 
L 77.04882 65.601809 
L 78.242668 65.424103 
L 79.436515 65.254417 
L 80.630363 65.094304 
L 81.82421 64.945494 
L 83.018058 64.809887 
L 84.211905 64.689547 
L 85.405753 64.58669 
L 86.599601 64.503669 
L 87.793448 64.442952 
L 88.987296 64.407095 
L 90.181143 64.398718 
L 91.374991 64.420464 
L 92.568838 64.474967 
L 93.762686 64.564803 
L 94.956534 64.69245 
L 96.150381 64.860235 
L 97.344229 65.070282 
L 98.538076 65.324465 
L 99.731924 65.624351 
L 100.925771 65.971151 
L 102.119619 66.365675 
L 103.313466 66.808287 
L 104.507314 67.298867 
L 105.701162 67.83679 
L 106.895009 68.420902 
L 108.088857 69.049512 
L 109.282704 69.720402 
L 110.476552 70.430838 
L 111.670399 71.1776 
L 112.864247 71.957028 
L 114.058095 72.76507 
L 115.251942 73.597346 
L 116.44579 74.44922 
L 117.639637 75.315876 
L 118.833485 76.192398 
L 120.027332 77.073854 
L 121.22118 77.955372 
L 122.415028 78.832222 
L 123.608875 79.699878 
L 124.802723 80.554087 
L 125.99657 81.390914 
L 127.190418 82.206787 
L 128.384265 82.998523 
L 129.578113 83.763347 
L 130.771961 84.498899 
L 131.965808 85.203229 
L 133.159656 85.874784 
L 134.353503 86.512386 
L 135.547351 87.115208 
L 136.741198 87.682738 
L 137.935046 88.214743 
L 139.128893 88.711235 
L 140.322741 89.172427 
L 141.516589 89.5987 
L 142.710436 89.990563 
L 143.904284 90.34862 
L 145.098131 90.673536 
L 146.291979 90.966007 
L 147.485826 91.226734 
L 148.679674 91.456402 
L 149.873522 91.655655 
L 151.067369 91.825079 
L 152.261217 91.96519 
L 153.455064 92.076416 
L 154.648912 92.15909 
L 155.842759 92.213438 
L 157.036607 92.239576 
L 158.230455 92.237499 
" style="fill:none;stroke:#ff7f0e;stroke-linecap:square;stroke-width:1.5;"/>
   </g>
   <g id="line2d_12">
    <path clip-path="url(#p4e6a54d627)" d="M 40.039545 73.257428 
L 41.233393 73.258255 
L 42.427241 73.259909 
L 43.621088 73.262391 
L 44.814936 73.265699 
L 46.008783 73.269834 
L 47.202631 73.274796 
L 48.396478 73.280584 
L 49.590326 73.287197 
L 50.784174 73.294635 
L 51.978021 73.302897 
L 53.171869 73.311983 
L 54.365716 73.321891 
L 55.559564 73.332619 
L 56.753411 73.344166 
L 57.947259 73.356531 
L 59.141107 73.36971 
L 60.334954 73.383702 
L 61.528802 73.398503 
L 62.722649 73.414109 
L 63.916497 73.430517 
L 65.110344 73.447722 
L 66.304192 73.465719 
L 67.498039 73.484502 
L 68.691887 73.504065 
L 69.885735 73.524401 
L 71.079582 73.545502 
L 72.27343 73.567359 
L 73.467277 73.589964 
L 74.661125 73.613305 
L 75.854972 73.637372 
L 77.04882 73.662152 
L 78.242668 73.687633 
L 79.436515 73.7138 
L 80.630363 73.740639 
L 81.82421 73.768132 
L 83.018058 73.796264 
L 84.211905 73.825015 
L 85.405753 73.854367 
L 86.599601 73.884298 
L 87.793448 73.914787 
L 88.987296 73.945811 
L 90.181143 73.977346 
L 91.374991 74.009367 
L 92.568838 74.041847 
L 93.762686 74.074759 
L 94.956534 74.108074 
L 96.150381 74.141762 
L 97.344229 74.175792 
L 98.538076 74.210133 
L 99.731924 74.244751 
L 100.925771 74.279612 
L 102.119619 74.314681 
L 103.313466 74.349921 
L 104.507314 74.385296 
L 105.701162 74.420767 
L 106.895009 74.456297 
L 108.088857 74.491844 
L 109.282704 74.527369 
L 110.476552 74.562832 
L 111.670399 74.598189 
L 112.864247 74.6334 
L 114.058095 74.668422 
L 115.251942 74.703211 
L 116.44579 74.737725 
L 117.639637 74.771919 
L 118.833485 74.805751 
L 120.027332 74.839177 
L 121.22118 74.872152 
L 122.415028 74.904634 
L 123.608875 74.936578 
L 124.802723 74.967942 
L 125.99657 74.998683 
L 127.190418 75.028757 
L 128.384265 75.058125 
L 129.578113 75.086744 
L 130.771961 75.114573 
L 131.965808 75.141574 
L 133.159656 75.167707 
L 134.353503 75.192935 
L 135.547351 75.21722 
L 136.741198 75.240527 
L 137.935046 75.262822 
L 139.128893 75.284072 
L 140.322741 75.304245 
L 141.516589 75.32331 
L 142.710436 75.341239 
L 143.904284 75.358006 
L 145.098131 75.373583 
L 146.291979 75.387948 
L 147.485826 75.401079 
L 148.679674 75.412955 
L 149.873522 75.423559 
L 151.067369 75.432873 
L 152.261217 75.440884 
L 153.455064 75.447578 
L 154.648912 75.452947 
L 155.842759 75.45698 
L 157.036607 75.459673 
L 158.230455 75.46102 
" style="fill:none;stroke:#1f77b4;stroke-linecap:square;stroke-width:1.5;"/>
   </g>
   <g id="patch_6">
    <path d="M 34.13 104.6 
L 34.13 13.68 
" style="fill:none;stroke:#000000;stroke-linecap:square;stroke-linejoin:miter;stroke-width:0.8;"/>
   </g>
   <g id="patch_7">
    <path d="M 164.14 104.6 
L 164.14 13.68 
" style="fill:none;stroke:#999999;stroke-linecap:square;stroke-linejoin:miter;stroke-width:0.8;"/>
   </g>
   <g id="patch_8">
    <path d="M 34.13 104.6 
L 164.14 104.6 
" style="fill:none;stroke:#000000;stroke-linecap:square;stroke-linejoin:miter;stroke-width:0.8;"/>
   </g>
   <g id="patch_9">
    <path d="M 34.13 13.68 
L 164.14 13.68 
" style="fill:none;stroke:#000000;stroke-linecap:square;stroke-linejoin:miter;stroke-width:0.8;"/>
   </g>
   <g id="legend_1">
    <g id="line2d_13">
     <path d="M 39.53 87.045312 
L 51.53 87.045312 
" style="fill:none;stroke:#ff7f0e;stroke-linecap:square;stroke-width:1.5;"/>
    </g>
    <g id="line2d_14"/>
    <g id="text_12">
     <text style="font-family:DejaVu Sans;font-size:6px;font-stretch:normal;font-style:normal;font-weight:normal;text-anchor:start;" transform="rotate(-0, 56.33, 89.145312)" x="56.33" y="89.145312">End of flow</text>
    </g>
    <g id="line2d_15">
     <path d="M 39.53 95.852187 
L 51.53 95.852187 
" style="fill:none;stroke:#1f77b4;stroke-linecap:square;stroke-width:1.5;"/>
    </g>
    <g id="line2d_16"/>
    <g id="text_13">
     <text style="font-family:DejaVu Sans;font-size:6px;font-stretch:normal;font-style:normal;font-weight:normal;text-anchor:start;" transform="rotate(-0, 56.33, 97.952187)" x="56.33" y="97.952187">300s post flow</text>
    </g>
   </g>
  </g>
 </g>
 <defs>
  <clipPath id="p4e6a54d627">
   <rect height="90.92" width="130.01" x="34.13" y="13.68"/>
  </clipPath>
 </defs>
</svg>
