<?xml version="1.0" encoding="utf-8" standalone="no"?>
<!DOCTYPE svg PUBLIC "-//W3C//DTD SVG 1.1//EN"
  "http://www.w3.org/Graphics/SVG/1.1/DTD/svg11.dtd">
<!-- Created with matplotlib (https://matplotlib.org/) -->
<svg height="129.6pt" version="1.1" viewBox="0 0 223.2 129.6" width="223.2pt" xmlns="http://www.w3.org/2000/svg" xmlns:xlink="http://www.w3.org/1999/xlink">
 <metadata>
  <rdf:RDF xmlns:cc="http://creativecommons.org/ns#" xmlns:dc="http://purl.org/dc/elements/1.1/" xmlns:rdf="http://www.w3.org/1999/02/22-rdf-syntax-ns#">
   <cc:Work>
    <dc:type rdf:resource="http://purl.org/dc/dcmitype/StillImage"/>
    <dc:date>2022-05-17T10:52:02.482823</dc:date>
    <dc:format>image/svg+xml</dc:format>
    <dc:creator>
     <cc:Agent>
      <dc:title>Matplotlib v3.3.4, https://matplotlib.org/</dc:title>
     </cc:Agent>
    </dc:creator>
   </cc:Work>
  </rdf:RDF>
 </metadata>
 <defs>
  <style type="text/css">*{stroke-linecap:butt;stroke-linejoin:round;}</style>
 </defs>
 <g id="figure_1">
  <g id="patch_1">
   <path d="M 0 129.6 
L 223.2 129.6 
L 223.2 0 
L 0 0 
z
" style="fill:none;"/>
  </g>
  <g id="axes_1">
   <g id="matplotlib.axis_1">
    <g id="ytick_1">
     <g id="line2d_1">
      <defs>
       <path d="M 0 0 
L 3.5 0 
" id="mb3d635b728" style="stroke:#999999;stroke-width:0.8;"/>
      </defs>
      <g>
       <use style="fill:#999999;stroke:#999999;stroke-width:0.8;" x="171.34" xlink:href="#mb3d635b728" y="97.616873"/>
      </g>
     </g>
     <g id="text_1">
      <text style="fill:#999999;font-family:DejaVu Sans;font-size:8px;font-stretch:normal;font-style:normal;font-weight:normal;text-anchor:start;" transform="rotate(-0, 178.34, 100.656248)" x="178.34" y="100.656248">0.00</text>
     </g>
    </g>
    <g id="ytick_2">
     <g id="line2d_2">
      <g>
       <use style="fill:#999999;stroke:#999999;stroke-width:0.8;" x="171.34" xlink:href="#mb3d635b728" y="61.599358"/>
      </g>
     </g>
     <g id="text_2">
      <text style="fill:#999999;font-family:DejaVu Sans;font-size:8px;font-stretch:normal;font-style:normal;font-weight:normal;text-anchor:start;" transform="rotate(-0, 178.34, 64.638733)" x="178.34" y="64.638733">0.05</text>
     </g>
    </g>
    <g id="ytick_3">
     <g id="line2d_3">
      <g>
       <use style="fill:#999999;stroke:#999999;stroke-width:0.8;" x="171.34" xlink:href="#mb3d635b728" y="25.581842"/>
      </g>
     </g>
     <g id="text_3">
      <text style="fill:#999999;font-family:DejaVu Sans;font-size:8px;font-stretch:normal;font-style:normal;font-weight:normal;text-anchor:start;" transform="rotate(-0, 178.34, 28.621217)" x="178.34" y="28.621217">0.10</text>
     </g>
    </g>
    <g id="text_4">
     <text style="fill:#999999;font-family:DejaVu Sans;font-size:8px;font-stretch:normal;font-style:normal;font-weight:normal;text-anchor:middle;" transform="rotate(-90, 206.23125, 57.7)" x="206.23125" y="57.7">Flow velocity (µm/s)</text>
    </g>
   </g>
   <g id="line2d_4">
    <path clip-path="url(#p08777507d7)" d="M 40.366818 97.558281 
L 41.626781 97.982056 
L 42.886745 98.394323 
L 44.146708 98.785577 
L 45.406671 99.146952 
L 46.666635 99.4705 
L 47.926598 99.749441 
L 49.186561 99.978342 
L 50.446524 100.153227 
L 51.706488 100.271625 
L 52.966451 100.332541 
L 54.226414 100.336364 
L 55.486377 100.284715 
L 56.746341 100.180255 
L 58.006304 100.026453 
L 59.266267 99.827336 
L 60.52623 99.587238 
L 61.786194 99.310545 
L 63.046157 99.001466 
L 64.30612 98.663828 
L 65.566084 98.300907 
L 66.826047 97.915288 
L 68.08601 97.508776 
L 69.345973 97.08234 
L 70.605937 96.63609 
L 71.8659 96.169292 
L 73.125863 95.680407 
L 74.385826 95.167157 
L 75.64579 94.626596 
L 76.905753 94.055209 
L 78.165716 93.448998 
L 79.42568 92.803588 
L 80.685643 92.114318 
L 81.945606 91.376337 
L 83.205569 90.584694 
L 84.465533 89.734417 
L 85.725496 88.820597 
L 86.985459 87.838453 
L 88.245422 86.783406 
L 89.505386 85.651143 
L 90.765349 84.437677 
L 92.025312 83.139412 
L 93.285275 81.753201 
L 94.545239 80.276409 
L 95.805202 78.706976 
L 97.065165 77.043476 
L 98.325129 75.285185 
L 99.585092 73.432145 
L 100.845055 71.485225 
L 102.105018 69.446185 
L 103.364982 67.317738 
L 104.624945 65.103608 
L 105.884908 62.808581 
L 107.144871 60.438556 
L 108.404835 58.000581 
L 109.664798 55.502888 
L 110.924761 52.954913 
L 112.184725 50.367305 
L 113.444688 47.751926 
L 114.704651 45.121831 
L 115.964614 42.491238 
L 117.224578 39.875481 
L 118.484541 37.290943 
L 119.744504 34.754981 
L 121.004467 32.28582 
L 122.264431 29.902443 
L 123.524394 27.624459 
L 124.784357 25.471951 
L 126.04432 23.465316 
L 127.304284 21.625085 
L 128.564247 19.971734 
L 129.82421 18.525483 
L 131.084174 17.306086 
L 132.344137 16.332615 
L 133.6041 15.623241 
L 134.864063 15.195012 
L 136.124027 15.063636 
L 137.38399 15.243266 
L 138.643953 15.746293 
L 139.903916 16.583152 
L 141.16388 17.762145 
L 142.423843 19.289272 
L 143.683806 21.168091 
L 144.94377 23.3996 
L 146.203733 25.982135 
L 147.463696 28.911312 
L 148.723659 32.179977 
L 149.983623 35.778209 
L 151.243586 39.693333 
L 152.503549 43.909983 
L 153.763512 48.410183 
L 155.023476 53.17347 
L 156.283439 58.17704 
L 157.543402 63.395926 
L 158.803365 68.803204 
L 160.063329 74.370223 
L 161.323292 80.066858 
L 162.583255 85.861778 
L 163.843219 91.722738 
L 165.103182 97.616873 
" style="fill:none;stroke:#cccccc;stroke-dasharray:5.55,2.4;stroke-dashoffset:0;stroke-width:1.5;"/>
   </g>
   <g id="patch_2">
    <path d="M 34.13 104.6 
L 34.13 10.8 
" style="fill:none;stroke:#000000;stroke-linecap:square;stroke-linejoin:miter;stroke-width:0.8;"/>
   </g>
   <g id="patch_3">
    <path d="M 171.34 104.6 
L 171.34 10.8 
" style="fill:none;stroke:#000000;stroke-linecap:square;stroke-linejoin:miter;stroke-width:0.8;"/>
   </g>
   <g id="patch_4">
    <path d="M 34.13 104.6 
L 171.34 104.6 
" style="fill:none;stroke:#000000;stroke-linecap:square;stroke-linejoin:miter;stroke-width:0.8;"/>
   </g>
   <g id="patch_5">
    <path d="M 34.13 10.8 
L 171.34 10.8 
" style="fill:none;stroke:#000000;stroke-linecap:square;stroke-linejoin:miter;stroke-width:0.8;"/>
   </g>
  </g>
  <g id="axes_2">
   <g id="PolyCollection_1">
    <defs>
     <path d="M 40.366818 -73.207648 
L 40.366818 -44.097212 
L 42.912458 -45.968362 
L 45.458098 -47.597527 
L 48.003738 -49.27445 
L 50.549378 -52.788242 
L 53.095019 -52.045159 
L 55.640659 -54.493937 
L 58.186299 -62.447018 
L 60.731939 -55.27872 
L 63.277579 -40.0123 
L 65.823219 -57.297026 
L 68.368859 -53.48386 
L 70.914499 -65.67297 
L 73.460139 -76.062433 
L 76.005779 -78.976243 
L 78.551419 -69.439058 
L 81.097059 -55.764424 
L 83.642699 -59.089866 
L 86.18834 -57.276024 
L 88.73398 -58.498772 
L 91.27962 -50.775688 
L 93.82526 -43.382089 
L 96.3709 -36.574435 
L 98.91654 -34.462557 
L 101.46218 -33.62778 
L 104.00782 -30.439097 
L 106.55346 -26.710046 
L 109.0991 -29.260511 
L 111.64474 -28.025783 
L 114.19038 -31.585684 
L 116.73602 -30.884493 
L 119.28166 -33.22078 
L 121.827301 -31.513532 
L 124.372941 -32.487182 
L 126.918581 -32.456738 
L 129.464221 -30.857548 
L 132.009861 -31.198326 
L 134.555501 -30.631973 
L 137.101141 -30.030404 
L 139.646781 -32.28955 
L 142.192421 -32.837572 
L 144.738061 -32.985151 
L 147.283701 -31.874494 
L 149.829341 -31.791915 
L 152.374981 -30.552177 
L 154.920622 -30.689997 
L 157.466262 -32.46069 
L 160.011902 -31.618957 
L 162.557542 -31.56428 
L 165.103182 -32.048151 
L 165.103182 -36.17293 
L 165.103182 -36.17293 
L 162.557542 -36.362638 
L 160.011902 -35.306697 
L 157.466262 -35.044353 
L 154.920622 -35.388643 
L 152.374981 -35.06051 
L 149.829341 -36.681592 
L 147.283701 -36.151972 
L 144.738061 -37.007082 
L 142.192421 -39.236004 
L 139.646781 -36.41013 
L 137.101141 -35.774884 
L 134.555501 -37.110097 
L 132.009861 -35.656481 
L 129.464221 -35.213327 
L 126.918581 -36.383386 
L 124.372941 -40.747803 
L 121.827301 -38.889549 
L 119.28166 -38.311248 
L 116.73602 -39.048431 
L 114.19038 -37.973545 
L 111.64474 -36.84699 
L 109.0991 -36.730262 
L 106.55346 -40.158546 
L 104.00782 -41.022711 
L 101.46218 -43.742702 
L 98.91654 -51.273987 
L 96.3709 -69.165318 
L 93.82526 -75.81707 
L 91.27962 -83.968318 
L 88.73398 -98.745108 
L 86.18834 -114.421417 
L 83.642699 -119.842539 
L 81.097059 -131.406888 
L 78.551419 -104.542209 
L 76.005779 -115.489747 
L 73.460139 -101.822002 
L 70.914499 -89.51713 
L 68.368859 -88.21373 
L 65.823219 -110.751101 
L 63.277579 -127.839075 
L 60.731939 -94.702907 
L 58.186299 -91.644274 
L 55.640659 -83.745968 
L 53.095019 -81.82262 
L 50.549378 -78.332723 
L 48.003738 -82.905522 
L 45.458098 -75.013987 
L 42.912458 -82.975016 
L 40.366818 -73.207648 
z
" id="mf0dc1bf620"/>
    </defs>
    <g clip-path="url(#p08777507d7)">
     <use style="fill-opacity:0.1;" x="0" xlink:href="#mf0dc1bf620" y="129.6"/>
    </g>
   </g>
   <g id="line2d_5">
    <path clip-path="url(#p08777507d7)" d="M 40.366818 70.94757 
L 42.912458 65.128311 
L 45.458098 68.294243 
L 48.003738 63.510014 
L 50.549378 64.039518 
L 53.095019 62.66611 
L 55.640659 60.480048 
L 58.186299 52.554354 
L 60.731939 54.609187 
L 63.277579 45.674312 
L 65.823219 45.575937 
L 68.368859 58.751205 
L 70.914499 52.00495 
L 73.460139 40.657783 
L 76.005779 32.367005 
L 78.551419 42.609366 
L 81.097059 36.014344 
L 83.642699 40.133797 
L 86.18834 43.75128 
L 88.73398 50.97806 
L 91.27962 62.227997 
L 93.82526 70.00042 
L 96.3709 76.730124 
L 98.91654 86.731728 
L 101.46218 90.914759 
L 104.00782 93.869096 
L 106.55346 96.165704 
L 109.0991 96.604614 
L 111.64474 97.163614 
L 114.19038 94.820385 
L 116.73602 94.633538 
L 119.28166 93.833986 
L 121.827301 94.398459 
L 124.372941 92.982508 
L 126.918581 95.179938 
L 129.464221 96.564562 
L 132.009861 96.172596 
L 134.555501 95.728965 
L 137.101141 96.697356 
L 139.646781 95.25016 
L 142.192421 93.563212 
L 144.738061 94.603883 
L 147.283701 95.586767 
L 149.829341 95.363247 
L 152.374981 96.793657 
L 154.920622 96.56068 
L 157.466262 95.847479 
L 160.011902 96.137173 
L 162.557542 95.636541 
L 165.103182 95.48946 
" style="fill:none;stroke:#000000;stroke-linecap:square;"/>
   </g>
   <g id="matplotlib.axis_2">
    <g id="xtick_1">
     <g id="line2d_6">
      <defs>
       <path d="M 0 0 
L 0 3.5 
" id="mfef19e1ab0" style="stroke:#000000;stroke-width:0.8;"/>
      </defs>
      <g>
       <use style="stroke:#000000;stroke-width:0.8;" x="40.366818" xlink:href="#mfef19e1ab0" y="104.6"/>
      </g>
     </g>
     <g id="text_5">
      <text style="font-family:DejaVu Sans;font-size:8px;font-stretch:normal;font-style:normal;font-weight:normal;text-anchor:middle;" transform="rotate(-0, 40.366818, 117.67875)" x="40.366818" y="117.67875">A</text>
     </g>
    </g>
    <g id="xtick_2">
     <g id="line2d_7">
      <g>
       <use style="stroke:#000000;stroke-width:0.8;" x="165.103182" xlink:href="#mfef19e1ab0" y="104.6"/>
      </g>
     </g>
     <g id="text_6">
      <text style="font-family:DejaVu Sans;font-size:8px;font-stretch:normal;font-style:normal;font-weight:normal;text-anchor:middle;" transform="rotate(-0, 165.103182, 117.67875)" x="165.103182" y="117.67875">P</text>
     </g>
    </g>
   </g>
   <g id="matplotlib.axis_3">
    <g id="ytick_4">
     <g id="line2d_8">
      <defs>
       <path d="M 0 0 
L -3.5 0 
" id="m5c2c9307a3" style="stroke:#000000;stroke-width:0.8;"/>
      </defs>
      <g>
       <use style="stroke:#000000;stroke-width:0.8;" x="34.13" xlink:href="#m5c2c9307a3" y="95.22"/>
      </g>
     </g>
     <g id="text_7">
      <text style="font-family:DejaVu Sans;font-size:8px;font-stretch:normal;font-style:normal;font-weight:normal;text-anchor:end;" transform="rotate(-0, 27.13, 98.259375)" x="27.13" y="98.259375">0</text>
     </g>
    </g>
    <g id="ytick_5">
     <g id="line2d_9">
      <g>
       <use style="stroke:#000000;stroke-width:0.8;" x="34.13" xlink:href="#m5c2c9307a3" y="76.46"/>
      </g>
     </g>
     <g id="text_8">
      <text style="font-family:DejaVu Sans;font-size:8px;font-stretch:normal;font-style:normal;font-weight:normal;text-anchor:end;" transform="rotate(-0, 27.13, 79.499375)" x="27.13" y="79.499375">1</text>
     </g>
    </g>
    <g id="ytick_6">
     <g id="line2d_10">
      <g>
       <use style="stroke:#000000;stroke-width:0.8;" x="34.13" xlink:href="#m5c2c9307a3" y="57.7"/>
      </g>
     </g>
     <g id="text_9">
      <text style="font-family:DejaVu Sans;font-size:8px;font-stretch:normal;font-style:normal;font-weight:normal;text-anchor:end;" transform="rotate(-0, 27.13, 60.739375)" x="27.13" y="60.739375">2</text>
     </g>
    </g>
    <g id="ytick_7">
     <g id="line2d_11">
      <g>
       <use style="stroke:#000000;stroke-width:0.8;" x="34.13" xlink:href="#m5c2c9307a3" y="38.94"/>
      </g>
     </g>
     <g id="text_10">
      <text style="font-family:DejaVu Sans;font-size:8px;font-stretch:normal;font-style:normal;font-weight:normal;text-anchor:end;" transform="rotate(-0, 27.13, 41.979375)" x="27.13" y="41.979375">3</text>
     </g>
    </g>
    <g id="ytick_8">
     <g id="line2d_12">
      <g>
       <use style="stroke:#000000;stroke-width:0.8;" x="34.13" xlink:href="#m5c2c9307a3" y="20.18"/>
      </g>
     </g>
     <g id="text_11">
      <text style="font-family:DejaVu Sans;font-size:8px;font-stretch:normal;font-style:normal;font-weight:normal;text-anchor:end;" transform="rotate(-0, 27.13, 23.219375)" x="27.13" y="23.219375">4</text>
     </g>
    </g>
    <g id="text_12">
     <text style="font-family:DejaVu Sans;font-size:8px;font-stretch:normal;font-style:normal;font-weight:normal;text-anchor:middle;" transform="rotate(-90, 16.37625, 57.7)" x="16.37625" y="57.7">Normalised concentration</text>
    </g>
   </g>
   <g id="line2d_13">
    <path clip-path="url(#p08777507d7)" d="M 40.366818 78.314857 
L 41.626781 78.273001 
L 42.886745 78.159318 
L 44.146708 77.97384 
L 45.406671 77.716656 
L 46.666635 77.387927 
L 47.926598 76.987906 
L 49.186561 76.516949 
L 50.446524 75.975526 
L 51.706488 75.364209 
L 52.966451 74.683668 
L 54.226414 73.934634 
L 55.486377 73.117866 
L 56.746341 72.234114 
L 58.006304 71.284078 
L 59.266267 70.268391 
L 60.52623 69.18762 
L 61.786194 68.042315 
L 63.046157 66.833102 
L 64.30612 65.560842 
L 65.566084 64.226857 
L 66.826047 62.833228 
L 68.08601 61.383164 
L 69.345973 59.881432 
L 70.605937 58.33484 
L 71.8659 56.752741 
L 73.125863 55.14755 
L 74.385826 53.535227 
L 75.64579 51.935679 
L 76.905753 50.373058 
L 78.165716 48.875873 
L 79.42568 47.476881 
L 80.685643 46.212688 
L 81.945606 45.123019 
L 83.205569 44.249617 
L 84.465533 43.634749 
L 85.725496 43.319344 
L 86.985459 43.340802 
L 88.245422 43.730586 
L 89.505386 44.51173 
L 90.765349 45.69646 
L 92.025312 47.284152 
L 93.285275 49.259862 
L 94.545239 51.593671 
L 95.805202 54.241008 
L 97.065165 57.144086 
L 98.325129 60.234417 
L 99.585092 63.436311 
L 100.845055 66.671085 
L 102.105018 69.86161 
L 103.364982 72.936781 
L 104.624945 75.835444 
L 105.884908 78.509396 
L 107.144871 80.925173 
L 108.404835 83.064503 
L 109.664798 84.923475 
L 110.924761 86.510633 
L 112.184725 87.844318 
L 113.444688 88.949659 
L 114.704651 89.855567 
L 115.964614 90.592064 
L 117.224578 91.188145 
L 118.484541 91.670281 
L 119.744504 92.061541 
L 121.004467 92.381258 
L 122.264431 92.645106 
L 123.524394 92.865446 
L 124.784357 93.051813 
L 126.04432 93.211443 
L 127.304284 93.349772 
L 128.564247 93.47087 
L 129.82421 93.577796 
L 131.084174 93.672867 
L 132.344137 93.757866 
L 133.6041 93.834186 
L 134.864063 93.902939 
L 136.124027 93.965027 
L 137.38399 94.021194 
L 138.643953 94.072064 
L 139.903916 94.118162 
L 141.16388 94.159938 
L 142.423843 94.197776 
L 143.683806 94.232009 
L 144.94377 94.262921 
L 146.203733 94.290759 
L 147.463696 94.315733 
L 148.723659 94.338018 
L 149.983623 94.357763 
L 151.243586 94.375085 
L 152.503549 94.390073 
L 153.763512 94.402787 
L 155.023476 94.413253 
L 156.283439 94.421459 
L 157.543402 94.42735 
L 158.803365 94.430813 
L 160.063329 94.431662 
L 161.323292 94.429607 
L 162.583255 94.424219 
L 163.843219 94.414859 
L 165.103182 94.40058 
" style="fill:none;stroke:#ff7f0e;stroke-linecap:square;stroke-width:1.5;"/>
   </g>
   <g id="line2d_14">
    <path clip-path="url(#p08777507d7)" d="M 40.366818 73.446725 
L 41.626781 73.397022 
L 42.886745 73.297868 
L 44.146708 73.149772 
L 45.406671 72.953501 
L 46.666635 72.71009 
L 47.926598 72.42085 
L 49.186561 72.087375 
L 50.446524 71.71156 
L 51.706488 71.295603 
L 52.966451 70.842027 
L 54.226414 70.353681 
L 55.486377 69.833756 
L 56.746341 69.285787 
L 58.006304 68.713658 
L 59.266267 68.121601 
L 60.52623 67.51419 
L 61.786194 66.89633 
L 63.046157 66.273239 
L 64.30612 65.650425 
L 65.566084 65.033652 
L 66.826047 64.4289 
L 68.08601 63.84232 
L 69.345973 63.28018 
L 70.605937 62.7488 
L 71.8659 62.254485 
L 73.125863 61.80345 
L 74.385826 61.401741 
L 75.64579 61.055154 
L 76.905753 60.769147 
L 78.165716 60.548759 
L 79.42568 60.398525 
L 80.685643 60.322399 
L 81.945606 60.323678 
L 83.205569 60.404938 
L 84.465533 60.56798 
L 85.725496 60.813779 
L 86.985459 61.142459 
L 88.245422 61.55327 
L 89.505386 62.044588 
L 90.765349 62.613925 
L 92.025312 63.257961 
L 93.285275 63.972581 
L 94.545239 64.752938 
L 95.805202 65.593524 
L 97.065165 66.48825 
L 98.325129 67.430542 
L 99.585092 68.413442 
L 100.845055 69.429715 
L 102.105018 70.471957 
L 103.364982 71.532711 
L 104.624945 72.60457 
L 105.884908 73.680288 
L 107.144871 74.752871 
L 108.404835 75.815676 
L 109.664798 76.862481 
L 110.924761 77.88756 
L 112.184725 78.885737 
L 113.444688 79.852425 
L 114.704651 80.783659 
L 115.964614 81.676111 
L 117.224578 82.527089 
L 118.484541 83.334534 
L 119.744504 84.096994 
L 121.004467 84.813598 
L 122.264431 85.484017 
L 123.524394 86.10842 
L 124.784357 86.687424 
L 126.04432 87.22204 
L 127.304284 87.71362 
L 128.564247 88.1638 
L 129.82421 88.574446 
L 131.084174 88.947602 
L 132.344137 89.285438 
L 133.6041 89.590206 
L 134.864063 89.864196 
L 136.124027 90.109701 
L 137.38399 90.328983 
L 138.643953 90.524246 
L 139.903916 90.697613 
L 141.16388 90.851108 
L 142.423843 90.986643 
L 143.683806 91.106008 
L 144.94377 91.210865 
L 146.203733 91.302745 
L 147.463696 91.383047 
L 148.723659 91.453043 
L 149.983623 91.513877 
L 151.243586 91.566575 
L 152.503549 91.612048 
L 153.763512 91.651097 
L 155.023476 91.684427 
L 156.283439 91.712645 
L 157.543402 91.736274 
L 158.803365 91.755755 
L 160.063329 91.771454 
L 161.323292 91.783668 
L 162.583255 91.792631 
L 163.843219 91.798512 
L 165.103182 91.801425 
" style="fill:none;stroke:#1f77b4;stroke-linecap:square;stroke-width:1.5;"/>
   </g>
   <g id="patch_6">
    <path d="M 34.13 104.6 
L 34.13 10.8 
" style="fill:none;stroke:#000000;stroke-linecap:square;stroke-linejoin:miter;stroke-width:0.8;"/>
   </g>
   <g id="patch_7">
    <path d="M 171.34 104.6 
L 171.34 10.8 
" style="fill:none;stroke:#999999;stroke-linecap:square;stroke-linejoin:miter;stroke-width:0.8;"/>
   </g>
   <g id="patch_8">
    <path d="M 34.13 104.6 
L 171.34 104.6 
" style="fill:none;stroke:#000000;stroke-linecap:square;stroke-linejoin:miter;stroke-width:0.8;"/>
   </g>
   <g id="patch_9">
    <path d="M 34.13 10.8 
L 171.34 10.8 
" style="fill:none;stroke:#000000;stroke-linecap:square;stroke-linejoin:miter;stroke-width:0.8;"/>
   </g>
   <g id="legend_1">
    <g id="line2d_15">
     <path d="M 39.53 87.045312 
L 51.53 87.045312 
" style="fill:none;stroke:#ff7f0e;stroke-linecap:square;stroke-width:1.5;"/>
    </g>
    <g id="line2d_16"/>
    <g id="text_13">
     <text style="font-family:DejaVu Sans;font-size:6px;font-stretch:normal;font-style:normal;font-weight:normal;text-anchor:start;" transform="rotate(-0, 56.33, 89.145312)" x="56.33" y="89.145312">End of flow</text>
    </g>
    <g id="line2d_17">
     <path d="M 39.53 95.852187 
L 51.53 95.852187 
" style="fill:none;stroke:#1f77b4;stroke-linecap:square;stroke-width:1.5;"/>
    </g>
    <g id="line2d_18"/>
    <g id="text_14">
     <text style="font-family:DejaVu Sans;font-size:6px;font-stretch:normal;font-style:normal;font-weight:normal;text-anchor:start;" transform="rotate(-0, 56.33, 97.952187)" x="56.33" y="97.952187">300s post flow</text>
    </g>
   </g>
  </g>
 </g>
 <defs>
  <clipPath id="p08777507d7">
   <rect height="93.8" width="137.21" x="34.13" y="10.8"/>
  </clipPath>
 </defs>
</svg>
