<?xml version="1.0" encoding="utf-8" standalone="no"?>
<!DOCTYPE svg PUBLIC "-//W3C//DTD SVG 1.1//EN"
  "http://www.w3.org/Graphics/SVG/1.1/DTD/svg11.dtd">
<!-- Created with matplotlib (https://matplotlib.org/) -->
<svg height="129.6pt" version="1.1" viewBox="0 0 223.2 129.6" width="223.2pt" xmlns="http://www.w3.org/2000/svg" xmlns:xlink="http://www.w3.org/1999/xlink">
 <metadata>
  <rdf:RDF xmlns:cc="http://creativecommons.org/ns#" xmlns:dc="http://purl.org/dc/elements/1.1/" xmlns:rdf="http://www.w3.org/1999/02/22-rdf-syntax-ns#">
   <cc:Work>
    <dc:type rdf:resource="http://purl.org/dc/dcmitype/StillImage"/>
    <dc:date>2022-05-17T10:52:01.518881</dc:date>
    <dc:format>image/svg+xml</dc:format>
    <dc:creator>
     <cc:Agent>
      <dc:title>Matplotlib v3.3.4, https://matplotlib.org/</dc:title>
     </cc:Agent>
    </dc:creator>
   </cc:Work>
  </rdf:RDF>
 </metadata>
 <defs>
  <style type="text/css">*{stroke-linecap:butt;stroke-linejoin:round;}</style>
 </defs>
 <g id="figure_1">
  <g id="patch_1">
   <path d="M 0 129.6 
L 223.2 129.6 
L 223.2 0 
L 0 0 
z
" style="fill:none;"/>
  </g>
  <g id="axes_1">
   <g id="matplotlib.axis_1">
    <g id="ytick_1">
     <g id="line2d_1">
      <defs>
       <path d="M 0 0 
L 3.5 0 
" id="m6e782d6049" style="stroke:#999999;stroke-width:0.8;"/>
      </defs>
      <g>
       <use style="fill:#999999;stroke:#999999;stroke-width:0.8;" x="171.34" xlink:href="#m6e782d6049" y="97.616873"/>
      </g>
     </g>
     <g id="text_1">
      <text style="fill:#999999;font-family:DejaVu Sans;font-size:8px;font-stretch:normal;font-style:normal;font-weight:normal;text-anchor:start;" transform="rotate(-0, 178.34, 100.656248)" x="178.34" y="100.656248">0.00</text>
     </g>
    </g>
    <g id="ytick_2">
     <g id="line2d_2">
      <g>
       <use style="fill:#999999;stroke:#999999;stroke-width:0.8;" x="171.34" xlink:href="#m6e782d6049" y="61.599358"/>
      </g>
     </g>
     <g id="text_2">
      <text style="fill:#999999;font-family:DejaVu Sans;font-size:8px;font-stretch:normal;font-style:normal;font-weight:normal;text-anchor:start;" transform="rotate(-0, 178.34, 64.638733)" x="178.34" y="64.638733">0.05</text>
     </g>
    </g>
    <g id="ytick_3">
     <g id="line2d_3">
      <g>
       <use style="fill:#999999;stroke:#999999;stroke-width:0.8;" x="171.34" xlink:href="#m6e782d6049" y="25.581842"/>
      </g>
     </g>
     <g id="text_3">
      <text style="fill:#999999;font-family:DejaVu Sans;font-size:8px;font-stretch:normal;font-style:normal;font-weight:normal;text-anchor:start;" transform="rotate(-0, 178.34, 28.621217)" x="178.34" y="28.621217">0.10</text>
     </g>
    </g>
    <g id="text_4">
     <text style="fill:#999999;font-family:DejaVu Sans;font-size:8px;font-stretch:normal;font-style:normal;font-weight:normal;text-anchor:middle;" transform="rotate(-90, 206.23125, 57.7)" x="206.23125" y="57.7">Flow velocity (µm/s)</text>
    </g>
   </g>
   <g id="line2d_4">
    <path clip-path="url(#pcd27a032c9)" d="M 40.366818 97.558281 
L 41.626781 97.982056 
L 42.886745 98.394323 
L 44.146708 98.785577 
L 45.406671 99.146952 
L 46.666635 99.4705 
L 47.926598 99.749441 
L 49.186561 99.978342 
L 50.446524 100.153227 
L 51.706488 100.271625 
L 52.966451 100.332541 
L 54.226414 100.336364 
L 55.486377 100.284715 
L 56.746341 100.180255 
L 58.006304 100.026453 
L 59.266267 99.827336 
L 60.52623 99.587238 
L 61.786194 99.310545 
L 63.046157 99.001466 
L 64.30612 98.663828 
L 65.566084 98.300907 
L 66.826047 97.915288 
L 68.08601 97.508776 
L 69.345973 97.08234 
L 70.605937 96.63609 
L 71.8659 96.169292 
L 73.125863 95.680407 
L 74.385826 95.167157 
L 75.64579 94.626596 
L 76.905753 94.055209 
L 78.165716 93.448998 
L 79.42568 92.803588 
L 80.685643 92.114318 
L 81.945606 91.376337 
L 83.205569 90.584694 
L 84.465533 89.734417 
L 85.725496 88.820597 
L 86.985459 87.838453 
L 88.245422 86.783406 
L 89.505386 85.651143 
L 90.765349 84.437677 
L 92.025312 83.139412 
L 93.285275 81.753201 
L 94.545239 80.276409 
L 95.805202 78.706976 
L 97.065165 77.043476 
L 98.325129 75.285185 
L 99.585092 73.432145 
L 100.845055 71.485225 
L 102.105018 69.446185 
L 103.364982 67.317738 
L 104.624945 65.103608 
L 105.884908 62.808581 
L 107.144871 60.438556 
L 108.404835 58.000581 
L 109.664798 55.502888 
L 110.924761 52.954913 
L 112.184725 50.367305 
L 113.444688 47.751926 
L 114.704651 45.121831 
L 115.964614 42.491238 
L 117.224578 39.875481 
L 118.484541 37.290943 
L 119.744504 34.754981 
L 121.004467 32.28582 
L 122.264431 29.902443 
L 123.524394 27.624459 
L 124.784357 25.471951 
L 126.04432 23.465316 
L 127.304284 21.625085 
L 128.564247 19.971734 
L 129.82421 18.525483 
L 131.084174 17.306086 
L 132.344137 16.332615 
L 133.6041 15.623241 
L 134.864063 15.195012 
L 136.124027 15.063636 
L 137.38399 15.243266 
L 138.643953 15.746293 
L 139.903916 16.583152 
L 141.16388 17.762145 
L 142.423843 19.289272 
L 143.683806 21.168091 
L 144.94377 23.3996 
L 146.203733 25.982135 
L 147.463696 28.911312 
L 148.723659 32.179977 
L 149.983623 35.778209 
L 151.243586 39.693333 
L 152.503549 43.909983 
L 153.763512 48.410183 
L 155.023476 53.17347 
L 156.283439 58.17704 
L 157.543402 63.395926 
L 158.803365 68.803204 
L 160.063329 74.370223 
L 161.323292 80.066858 
L 162.583255 85.861778 
L 163.843219 91.722738 
L 165.103182 97.616873 
" style="fill:none;stroke:#cccccc;stroke-dasharray:5.55,2.4;stroke-dashoffset:0;stroke-width:1.5;"/>
   </g>
   <g id="patch_2">
    <path d="M 34.13 104.6 
L 34.13 10.8 
" style="fill:none;stroke:#000000;stroke-linecap:square;stroke-linejoin:miter;stroke-width:0.8;"/>
   </g>
   <g id="patch_3">
    <path d="M 171.34 104.6 
L 171.34 10.8 
" style="fill:none;stroke:#000000;stroke-linecap:square;stroke-linejoin:miter;stroke-width:0.8;"/>
   </g>
   <g id="patch_4">
    <path d="M 34.13 104.6 
L 171.34 104.6 
" style="fill:none;stroke:#000000;stroke-linecap:square;stroke-linejoin:miter;stroke-width:0.8;"/>
   </g>
   <g id="patch_5">
    <path d="M 34.13 10.8 
L 171.34 10.8 
" style="fill:none;stroke:#000000;stroke-linecap:square;stroke-linejoin:miter;stroke-width:0.8;"/>
   </g>
  </g>
  <g id="axes_2">
   <g id="PolyCollection_1">
    <defs>
     <path d="M 40.366818 -73.207648 
L 40.366818 -44.097212 
L 42.912458 -45.968362 
L 45.458098 -47.597527 
L 48.003738 -49.27445 
L 50.549378 -52.788242 
L 53.095019 -52.045159 
L 55.640659 -54.493937 
L 58.186299 -62.447018 
L 60.731939 -55.27872 
L 63.277579 -40.0123 
L 65.823219 -57.297026 
L 68.368859 -53.48386 
L 70.914499 -65.67297 
L 73.460139 -76.062433 
L 76.005779 -78.976243 
L 78.551419 -69.439058 
L 81.097059 -55.764424 
L 83.642699 -59.089866 
L 86.18834 -57.276024 
L 88.73398 -58.498772 
L 91.27962 -50.775688 
L 93.82526 -43.382089 
L 96.3709 -36.574435 
L 98.91654 -34.462557 
L 101.46218 -33.62778 
L 104.00782 -30.439097 
L 106.55346 -26.710046 
L 109.0991 -29.260511 
L 111.64474 -28.025783 
L 114.19038 -31.585684 
L 116.73602 -30.884493 
L 119.28166 -33.22078 
L 121.827301 -31.513532 
L 124.372941 -32.487182 
L 126.918581 -32.456738 
L 129.464221 -30.857548 
L 132.009861 -31.198326 
L 134.555501 -30.631973 
L 137.101141 -30.030404 
L 139.646781 -32.28955 
L 142.192421 -32.837572 
L 144.738061 -32.985151 
L 147.283701 -31.874494 
L 149.829341 -31.791915 
L 152.374981 -30.552177 
L 154.920622 -30.689997 
L 157.466262 -32.46069 
L 160.011902 -31.618957 
L 162.557542 -31.56428 
L 165.103182 -32.048151 
L 165.103182 -36.17293 
L 165.103182 -36.17293 
L 162.557542 -36.362638 
L 160.011902 -35.306697 
L 157.466262 -35.044353 
L 154.920622 -35.388643 
L 152.374981 -35.06051 
L 149.829341 -36.681592 
L 147.283701 -36.151972 
L 144.738061 -37.007082 
L 142.192421 -39.236004 
L 139.646781 -36.41013 
L 137.101141 -35.774884 
L 134.555501 -37.110097 
L 132.009861 -35.656481 
L 129.464221 -35.213327 
L 126.918581 -36.383386 
L 124.372941 -40.747803 
L 121.827301 -38.889549 
L 119.28166 -38.311248 
L 116.73602 -39.048431 
L 114.19038 -37.973545 
L 111.64474 -36.84699 
L 109.0991 -36.730262 
L 106.55346 -40.158546 
L 104.00782 -41.022711 
L 101.46218 -43.742702 
L 98.91654 -51.273987 
L 96.3709 -69.165318 
L 93.82526 -75.81707 
L 91.27962 -83.968318 
L 88.73398 -98.745108 
L 86.18834 -114.421417 
L 83.642699 -119.842539 
L 81.097059 -131.406888 
L 78.551419 -104.542209 
L 76.005779 -115.489747 
L 73.460139 -101.822002 
L 70.914499 -89.51713 
L 68.368859 -88.21373 
L 65.823219 -110.751101 
L 63.277579 -127.839075 
L 60.731939 -94.702907 
L 58.186299 -91.644274 
L 55.640659 -83.745968 
L 53.095019 -81.82262 
L 50.549378 -78.332723 
L 48.003738 -82.905522 
L 45.458098 -75.013987 
L 42.912458 -82.975016 
L 40.366818 -73.207648 
z
" id="ma8696dfc95"/>
    </defs>
    <g clip-path="url(#pcd27a032c9)">
     <use style="fill-opacity:0.1;" x="0" xlink:href="#ma8696dfc95" y="129.6"/>
    </g>
   </g>
   <g id="line2d_5">
    <path clip-path="url(#pcd27a032c9)" d="M 40.366818 70.94757 
L 42.912458 65.128311 
L 45.458098 68.294243 
L 48.003738 63.510014 
L 50.549378 64.039518 
L 53.095019 62.66611 
L 55.640659 60.480048 
L 58.186299 52.554354 
L 60.731939 54.609187 
L 63.277579 45.674312 
L 65.823219 45.575937 
L 68.368859 58.751205 
L 70.914499 52.00495 
L 73.460139 40.657783 
L 76.005779 32.367005 
L 78.551419 42.609366 
L 81.097059 36.014344 
L 83.642699 40.133797 
L 86.18834 43.75128 
L 88.73398 50.97806 
L 91.27962 62.227997 
L 93.82526 70.00042 
L 96.3709 76.730124 
L 98.91654 86.731728 
L 101.46218 90.914759 
L 104.00782 93.869096 
L 106.55346 96.165704 
L 109.0991 96.604614 
L 111.64474 97.163614 
L 114.19038 94.820385 
L 116.73602 94.633538 
L 119.28166 93.833986 
L 121.827301 94.398459 
L 124.372941 92.982508 
L 126.918581 95.179938 
L 129.464221 96.564562 
L 132.009861 96.172596 
L 134.555501 95.728965 
L 137.101141 96.697356 
L 139.646781 95.25016 
L 142.192421 93.563212 
L 144.738061 94.603883 
L 147.283701 95.586767 
L 149.829341 95.363247 
L 152.374981 96.793657 
L 154.920622 96.56068 
L 157.466262 95.847479 
L 160.011902 96.137173 
L 162.557542 95.636541 
L 165.103182 95.48946 
" style="fill:none;stroke:#000000;stroke-linecap:square;"/>
   </g>
   <g id="matplotlib.axis_2">
    <g id="xtick_1">
     <g id="line2d_6">
      <defs>
       <path d="M 0 0 
L 0 3.5 
" id="m8b7de3d20b" style="stroke:#000000;stroke-width:0.8;"/>
      </defs>
      <g>
       <use style="stroke:#000000;stroke-width:0.8;" x="40.366818" xlink:href="#m8b7de3d20b" y="104.6"/>
      </g>
     </g>
     <g id="text_5">
      <text style="font-family:DejaVu Sans;font-size:8px;font-stretch:normal;font-style:normal;font-weight:normal;text-anchor:middle;" transform="rotate(-0, 40.366818, 117.67875)" x="40.366818" y="117.67875">A</text>
     </g>
    </g>
    <g id="xtick_2">
     <g id="line2d_7">
      <g>
       <use style="stroke:#000000;stroke-width:0.8;" x="165.103182" xlink:href="#m8b7de3d20b" y="104.6"/>
      </g>
     </g>
     <g id="text_6">
      <text style="font-family:DejaVu Sans;font-size:8px;font-stretch:normal;font-style:normal;font-weight:normal;text-anchor:middle;" transform="rotate(-0, 165.103182, 117.67875)" x="165.103182" y="117.67875">P</text>
     </g>
    </g>
   </g>
   <g id="matplotlib.axis_3">
    <g id="ytick_4">
     <g id="line2d_8">
      <defs>
       <path d="M 0 0 
L -3.5 0 
" id="m7064ccf44f" style="stroke:#000000;stroke-width:0.8;"/>
      </defs>
      <g>
       <use style="stroke:#000000;stroke-width:0.8;" x="34.13" xlink:href="#m7064ccf44f" y="95.22"/>
      </g>
     </g>
     <g id="text_7">
      <text style="font-family:DejaVu Sans;font-size:8px;font-stretch:normal;font-style:normal;font-weight:normal;text-anchor:end;" transform="rotate(-0, 27.13, 98.259375)" x="27.13" y="98.259375">0</text>
     </g>
    </g>
    <g id="ytick_5">
     <g id="line2d_9">
      <g>
       <use style="stroke:#000000;stroke-width:0.8;" x="34.13" xlink:href="#m7064ccf44f" y="76.46"/>
      </g>
     </g>
     <g id="text_8">
      <text style="font-family:DejaVu Sans;font-size:8px;font-stretch:normal;font-style:normal;font-weight:normal;text-anchor:end;" transform="rotate(-0, 27.13, 79.499375)" x="27.13" y="79.499375">1</text>
     </g>
    </g>
    <g id="ytick_6">
     <g id="line2d_10">
      <g>
       <use style="stroke:#000000;stroke-width:0.8;" x="34.13" xlink:href="#m7064ccf44f" y="57.7"/>
      </g>
     </g>
     <g id="text_9">
      <text style="font-family:DejaVu Sans;font-size:8px;font-stretch:normal;font-style:normal;font-weight:normal;text-anchor:end;" transform="rotate(-0, 27.13, 60.739375)" x="27.13" y="60.739375">2</text>
     </g>
    </g>
    <g id="ytick_7">
     <g id="line2d_11">
      <g>
       <use style="stroke:#000000;stroke-width:0.8;" x="34.13" xlink:href="#m7064ccf44f" y="38.94"/>
      </g>
     </g>
     <g id="text_10">
      <text style="font-family:DejaVu Sans;font-size:8px;font-stretch:normal;font-style:normal;font-weight:normal;text-anchor:end;" transform="rotate(-0, 27.13, 41.979375)" x="27.13" y="41.979375">3</text>
     </g>
    </g>
    <g id="ytick_8">
     <g id="line2d_12">
      <g>
       <use style="stroke:#000000;stroke-width:0.8;" x="34.13" xlink:href="#m7064ccf44f" y="20.18"/>
      </g>
     </g>
     <g id="text_11">
      <text style="font-family:DejaVu Sans;font-size:8px;font-stretch:normal;font-style:normal;font-weight:normal;text-anchor:end;" transform="rotate(-0, 27.13, 23.219375)" x="27.13" y="23.219375">4</text>
     </g>
    </g>
    <g id="text_12">
     <text style="font-family:DejaVu Sans;font-size:8px;font-stretch:normal;font-style:normal;font-weight:normal;text-anchor:middle;" transform="rotate(-90, 16.37625, 57.7)" x="16.37625" y="57.7">Normalised concentration</text>
    </g>
   </g>
   <g id="line2d_13">
    <path clip-path="url(#pcd27a032c9)" d="M 40.366818 77.833723 
L 41.626781 77.82618 
L 42.886745 77.780932 
L 44.146708 77.69893 
L 45.406671 77.581427 
L 46.666635 77.429967 
L 47.926598 77.246372 
L 49.186561 77.03271 
L 50.446524 76.791247 
L 51.706488 76.524382 
L 52.966451 76.234573 
L 54.226414 75.924242 
L 55.486377 75.595674 
L 56.746341 75.250913 
L 58.006304 74.89166 
L 59.266267 74.519177 
L 60.52623 74.13422 
L 61.786194 73.736987 
L 63.046157 73.327102 
L 64.30612 72.903639 
L 65.566084 72.465175 
L 66.826047 72.009888 
L 68.08601 71.535686 
L 69.345973 71.040375 
L 70.605937 70.521846 
L 71.8659 69.978289 
L 73.125863 69.408428 
L 74.385826 68.811755 
L 75.64579 68.18878 
L 76.905753 67.541264 
L 78.165716 66.872444 
L 79.42568 66.18723 
L 80.685643 65.49236 
L 81.945606 64.796494 
L 83.205569 64.110246 
L 84.465533 63.446109 
L 85.725496 62.818281 
L 86.985459 62.24236 
L 88.245422 61.734915 
L 89.505386 61.312918 
L 90.765349 60.993066 
L 92.025312 60.791005 
L 93.285275 60.720502 
L 94.545239 60.792627 
L 95.805202 61.014991 
L 97.065165 61.391128 
L 98.325129 61.920072 
L 99.585092 62.596197 
L 100.845055 63.409344 
L 102.105018 64.345248 
L 103.364982 65.386241 
L 104.624945 66.512174 
L 105.884908 67.701477 
L 107.144871 68.932268 
L 108.404835 70.183401 
L 109.664798 71.435375 
L 110.924761 72.671032 
L 112.184725 73.876006 
L 113.444688 75.038921 
L 114.704651 76.15136 
L 115.964614 77.207648 
L 117.224578 78.204512 
L 118.484541 79.140669 
L 119.744504 80.016396 
L 121.004467 80.833126 
L 122.264431 81.593094 
L 123.524394 82.299039 
L 124.784357 82.953983 
L 126.04432 83.561051 
L 127.304284 84.123365 
L 128.564247 84.643952 
L 129.82421 85.125708 
L 131.084174 85.571359 
L 132.344137 85.983455 
L 133.6041 86.364366 
L 134.864063 86.71628 
L 136.124027 87.041212 
L 137.38399 87.341012 
L 138.643953 87.617371 
L 139.903916 87.871832 
L 141.16388 88.105795 
L 142.423843 88.320529 
L 143.683806 88.517175 
L 144.94377 88.696751 
L 146.203733 88.860161 
L 147.463696 89.008189 
L 148.723659 89.141507 
L 149.983623 89.260668 
L 151.243586 89.3661 
L 152.503549 89.458093 
L 153.763512 89.536785 
L 155.023476 89.602127 
L 156.283439 89.653844 
L 157.543402 89.691372 
L 158.803365 89.713755 
L 160.063329 89.719507 
L 161.323292 89.706379 
L 162.583255 89.671021 
L 163.843219 89.608425 
L 165.103182 89.511055 
" style="fill:none;stroke:#ff7f0e;stroke-linecap:square;stroke-width:1.5;"/>
   </g>
   <g id="line2d_14">
    <path clip-path="url(#pcd27a032c9)" d="M 40.366818 76.288304 
L 41.626781 76.283192 
L 42.886745 76.272983 
L 44.146708 76.257708 
L 45.406671 76.237414 
L 46.666635 76.212163 
L 47.926598 76.182035 
L 49.186561 76.147126 
L 50.446524 76.107551 
L 51.706488 76.063444 
L 52.966451 76.014957 
L 54.226414 75.962264 
L 55.486377 75.905561 
L 56.746341 75.845069 
L 58.006304 75.781032 
L 59.266267 75.713721 
L 60.52623 75.643435 
L 61.786194 75.570502 
L 63.046157 75.495278 
L 64.30612 75.418154 
L 65.566084 75.33955 
L 66.826047 75.259919 
L 68.08601 75.179744 
L 69.345973 75.099542 
L 70.605937 75.019858 
L 71.8659 74.941265 
L 73.125863 74.864361 
L 74.385826 74.789766 
L 75.64579 74.718115 
L 76.905753 74.650059 
L 78.165716 74.586251 
L 79.42568 74.527349 
L 80.685643 74.473999 
L 81.945606 74.426836 
L 83.205569 74.386469 
L 84.465533 74.35348 
L 85.725496 74.328408 
L 86.985459 74.311747 
L 88.245422 74.303935 
L 89.505386 74.305348 
L 90.765349 74.316291 
L 92.025312 74.336997 
L 93.285275 74.367616 
L 94.545239 74.408215 
L 95.805202 74.458776 
L 97.065165 74.519192 
L 98.325129 74.589269 
L 99.585092 74.66873 
L 100.845055 74.757213 
L 102.105018 74.85428 
L 103.364982 74.95942 
L 104.624945 75.072057 
L 105.884908 75.191558 
L 107.144871 75.31724 
L 108.404835 75.448381 
L 109.664798 75.584231 
L 110.924761 75.724017 
L 112.184725 75.866956 
L 113.444688 76.012267 
L 114.704651 76.159176 
L 115.964614 76.306926 
L 117.224578 76.454785 
L 118.484541 76.602057 
L 119.744504 76.748082 
L 121.004467 76.892243 
L 122.264431 77.033975 
L 123.524394 77.172762 
L 124.784357 77.308143 
L 126.04432 77.439711 
L 127.304284 77.567116 
L 128.564247 77.69006 
L 129.82421 77.8083 
L 131.084174 77.921644 
L 132.344137 78.029948 
L 133.6041 78.133113 
L 134.864063 78.231082 
L 136.124027 78.323837 
L 137.38399 78.411393 
L 138.643953 78.493796 
L 139.903916 78.571119 
L 141.16388 78.643456 
L 142.423843 78.710919 
L 143.683806 78.773637 
L 144.94377 78.831748 
L 146.203733 78.885401 
L 147.463696 78.934748 
L 148.723659 78.979943 
L 149.983623 79.021143 
L 151.243586 79.058498 
L 152.503549 79.092157 
L 153.763512 79.122263 
L 155.023476 79.148947 
L 156.283439 79.172335 
L 157.543402 79.19254 
L 158.803365 79.209663 
L 160.063329 79.223793 
L 161.323292 79.235005 
L 162.583255 79.24336 
L 163.843219 79.248904 
L 165.103182 79.251669 
" style="fill:none;stroke:#1f77b4;stroke-linecap:square;stroke-width:1.5;"/>
   </g>
   <g id="patch_6">
    <path d="M 34.13 104.6 
L 34.13 10.8 
" style="fill:none;stroke:#000000;stroke-linecap:square;stroke-linejoin:miter;stroke-width:0.8;"/>
   </g>
   <g id="patch_7">
    <path d="M 171.34 104.6 
L 171.34 10.8 
" style="fill:none;stroke:#999999;stroke-linecap:square;stroke-linejoin:miter;stroke-width:0.8;"/>
   </g>
   <g id="patch_8">
    <path d="M 34.13 104.6 
L 171.34 104.6 
" style="fill:none;stroke:#000000;stroke-linecap:square;stroke-linejoin:miter;stroke-width:0.8;"/>
   </g>
   <g id="patch_9">
    <path d="M 34.13 10.8 
L 171.34 10.8 
" style="fill:none;stroke:#000000;stroke-linecap:square;stroke-linejoin:miter;stroke-width:0.8;"/>
   </g>
   <g id="legend_1">
    <g id="line2d_15">
     <path d="M 39.53 87.045312 
L 51.53 87.045312 
" style="fill:none;stroke:#ff7f0e;stroke-linecap:square;stroke-width:1.5;"/>
    </g>
    <g id="line2d_16"/>
    <g id="text_13">
     <text style="font-family:DejaVu Sans;font-size:6px;font-stretch:normal;font-style:normal;font-weight:normal;text-anchor:start;" transform="rotate(-0, 56.33, 89.145312)" x="56.33" y="89.145312">End of flow</text>
    </g>
    <g id="line2d_17">
     <path d="M 39.53 95.852187 
L 51.53 95.852187 
" style="fill:none;stroke:#1f77b4;stroke-linecap:square;stroke-width:1.5;"/>
    </g>
    <g id="line2d_18"/>
    <g id="text_14">
     <text style="font-family:DejaVu Sans;font-size:6px;font-stretch:normal;font-style:normal;font-weight:normal;text-anchor:start;" transform="rotate(-0, 56.33, 97.952187)" x="56.33" y="97.952187">300s post flow</text>
    </g>
   </g>
  </g>
 </g>
 <defs>
  <clipPath id="pcd27a032c9">
   <rect height="93.8" width="137.21" x="34.13" y="10.8"/>
  </clipPath>
 </defs>
</svg>
