<?xml version="1.0" encoding="utf-8" standalone="no"?>
<!DOCTYPE svg PUBLIC "-//W3C//DTD SVG 1.1//EN"
  "http://www.w3.org/Graphics/SVG/1.1/DTD/svg11.dtd">
<!-- Created with matplotlib (https://matplotlib.org/) -->
<svg height="129.6pt" version="1.1" viewBox="0 0 223.2 129.6" width="223.2pt" xmlns="http://www.w3.org/2000/svg" xmlns:xlink="http://www.w3.org/1999/xlink">
 <metadata>
  <rdf:RDF xmlns:cc="http://creativecommons.org/ns#" xmlns:dc="http://purl.org/dc/elements/1.1/" xmlns:rdf="http://www.w3.org/1999/02/22-rdf-syntax-ns#">
   <cc:Work>
    <dc:type rdf:resource="http://purl.org/dc/dcmitype/StillImage"/>
    <dc:date>2022-05-17T10:52:02.932060</dc:date>
    <dc:format>image/svg+xml</dc:format>
    <dc:creator>
     <cc:Agent>
      <dc:title>Matplotlib v3.3.4, https://matplotlib.org/</dc:title>
     </cc:Agent>
    </dc:creator>
   </cc:Work>
  </rdf:RDF>
 </metadata>
 <defs>
  <style type="text/css">*{stroke-linecap:butt;stroke-linejoin:round;}</style>
 </defs>
 <g id="figure_1">
  <g id="patch_1">
   <path d="M 0 129.6 
L 223.2 129.6 
L 223.2 0 
L 0 0 
z
" style="fill:none;"/>
  </g>
  <g id="axes_1">
   <g id="matplotlib.axis_1">
    <g id="ytick_1">
     <g id="line2d_1">
      <defs>
       <path d="M 0 0 
L 3.5 0 
" id="m83f65f2696" style="stroke:#999999;stroke-width:0.8;"/>
      </defs>
      <g>
       <use style="fill:#999999;stroke:#999999;stroke-width:0.8;" x="171.34" xlink:href="#m83f65f2696" y="97.616873"/>
      </g>
     </g>
     <g id="text_1">
      <text style="fill:#999999;font-family:DejaVu Sans;font-size:8px;font-stretch:normal;font-style:normal;font-weight:normal;text-anchor:start;" transform="rotate(-0, 178.34, 100.656248)" x="178.34" y="100.656248">0.00</text>
     </g>
    </g>
    <g id="ytick_2">
     <g id="line2d_2">
      <g>
       <use style="fill:#999999;stroke:#999999;stroke-width:0.8;" x="171.34" xlink:href="#m83f65f2696" y="61.599358"/>
      </g>
     </g>
     <g id="text_2">
      <text style="fill:#999999;font-family:DejaVu Sans;font-size:8px;font-stretch:normal;font-style:normal;font-weight:normal;text-anchor:start;" transform="rotate(-0, 178.34, 64.638733)" x="178.34" y="64.638733">0.05</text>
     </g>
    </g>
    <g id="ytick_3">
     <g id="line2d_3">
      <g>
       <use style="fill:#999999;stroke:#999999;stroke-width:0.8;" x="171.34" xlink:href="#m83f65f2696" y="25.581842"/>
      </g>
     </g>
     <g id="text_3">
      <text style="fill:#999999;font-family:DejaVu Sans;font-size:8px;font-stretch:normal;font-style:normal;font-weight:normal;text-anchor:start;" transform="rotate(-0, 178.34, 28.621217)" x="178.34" y="28.621217">0.10</text>
     </g>
    </g>
    <g id="text_4">
     <text style="fill:#999999;font-family:DejaVu Sans;font-size:8px;font-stretch:normal;font-style:normal;font-weight:normal;text-anchor:middle;" transform="rotate(-90, 206.23125, 57.7)" x="206.23125" y="57.7">Flow velocity (µm/s)</text>
    </g>
   </g>
   <g id="line2d_4">
    <path clip-path="url(#p060812a37d)" d="M 40.366818 97.558281 
L 41.626781 97.982056 
L 42.886745 98.394323 
L 44.146708 98.785577 
L 45.406671 99.146952 
L 46.666635 99.4705 
L 47.926598 99.749441 
L 49.186561 99.978342 
L 50.446524 100.153227 
L 51.706488 100.271625 
L 52.966451 100.332541 
L 54.226414 100.336364 
L 55.486377 100.284715 
L 56.746341 100.180255 
L 58.006304 100.026453 
L 59.266267 99.827336 
L 60.52623 99.587238 
L 61.786194 99.310545 
L 63.046157 99.001466 
L 64.30612 98.663828 
L 65.566084 98.300907 
L 66.826047 97.915288 
L 68.08601 97.508776 
L 69.345973 97.08234 
L 70.605937 96.63609 
L 71.8659 96.169292 
L 73.125863 95.680407 
L 74.385826 95.167157 
L 75.64579 94.626596 
L 76.905753 94.055209 
L 78.165716 93.448998 
L 79.42568 92.803588 
L 80.685643 92.114318 
L 81.945606 91.376337 
L 83.205569 90.584694 
L 84.465533 89.734417 
L 85.725496 88.820597 
L 86.985459 87.838453 
L 88.245422 86.783406 
L 89.505386 85.651143 
L 90.765349 84.437677 
L 92.025312 83.139412 
L 93.285275 81.753201 
L 94.545239 80.276409 
L 95.805202 78.706976 
L 97.065165 77.043476 
L 98.325129 75.285185 
L 99.585092 73.432145 
L 100.845055 71.485225 
L 102.105018 69.446185 
L 103.364982 67.317738 
L 104.624945 65.103608 
L 105.884908 62.808581 
L 107.144871 60.438556 
L 108.404835 58.000581 
L 109.664798 55.502888 
L 110.924761 52.954913 
L 112.184725 50.367305 
L 113.444688 47.751926 
L 114.704651 45.121831 
L 115.964614 42.491238 
L 117.224578 39.875481 
L 118.484541 37.290943 
L 119.744504 34.754981 
L 121.004467 32.28582 
L 122.264431 29.902443 
L 123.524394 27.624459 
L 124.784357 25.471951 
L 126.04432 23.465316 
L 127.304284 21.625085 
L 128.564247 19.971734 
L 129.82421 18.525483 
L 131.084174 17.306086 
L 132.344137 16.332615 
L 133.6041 15.623241 
L 134.864063 15.195012 
L 136.124027 15.063636 
L 137.38399 15.243266 
L 138.643953 15.746293 
L 139.903916 16.583152 
L 141.16388 17.762145 
L 142.423843 19.289272 
L 143.683806 21.168091 
L 144.94377 23.3996 
L 146.203733 25.982135 
L 147.463696 28.911312 
L 148.723659 32.179977 
L 149.983623 35.778209 
L 151.243586 39.693333 
L 152.503549 43.909983 
L 153.763512 48.410183 
L 155.023476 53.17347 
L 156.283439 58.17704 
L 157.543402 63.395926 
L 158.803365 68.803204 
L 160.063329 74.370223 
L 161.323292 80.066858 
L 162.583255 85.861778 
L 163.843219 91.722738 
L 165.103182 97.616873 
" style="fill:none;stroke:#cccccc;stroke-dasharray:5.55,2.4;stroke-dashoffset:0;stroke-width:1.5;"/>
   </g>
   <g id="patch_2">
    <path d="M 34.13 104.6 
L 34.13 10.8 
" style="fill:none;stroke:#000000;stroke-linecap:square;stroke-linejoin:miter;stroke-width:0.8;"/>
   </g>
   <g id="patch_3">
    <path d="M 171.34 104.6 
L 171.34 10.8 
" style="fill:none;stroke:#000000;stroke-linecap:square;stroke-linejoin:miter;stroke-width:0.8;"/>
   </g>
   <g id="patch_4">
    <path d="M 34.13 104.6 
L 171.34 104.6 
" style="fill:none;stroke:#000000;stroke-linecap:square;stroke-linejoin:miter;stroke-width:0.8;"/>
   </g>
   <g id="patch_5">
    <path d="M 34.13 10.8 
L 171.34 10.8 
" style="fill:none;stroke:#000000;stroke-linecap:square;stroke-linejoin:miter;stroke-width:0.8;"/>
   </g>
  </g>
  <g id="axes_2">
   <g id="PolyCollection_1">
    <defs>
     <path d="M 40.366818 -73.207648 
L 40.366818 -44.097212 
L 42.912458 -45.968362 
L 45.458098 -47.597527 
L 48.003738 -49.27445 
L 50.549378 -52.788242 
L 53.095019 -52.045159 
L 55.640659 -54.493937 
L 58.186299 -62.447018 
L 60.731939 -55.27872 
L 63.277579 -40.0123 
L 65.823219 -57.297026 
L 68.368859 -53.48386 
L 70.914499 -65.67297 
L 73.460139 -76.062433 
L 76.005779 -78.976243 
L 78.551419 -69.439058 
L 81.097059 -55.764424 
L 83.642699 -59.089866 
L 86.18834 -57.276024 
L 88.73398 -58.498772 
L 91.27962 -50.775688 
L 93.82526 -43.382089 
L 96.3709 -36.574435 
L 98.91654 -34.462557 
L 101.46218 -33.62778 
L 104.00782 -30.439097 
L 106.55346 -26.710046 
L 109.0991 -29.260511 
L 111.64474 -28.025783 
L 114.19038 -31.585684 
L 116.73602 -30.884493 
L 119.28166 -33.22078 
L 121.827301 -31.513532 
L 124.372941 -32.487182 
L 126.918581 -32.456738 
L 129.464221 -30.857548 
L 132.009861 -31.198326 
L 134.555501 -30.631973 
L 137.101141 -30.030404 
L 139.646781 -32.28955 
L 142.192421 -32.837572 
L 144.738061 -32.985151 
L 147.283701 -31.874494 
L 149.829341 -31.791915 
L 152.374981 -30.552177 
L 154.920622 -30.689997 
L 157.466262 -32.46069 
L 160.011902 -31.618957 
L 162.557542 -31.56428 
L 165.103182 -32.048151 
L 165.103182 -36.17293 
L 165.103182 -36.17293 
L 162.557542 -36.362638 
L 160.011902 -35.306697 
L 157.466262 -35.044353 
L 154.920622 -35.388643 
L 152.374981 -35.06051 
L 149.829341 -36.681592 
L 147.283701 -36.151972 
L 144.738061 -37.007082 
L 142.192421 -39.236004 
L 139.646781 -36.41013 
L 137.101141 -35.774884 
L 134.555501 -37.110097 
L 132.009861 -35.656481 
L 129.464221 -35.213327 
L 126.918581 -36.383386 
L 124.372941 -40.747803 
L 121.827301 -38.889549 
L 119.28166 -38.311248 
L 116.73602 -39.048431 
L 114.19038 -37.973545 
L 111.64474 -36.84699 
L 109.0991 -36.730262 
L 106.55346 -40.158546 
L 104.00782 -41.022711 
L 101.46218 -43.742702 
L 98.91654 -51.273987 
L 96.3709 -69.165318 
L 93.82526 -75.81707 
L 91.27962 -83.968318 
L 88.73398 -98.745108 
L 86.18834 -114.421417 
L 83.642699 -119.842539 
L 81.097059 -131.406888 
L 78.551419 -104.542209 
L 76.005779 -115.489747 
L 73.460139 -101.822002 
L 70.914499 -89.51713 
L 68.368859 -88.21373 
L 65.823219 -110.751101 
L 63.277579 -127.839075 
L 60.731939 -94.702907 
L 58.186299 -91.644274 
L 55.640659 -83.745968 
L 53.095019 -81.82262 
L 50.549378 -78.332723 
L 48.003738 -82.905522 
L 45.458098 -75.013987 
L 42.912458 -82.975016 
L 40.366818 -73.207648 
z
" id="m69e1b99420"/>
    </defs>
    <g clip-path="url(#p060812a37d)">
     <use style="fill-opacity:0.1;" x="0" xlink:href="#m69e1b99420" y="129.6"/>
    </g>
   </g>
   <g id="line2d_5">
    <path clip-path="url(#p060812a37d)" d="M 40.366818 70.94757 
L 42.912458 65.128311 
L 45.458098 68.294243 
L 48.003738 63.510014 
L 50.549378 64.039518 
L 53.095019 62.66611 
L 55.640659 60.480048 
L 58.186299 52.554354 
L 60.731939 54.609187 
L 63.277579 45.674312 
L 65.823219 45.575937 
L 68.368859 58.751205 
L 70.914499 52.00495 
L 73.460139 40.657783 
L 76.005779 32.367005 
L 78.551419 42.609366 
L 81.097059 36.014344 
L 83.642699 40.133797 
L 86.18834 43.75128 
L 88.73398 50.97806 
L 91.27962 62.227997 
L 93.82526 70.00042 
L 96.3709 76.730124 
L 98.91654 86.731728 
L 101.46218 90.914759 
L 104.00782 93.869096 
L 106.55346 96.165704 
L 109.0991 96.604614 
L 111.64474 97.163614 
L 114.19038 94.820385 
L 116.73602 94.633538 
L 119.28166 93.833986 
L 121.827301 94.398459 
L 124.372941 92.982508 
L 126.918581 95.179938 
L 129.464221 96.564562 
L 132.009861 96.172596 
L 134.555501 95.728965 
L 137.101141 96.697356 
L 139.646781 95.25016 
L 142.192421 93.563212 
L 144.738061 94.603883 
L 147.283701 95.586767 
L 149.829341 95.363247 
L 152.374981 96.793657 
L 154.920622 96.56068 
L 157.466262 95.847479 
L 160.011902 96.137173 
L 162.557542 95.636541 
L 165.103182 95.48946 
" style="fill:none;stroke:#000000;stroke-linecap:square;"/>
   </g>
   <g id="matplotlib.axis_2">
    <g id="xtick_1">
     <g id="line2d_6">
      <defs>
       <path d="M 0 0 
L 0 3.5 
" id="m00cd92b5f6" style="stroke:#000000;stroke-width:0.8;"/>
      </defs>
      <g>
       <use style="stroke:#000000;stroke-width:0.8;" x="40.366818" xlink:href="#m00cd92b5f6" y="104.6"/>
      </g>
     </g>
     <g id="text_5">
      <text style="font-family:DejaVu Sans;font-size:8px;font-stretch:normal;font-style:normal;font-weight:normal;text-anchor:middle;" transform="rotate(-0, 40.366818, 117.67875)" x="40.366818" y="117.67875">A</text>
     </g>
    </g>
    <g id="xtick_2">
     <g id="line2d_7">
      <g>
       <use style="stroke:#000000;stroke-width:0.8;" x="165.103182" xlink:href="#m00cd92b5f6" y="104.6"/>
      </g>
     </g>
     <g id="text_6">
      <text style="font-family:DejaVu Sans;font-size:8px;font-stretch:normal;font-style:normal;font-weight:normal;text-anchor:middle;" transform="rotate(-0, 165.103182, 117.67875)" x="165.103182" y="117.67875">P</text>
     </g>
    </g>
   </g>
   <g id="matplotlib.axis_3">
    <g id="ytick_4">
     <g id="line2d_8">
      <defs>
       <path d="M 0 0 
L -3.5 0 
" id="m59a7a0ca0e" style="stroke:#000000;stroke-width:0.8;"/>
      </defs>
      <g>
       <use style="stroke:#000000;stroke-width:0.8;" x="34.13" xlink:href="#m59a7a0ca0e" y="95.22"/>
      </g>
     </g>
     <g id="text_7">
      <text style="font-family:DejaVu Sans;font-size:8px;font-stretch:normal;font-style:normal;font-weight:normal;text-anchor:end;" transform="rotate(-0, 27.13, 98.259375)" x="27.13" y="98.259375">0</text>
     </g>
    </g>
    <g id="ytick_5">
     <g id="line2d_9">
      <g>
       <use style="stroke:#000000;stroke-width:0.8;" x="34.13" xlink:href="#m59a7a0ca0e" y="76.46"/>
      </g>
     </g>
     <g id="text_8">
      <text style="font-family:DejaVu Sans;font-size:8px;font-stretch:normal;font-style:normal;font-weight:normal;text-anchor:end;" transform="rotate(-0, 27.13, 79.499375)" x="27.13" y="79.499375">1</text>
     </g>
    </g>
    <g id="ytick_6">
     <g id="line2d_10">
      <g>
       <use style="stroke:#000000;stroke-width:0.8;" x="34.13" xlink:href="#m59a7a0ca0e" y="57.7"/>
      </g>
     </g>
     <g id="text_9">
      <text style="font-family:DejaVu Sans;font-size:8px;font-stretch:normal;font-style:normal;font-weight:normal;text-anchor:end;" transform="rotate(-0, 27.13, 60.739375)" x="27.13" y="60.739375">2</text>
     </g>
    </g>
    <g id="ytick_7">
     <g id="line2d_11">
      <g>
       <use style="stroke:#000000;stroke-width:0.8;" x="34.13" xlink:href="#m59a7a0ca0e" y="38.94"/>
      </g>
     </g>
     <g id="text_10">
      <text style="font-family:DejaVu Sans;font-size:8px;font-stretch:normal;font-style:normal;font-weight:normal;text-anchor:end;" transform="rotate(-0, 27.13, 41.979375)" x="27.13" y="41.979375">3</text>
     </g>
    </g>
    <g id="ytick_8">
     <g id="line2d_12">
      <g>
       <use style="stroke:#000000;stroke-width:0.8;" x="34.13" xlink:href="#m59a7a0ca0e" y="20.18"/>
      </g>
     </g>
     <g id="text_11">
      <text style="font-family:DejaVu Sans;font-size:8px;font-stretch:normal;font-style:normal;font-weight:normal;text-anchor:end;" transform="rotate(-0, 27.13, 23.219375)" x="27.13" y="23.219375">4</text>
     </g>
    </g>
    <g id="text_12">
     <text style="font-family:DejaVu Sans;font-size:8px;font-stretch:normal;font-style:normal;font-weight:normal;text-anchor:middle;" transform="rotate(-90, 16.37625, 57.7)" x="16.37625" y="57.7">Normalised concentration</text>
    </g>
   </g>
   <g id="line2d_13">
    <path clip-path="url(#p060812a37d)" d="M 40.366818 78.710371 
L 41.626781 78.854409 
L 42.886745 78.888522 
L 44.146708 78.838505 
L 45.406671 78.720224 
L 46.666635 78.544019 
L 47.926598 78.317264 
L 49.186561 78.045887 
L 50.446524 77.735303 
L 51.706488 77.39098 
L 52.966451 77.018769 
L 54.226414 76.625051 
L 55.486377 76.216726 
L 56.746341 75.801032 
L 58.006304 75.38523 
L 59.266267 74.976144 
L 60.52623 74.579618 
L 61.786194 74.199931 
L 63.046157 73.839236 
L 64.30612 73.497098 
L 65.566084 73.170156 
L 66.826047 72.851947 
L 68.08601 72.53284 
L 69.345973 72.20004 
L 70.605937 71.837576 
L 71.8659 71.426195 
L 73.125863 70.943152 
L 74.385826 70.361961 
L 75.64579 69.652382 
L 76.905753 68.781158 
L 78.165716 67.71436 
L 79.42568 66.422406 
L 80.685643 64.888711 
L 81.945606 63.122075 
L 83.205569 61.170967 
L 84.465533 59.135113 
L 85.725496 57.167254 
L 86.985459 55.457881 
L 88.245422 54.20035 
L 89.505386 53.543104 
L 90.765349 53.545962 
L 92.025312 54.161151 
L 93.285275 55.251386 
L 94.545239 56.638751 
L 95.805202 58.161004 
L 97.065165 59.708868 
L 98.325129 61.231844 
L 99.585092 62.71992 
L 100.845055 64.179116 
L 102.105018 65.614953 
L 103.364982 67.026997 
L 104.624945 68.410117 
L 105.884908 69.757331 
L 107.144871 71.061834 
L 108.404835 72.317937 
L 109.664798 73.521366 
L 110.924761 74.669235 
L 112.184725 75.759899 
L 113.444688 76.792761 
L 114.704651 77.76808 
L 115.964614 78.686786 
L 117.224578 79.550329 
L 118.484541 80.36054 
L 119.744504 81.119521 
L 121.004467 81.82955 
L 122.264431 82.493009 
L 123.524394 83.112325 
L 124.784357 83.68992 
L 126.04432 84.228182 
L 127.304284 84.72943 
L 128.564247 85.195905 
L 129.82421 85.629744 
L 131.084174 86.032984 
L 132.344137 86.407545 
L 133.6041 86.755235 
L 134.864063 87.077747 
L 136.124027 87.376657 
L 137.38399 87.653432 
L 138.643953 87.909427 
L 139.903916 88.145891 
L 141.16388 88.36397 
L 142.423843 88.564707 
L 143.683806 88.749046 
L 144.94377 88.917831 
L 146.203733 89.071809 
L 147.463696 89.211618 
L 148.723659 89.337787 
L 149.983623 89.450716 
L 151.243586 89.550657 
L 152.503549 89.637667 
L 153.763512 89.711542 
L 155.023476 89.771697 
L 156.283439 89.816942 
L 157.543402 89.845079 
L 158.803365 89.852068 
L 160.063329 89.83026 
L 161.323292 89.764208 
L 162.583255 89.619668 
L 163.843219 89.310243 
L 165.103182 88.57587 
" style="fill:none;stroke:#ff7f0e;stroke-linecap:square;stroke-width:1.5;"/>
   </g>
   <g id="line2d_14">
    <path clip-path="url(#p060812a37d)" d="M 40.366818 76.949008 
L 41.626781 76.942259 
L 42.886745 76.928541 
L 44.146708 76.90749 
L 45.406671 76.87872 
L 46.666635 76.84196 
L 47.926598 76.79716 
L 49.186561 76.744553 
L 50.446524 76.684659 
L 51.706488 76.618251 
L 52.966451 76.54629 
L 54.226414 76.469855 
L 55.486377 76.390061 
L 56.746341 76.307988 
L 58.006304 76.224605 
L 59.266267 76.140702 
L 60.52623 76.056812 
L 61.786194 75.973146 
L 63.046157 75.88952 
L 64.30612 75.805297 
L 65.566084 75.71934 
L 66.826047 75.629977 
L 68.08601 75.534998 
L 69.345973 75.431686 
L 70.605937 75.3169 
L 71.8659 75.187224 
L 73.125863 75.039201 
L 74.385826 74.869665 
L 75.64579 74.676171 
L 76.905753 74.457503 
L 78.165716 74.21422 
L 79.42568 73.949152 
L 80.685643 73.66776 
L 81.945606 73.378242 
L 83.205569 73.091283 
L 84.465533 72.819416 
L 85.725496 72.576009 
L 86.985459 72.373992 
L 88.245422 72.224505 
L 89.505386 72.135705 
L 90.765349 72.111941 
L 92.025312 72.153446 
L 93.285275 72.256589 
L 94.545239 72.414618 
L 95.805202 72.618699 
L 97.065165 72.859068 
L 98.325129 73.126059 
L 99.585092 73.410884 
L 100.845055 73.706082 
L 102.105018 74.005679 
L 103.364982 74.305106 
L 104.624945 74.600984 
L 105.884908 74.890862 
L 107.144871 75.172971 
L 108.404835 75.446028 
L 109.664798 75.709092 
L 110.924761 75.961485 
L 112.184725 76.202731 
L 113.444688 76.432531 
L 114.704651 76.650741 
L 115.964614 76.857354 
L 117.224578 77.052482 
L 118.484541 77.23634 
L 119.744504 77.409223 
L 121.004467 77.571494 
L 122.264431 77.723561 
L 123.524394 77.865865 
L 124.784357 77.998867 
L 126.04432 78.123038 
L 127.304284 78.238848 
L 128.564247 78.346762 
L 129.82421 78.447232 
L 131.084174 78.540694 
L 132.344137 78.627566 
L 133.6041 78.708245 
L 134.864063 78.783106 
L 136.124027 78.852501 
L 137.38399 78.916758 
L 138.643953 78.976182 
L 139.903916 79.031051 
L 141.16388 79.081621 
L 142.423843 79.128121 
L 143.683806 79.170751 
L 144.94377 79.209678 
L 146.203733 79.245034 
L 147.463696 79.276901 
L 148.723659 79.305305 
L 149.983623 79.330205 
L 151.243586 79.351477 
L 152.503549 79.36892 
L 153.763512 79.382277 
L 155.023476 79.391289 
L 156.283439 79.39579 
L 157.543402 79.395834 
L 158.803365 79.391845 
L 160.063329 79.38471 
L 161.323292 79.375795 
L 162.583255 79.366814 
L 163.843219 79.35955 
L 165.103182 79.355492 
" style="fill:none;stroke:#1f77b4;stroke-linecap:square;stroke-width:1.5;"/>
   </g>
   <g id="patch_6">
    <path d="M 34.13 104.6 
L 34.13 10.8 
" style="fill:none;stroke:#000000;stroke-linecap:square;stroke-linejoin:miter;stroke-width:0.8;"/>
   </g>
   <g id="patch_7">
    <path d="M 171.34 104.6 
L 171.34 10.8 
" style="fill:none;stroke:#999999;stroke-linecap:square;stroke-linejoin:miter;stroke-width:0.8;"/>
   </g>
   <g id="patch_8">
    <path d="M 34.13 104.6 
L 171.34 104.6 
" style="fill:none;stroke:#000000;stroke-linecap:square;stroke-linejoin:miter;stroke-width:0.8;"/>
   </g>
   <g id="patch_9">
    <path d="M 34.13 10.8 
L 171.34 10.8 
" style="fill:none;stroke:#000000;stroke-linecap:square;stroke-linejoin:miter;stroke-width:0.8;"/>
   </g>
   <g id="legend_1">
    <g id="line2d_15">
     <path d="M 39.53 87.045312 
L 51.53 87.045312 
" style="fill:none;stroke:#ff7f0e;stroke-linecap:square;stroke-width:1.5;"/>
    </g>
    <g id="line2d_16"/>
    <g id="text_13">
     <text style="font-family:DejaVu Sans;font-size:6px;font-stretch:normal;font-style:normal;font-weight:normal;text-anchor:start;" transform="rotate(-0, 56.33, 89.145312)" x="56.33" y="89.145312">End of flow</text>
    </g>
    <g id="line2d_17">
     <path d="M 39.53 95.852187 
L 51.53 95.852187 
" style="fill:none;stroke:#1f77b4;stroke-linecap:square;stroke-width:1.5;"/>
    </g>
    <g id="line2d_18"/>
    <g id="text_14">
     <text style="font-family:DejaVu Sans;font-size:6px;font-stretch:normal;font-style:normal;font-weight:normal;text-anchor:start;" transform="rotate(-0, 56.33, 97.952187)" x="56.33" y="97.952187">300s post flow</text>
    </g>
   </g>
  </g>
 </g>
 <defs>
  <clipPath id="p060812a37d">
   <rect height="93.8" width="137.21" x="34.13" y="10.8"/>
  </clipPath>
 </defs>
</svg>
