<?xml version="1.0" encoding="utf-8" standalone="no"?>
<!DOCTYPE svg PUBLIC "-//W3C//DTD SVG 1.1//EN"
  "http://www.w3.org/Graphics/SVG/1.1/DTD/svg11.dtd">
<!-- Created with matplotlib (https://matplotlib.org/) -->
<svg height="129.6pt" version="1.1" viewBox="0 0 216 129.6" width="216pt" xmlns="http://www.w3.org/2000/svg" xmlns:xlink="http://www.w3.org/1999/xlink">
 <metadata>
  <rdf:RDF xmlns:cc="http://creativecommons.org/ns#" xmlns:dc="http://purl.org/dc/elements/1.1/" xmlns:rdf="http://www.w3.org/1999/02/22-rdf-syntax-ns#">
   <cc:Work>
    <dc:type rdf:resource="http://purl.org/dc/dcmitype/StillImage"/>
    <dc:date>2022-05-17T10:30:43.469024</dc:date>
    <dc:format>image/svg+xml</dc:format>
    <dc:creator>
     <cc:Agent>
      <dc:title>Matplotlib v3.3.4, https://matplotlib.org/</dc:title>
     </cc:Agent>
    </dc:creator>
   </cc:Work>
  </rdf:RDF>
 </metadata>
 <defs>
  <style type="text/css">*{stroke-linecap:butt;stroke-linejoin:round;}</style>
 </defs>
 <g id="figure_1">
  <g id="patch_1">
   <path d="M 0 129.6 
L 216 129.6 
L 216 0 
L 0 0 
z
" style="fill:none;"/>
  </g>
  <g id="axes_1">
   <g id="matplotlib.axis_1">
    <g id="ytick_1">
     <g id="line2d_1">
      <defs>
       <path d="M 0 0 
L 3.5 0 
" id="m72cdbf5f2a" style="stroke:#999999;stroke-width:0.8;"/>
      </defs>
      <g>
       <use style="fill:#999999;stroke:#999999;stroke-width:0.8;" x="164.14" xlink:href="#m72cdbf5f2a" y="97.831281"/>
      </g>
     </g>
     <g id="text_1">
      <text style="fill:#999999;font-family:DejaVu Sans;font-size:8px;font-stretch:normal;font-style:normal;font-weight:normal;text-anchor:start;" transform="rotate(-0, 171.14, 100.870656)" x="171.14" y="100.870656">0.00</text>
     </g>
    </g>
    <g id="ytick_2">
     <g id="line2d_2">
      <g>
       <use style="fill:#999999;stroke:#999999;stroke-width:0.8;" x="164.14" xlink:href="#m72cdbf5f2a" y="62.919633"/>
      </g>
     </g>
     <g id="text_2">
      <text style="fill:#999999;font-family:DejaVu Sans;font-size:8px;font-stretch:normal;font-style:normal;font-weight:normal;text-anchor:start;" transform="rotate(-0, 171.14, 65.959008)" x="171.14" y="65.959008">0.05</text>
     </g>
    </g>
    <g id="ytick_3">
     <g id="line2d_3">
      <g>
       <use style="fill:#999999;stroke:#999999;stroke-width:0.8;" x="164.14" xlink:href="#m72cdbf5f2a" y="28.007986"/>
      </g>
     </g>
     <g id="text_3">
      <text style="fill:#999999;font-family:DejaVu Sans;font-size:8px;font-stretch:normal;font-style:normal;font-weight:normal;text-anchor:start;" transform="rotate(-0, 171.14, 31.047361)" x="171.14" y="31.047361">0.10</text>
     </g>
    </g>
    <g id="text_4">
     <text style="fill:#999999;font-family:DejaVu Sans;font-size:8px;font-stretch:normal;font-style:normal;font-weight:normal;text-anchor:middle;" transform="rotate(-90, 199.03125, 59.14)" x="199.03125" y="59.14">Flow velocity (µm/s)</text>
    </g>
   </g>
   <g id="line2d_4">
    <path clip-path="url(#p6272eec037)" d="M 40.039545 97.774487 
L 41.233393 98.185251 
L 42.427241 98.584859 
L 43.621088 98.964101 
L 44.814936 99.31438 
L 46.008783 99.627994 
L 47.202631 99.898371 
L 48.396478 100.120243 
L 49.590326 100.289759 
L 50.784174 100.404522 
L 51.978021 100.463567 
L 53.171869 100.467273 
L 54.365716 100.41721 
L 55.559564 100.315957 
L 56.753411 100.166877 
L 57.947259 99.973874 
L 59.141107 99.741148 
L 60.334954 99.472951 
L 61.528802 99.173361 
L 62.722649 98.84609 
L 63.916497 98.494312 
L 65.110344 98.120533 
L 66.304192 97.726503 
L 67.498039 97.31316 
L 68.691887 96.880611 
L 69.885735 96.428145 
L 71.079582 95.954271 
L 72.27343 95.456779 
L 73.467277 94.932816 
L 74.661125 94.378972 
L 75.854972 93.791374 
L 77.04882 93.165781 
L 78.242668 92.497673 
L 79.436515 91.782351 
L 80.630363 91.015014 
L 81.82421 90.190845 
L 83.018058 89.305082 
L 84.211905 88.353093 
L 85.405753 87.33044 
L 86.599601 86.232942 
L 87.793448 85.056734 
L 88.987296 83.79833 
L 90.181143 82.454681 
L 91.374991 81.023232 
L 92.568838 79.501985 
L 93.762686 77.889561 
L 94.956534 76.185256 
L 96.150381 74.389112 
L 97.344229 72.501969 
L 98.538076 70.525534 
L 99.731924 68.462439 
L 100.925771 66.31629 
L 102.119619 64.091729 
L 103.313466 61.794472 
L 104.507314 59.431352 
L 105.701162 57.010347 
L 106.895009 54.540604 
L 108.088857 52.032446 
L 109.282704 49.497368 
L 110.476552 46.948027 
L 111.670399 44.398202 
L 112.864247 41.862758 
L 114.058095 39.357575 
L 115.251942 36.899476 
L 116.44579 34.506127 
L 117.639637 32.195929 
L 118.833485 29.987887 
L 120.027332 27.901469 
L 121.22118 25.956445 
L 122.415028 24.172716 
L 123.608875 22.570128 
L 124.802723 21.168282 
L 125.99657 19.986325 
L 127.190418 19.042743 
L 128.384265 18.35515 
L 129.578113 17.940069 
L 130.771961 17.812727 
L 131.965808 17.986842 
L 133.159656 18.474423 
L 134.353503 19.285588 
L 135.547351 20.428382 
L 136.741198 21.90862 
L 137.935046 23.729753 
L 139.128893 25.892746 
L 140.322741 28.395989 
L 141.516589 31.235229 
L 142.710436 34.403534 
L 143.904284 37.891287 
L 145.098131 41.686203 
L 146.291979 45.773386 
L 147.485826 50.135414 
L 148.679674 54.752451 
L 149.873522 59.602393 
L 151.067369 64.66104 
L 152.261217 69.902295 
L 153.455064 75.298387 
L 154.648912 80.820114 
L 155.842759 86.437109 
L 157.036607 92.118117 
L 158.230455 97.831281 
" style="fill:none;stroke:#cccccc;stroke-dasharray:5.55,2.4;stroke-dashoffset:0;stroke-width:1.5;"/>
   </g>
   <g id="patch_2">
    <path d="M 34.13 104.6 
L 34.13 13.68 
" style="fill:none;stroke:#000000;stroke-linecap:square;stroke-linejoin:miter;stroke-width:0.8;"/>
   </g>
   <g id="patch_3">
    <path d="M 164.14 104.6 
L 164.14 13.68 
" style="fill:none;stroke:#000000;stroke-linecap:square;stroke-linejoin:miter;stroke-width:0.8;"/>
   </g>
   <g id="patch_4">
    <path d="M 34.13 104.6 
L 164.14 104.6 
" style="fill:none;stroke:#000000;stroke-linecap:square;stroke-linejoin:miter;stroke-width:0.8;"/>
   </g>
   <g id="patch_5">
    <path d="M 34.13 13.68 
L 164.14 13.68 
" style="fill:none;stroke:#000000;stroke-linecap:square;stroke-linejoin:miter;stroke-width:0.8;"/>
   </g>
  </g>
  <g id="axes_2">
   <g id="matplotlib.axis_2">
    <g id="xtick_1">
     <g id="line2d_5">
      <defs>
       <path d="M 0 0 
L 0 3.5 
" id="m586bf36fec" style="stroke:#000000;stroke-width:0.8;"/>
      </defs>
      <g>
       <use style="stroke:#000000;stroke-width:0.8;" x="40.039545" xlink:href="#m586bf36fec" y="104.6"/>
      </g>
     </g>
     <g id="text_5">
      <text style="font-family:DejaVu Sans;font-size:8px;font-stretch:normal;font-style:normal;font-weight:normal;text-anchor:middle;" transform="rotate(-0, 40.039545, 117.67875)" x="40.039545" y="117.67875">A</text>
     </g>
    </g>
    <g id="xtick_2">
     <g id="line2d_6">
      <g>
       <use style="stroke:#000000;stroke-width:0.8;" x="158.230455" xlink:href="#m586bf36fec" y="104.6"/>
      </g>
     </g>
     <g id="text_6">
      <text style="font-family:DejaVu Sans;font-size:8px;font-stretch:normal;font-style:normal;font-weight:normal;text-anchor:middle;" transform="rotate(-0, 158.230455, 117.67875)" x="158.230455" y="117.67875">P</text>
     </g>
    </g>
   </g>
   <g id="matplotlib.axis_3">
    <g id="ytick_4">
     <g id="line2d_7">
      <defs>
       <path d="M 0 0 
L -3.5 0 
" id="m5f8f8c00fb" style="stroke:#000000;stroke-width:0.8;"/>
      </defs>
      <g>
       <use style="stroke:#000000;stroke-width:0.8;" x="34.13" xlink:href="#m5f8f8c00fb" y="104.6"/>
      </g>
     </g>
     <g id="text_7">
      <text style="font-family:DejaVu Sans;font-size:8px;font-stretch:normal;font-style:normal;font-weight:normal;text-anchor:end;" transform="rotate(-0, 27.13, 107.639375)" x="27.13" y="107.639375">0</text>
     </g>
    </g>
    <g id="ytick_5">
     <g id="line2d_8">
      <g>
       <use style="stroke:#000000;stroke-width:0.8;" x="34.13" xlink:href="#m5f8f8c00fb" y="74.293333"/>
      </g>
     </g>
     <g id="text_8">
      <text style="font-family:DejaVu Sans;font-size:8px;font-stretch:normal;font-style:normal;font-weight:normal;text-anchor:end;" transform="rotate(-0, 27.13, 77.332708)" x="27.13" y="77.332708">1</text>
     </g>
    </g>
    <g id="ytick_6">
     <g id="line2d_9">
      <g>
       <use style="stroke:#000000;stroke-width:0.8;" x="34.13" xlink:href="#m5f8f8c00fb" y="43.986667"/>
      </g>
     </g>
     <g id="text_9">
      <text style="font-family:DejaVu Sans;font-size:8px;font-stretch:normal;font-style:normal;font-weight:normal;text-anchor:end;" transform="rotate(-0, 27.13, 47.026042)" x="27.13" y="47.026042">2</text>
     </g>
    </g>
    <g id="ytick_7">
     <g id="line2d_10">
      <g>
       <use style="stroke:#000000;stroke-width:0.8;" x="34.13" xlink:href="#m5f8f8c00fb" y="13.68"/>
      </g>
     </g>
     <g id="text_10">
      <text style="font-family:DejaVu Sans;font-size:8px;font-stretch:normal;font-style:normal;font-weight:normal;text-anchor:end;" transform="rotate(-0, 27.13, 16.719375)" x="27.13" y="16.719375">3</text>
     </g>
    </g>
    <g id="text_11">
     <text style="font-family:DejaVu Sans;font-size:8px;font-stretch:normal;font-style:normal;font-weight:normal;text-anchor:middle;" transform="rotate(-90, 16.37625, 59.14)" x="16.37625" y="59.14">Normalised concentration</text>
    </g>
   </g>
   <g id="line2d_11">
    <path clip-path="url(#p6272eec037)" d="M 40.039545 74.721774 
L 41.233393 74.746279 
L 42.427241 74.748523 
L 43.621088 74.732879 
L 44.814936 74.70263 
L 46.008783 74.660431 
L 47.202631 74.608583 
L 48.396478 74.549186 
L 49.590326 74.484216 
L 50.784174 74.41554 
L 51.978021 74.344914 
L 53.171869 74.273949 
L 54.365716 74.204075 
L 55.559564 74.136504 
L 56.753411 74.072195 
L 57.947259 74.011833 
L 59.141107 73.955813 
L 60.334954 73.904242 
L 61.528802 73.856955 
L 62.722649 73.81353 
L 63.916497 73.773334 
L 65.110344 73.735552 
L 66.304192 73.699235 
L 67.498039 73.663346 
L 68.691887 73.626802 
L 69.885735 73.588508 
L 71.079582 73.547401 
L 72.27343 73.502468 
L 73.467277 73.452777 
L 74.661125 73.397487 
L 75.854972 73.335861 
L 77.04882 73.267278 
L 78.242668 73.191229 
L 79.436515 73.107329 
L 80.630363 73.015311 
L 81.82421 72.915033 
L 83.018058 72.806482 
L 84.211905 72.689777 
L 85.405753 72.565182 
L 86.599601 72.43311 
L 87.793448 72.294145 
L 88.987296 72.149051 
L 90.181143 71.998793 
L 91.374991 71.84455 
L 92.568838 71.687734 
L 93.762686 71.530001 
L 94.956534 71.373253 
L 96.150381 71.219644 
L 97.344229 71.071558 
L 98.538076 70.931592 
L 99.731924 70.802518 
L 100.925771 70.687225 
L 102.119619 70.588659 
L 103.313466 70.509746 
L 104.507314 70.453301 
L 105.701162 70.421943 
L 106.895009 70.418002 
L 108.088857 70.443439 
L 109.282704 70.499766 
L 110.476552 70.587998 
L 111.670399 70.708609 
L 112.864247 70.861522 
L 114.058095 71.046112 
L 115.251942 71.261234 
L 116.44579 71.505271 
L 117.639637 71.776189 
L 118.833485 72.071611 
L 120.027332 72.388888 
L 121.22118 72.725179 
L 122.415028 73.077522 
L 123.608875 73.442904 
L 124.802723 73.818321 
L 125.99657 74.20083 
L 127.190418 74.58759 
L 128.384265 74.975899 
L 129.578113 75.363214 
L 130.771961 75.747171 
L 131.965808 76.125591 
L 133.159656 76.496483 
L 134.353503 76.858042 
L 135.547351 77.208642 
L 136.741198 77.546828 
L 137.935046 77.871294 
L 139.128893 78.180878 
L 140.322741 78.47453 
L 141.516589 78.751299 
L 142.710436 79.010296 
L 143.904284 79.250659 
L 145.098131 79.471509 
L 146.291979 79.671873 
L 147.485826 79.850594 
L 148.679674 80.006171 
L 149.873522 80.136528 
L 151.067369 80.238625 
L 152.261217 80.307832 
L 153.455064 80.336847 
L 154.648912 80.313852 
L 155.842759 80.219237 
L 157.036607 80.019712 
L 158.230455 79.657477 
" style="fill:none;stroke:#ff7f0e;stroke-linecap:square;stroke-width:1.5;"/>
   </g>
   <g id="line2d_12">
    <path clip-path="url(#p6272eec037)" d="M 40.039545 74.293333 
L 41.233393 74.293333 
L 42.427241 74.293333 
L 43.621088 74.293333 
L 44.814936 74.293333 
L 46.008783 74.293333 
L 47.202631 74.293333 
L 48.396478 74.293333 
L 49.590326 74.293333 
L 50.784174 74.293333 
L 51.978021 74.293333 
L 53.171869 74.293333 
L 54.365716 74.293333 
L 55.559564 74.293333 
L 56.753411 74.293333 
L 57.947259 74.293333 
L 59.141107 74.293333 
L 60.334954 74.293333 
L 61.528802 74.293333 
L 62.722649 74.293333 
L 63.916497 74.293333 
L 65.110344 74.293333 
L 66.304192 74.293333 
L 67.498039 74.293333 
L 68.691887 74.293333 
L 69.885735 74.293333 
L 71.079582 74.293333 
L 72.27343 74.293333 
L 73.467277 74.293333 
L 74.661125 74.293333 
L 75.854972 74.293333 
L 77.04882 74.293333 
L 78.242668 74.293333 
L 79.436515 74.293333 
L 80.630363 74.293333 
L 81.82421 74.293333 
L 83.018058 74.293333 
L 84.211905 74.293333 
L 85.405753 74.293333 
L 86.599601 74.293333 
L 87.793448 74.293333 
L 88.987296 74.293333 
L 90.181143 74.293333 
L 91.374991 74.293333 
L 92.568838 74.293333 
L 93.762686 74.293333 
L 94.956534 74.293333 
L 96.150381 74.293333 
L 97.344229 74.293333 
L 98.538076 74.293333 
L 99.731924 74.293333 
L 100.925771 74.293333 
L 102.119619 74.293333 
L 103.313466 74.293333 
L 104.507314 74.293333 
L 105.701162 74.293333 
L 106.895009 74.293333 
L 108.088857 74.293333 
L 109.282704 74.293333 
L 110.476552 74.293333 
L 111.670399 74.293333 
L 112.864247 74.293333 
L 114.058095 74.293333 
L 115.251942 74.293333 
L 116.44579 74.293333 
L 117.639637 74.293333 
L 118.833485 74.293333 
L 120.027332 74.293333 
L 121.22118 74.293333 
L 122.415028 74.293333 
L 123.608875 74.293333 
L 124.802723 74.293333 
L 125.99657 74.293333 
L 127.190418 74.293334 
L 128.384265 74.293334 
L 129.578113 74.293334 
L 130.771961 74.293334 
L 131.965808 74.293334 
L 133.159656 74.293334 
L 134.353503 74.293334 
L 135.547351 74.293334 
L 136.741198 74.293334 
L 137.935046 74.293334 
L 139.128893 74.293334 
L 140.322741 74.293334 
L 141.516589 74.293334 
L 142.710436 74.293334 
L 143.904284 74.293334 
L 145.098131 74.293334 
L 146.291979 74.293335 
L 147.485826 74.293335 
L 148.679674 74.293335 
L 149.873522 74.293335 
L 151.067369 74.293335 
L 152.261217 74.293335 
L 153.455064 74.293335 
L 154.648912 74.293335 
L 155.842759 74.293335 
L 157.036607 74.293335 
L 158.230455 74.293335 
" style="fill:none;stroke:#1f77b4;stroke-linecap:square;stroke-width:1.5;"/>
   </g>
   <g id="patch_6">
    <path d="M 34.13 104.6 
L 34.13 13.68 
" style="fill:none;stroke:#000000;stroke-linecap:square;stroke-linejoin:miter;stroke-width:0.8;"/>
   </g>
   <g id="patch_7">
    <path d="M 164.14 104.6 
L 164.14 13.68 
" style="fill:none;stroke:#999999;stroke-linecap:square;stroke-linejoin:miter;stroke-width:0.8;"/>
   </g>
   <g id="patch_8">
    <path d="M 34.13 104.6 
L 164.14 104.6 
" style="fill:none;stroke:#000000;stroke-linecap:square;stroke-linejoin:miter;stroke-width:0.8;"/>
   </g>
   <g id="patch_9">
    <path d="M 34.13 13.68 
L 164.14 13.68 
" style="fill:none;stroke:#000000;stroke-linecap:square;stroke-linejoin:miter;stroke-width:0.8;"/>
   </g>
   <g id="legend_1">
    <g id="line2d_13">
     <path d="M 39.53 87.045312 
L 51.53 87.045312 
" style="fill:none;stroke:#ff7f0e;stroke-linecap:square;stroke-width:1.5;"/>
    </g>
    <g id="line2d_14"/>
    <g id="text_12">
     <text style="font-family:DejaVu Sans;font-size:6px;font-stretch:normal;font-style:normal;font-weight:normal;text-anchor:start;" transform="rotate(-0, 56.33, 89.145312)" x="56.33" y="89.145312">End of flow</text>
    </g>
    <g id="line2d_15">
     <path d="M 39.53 95.852187 
L 51.53 95.852187 
" style="fill:none;stroke:#1f77b4;stroke-linecap:square;stroke-width:1.5;"/>
    </g>
    <g id="line2d_16"/>
    <g id="text_13">
     <text style="font-family:DejaVu Sans;font-size:6px;font-stretch:normal;font-style:normal;font-weight:normal;text-anchor:start;" transform="rotate(-0, 56.33, 97.952187)" x="56.33" y="97.952187">300s post flow</text>
    </g>
   </g>
  </g>
 </g>
 <defs>
  <clipPath id="p6272eec037">
   <rect height="90.92" width="130.01" x="34.13" y="13.68"/>
  </clipPath>
 </defs>
</svg>
