<?xml version="1.0" encoding="utf-8" standalone="no"?>
<!DOCTYPE svg PUBLIC "-//W3C//DTD SVG 1.1//EN"
  "http://www.w3.org/Graphics/SVG/1.1/DTD/svg11.dtd">
<!-- Created with matplotlib (https://matplotlib.org/) -->
<svg height="129.6pt" version="1.1" viewBox="0 0 180 129.6" width="180pt" xmlns="http://www.w3.org/2000/svg" xmlns:xlink="http://www.w3.org/1999/xlink">
 <metadata>
  <rdf:RDF xmlns:cc="http://creativecommons.org/ns#" xmlns:dc="http://purl.org/dc/elements/1.1/" xmlns:rdf="http://www.w3.org/1999/02/22-rdf-syntax-ns#">
   <cc:Work>
    <dc:type rdf:resource="http://purl.org/dc/dcmitype/StillImage"/>
    <dc:date>2023-01-20T10:48:20.859995</dc:date>
    <dc:format>image/svg+xml</dc:format>
    <dc:creator>
     <cc:Agent>
      <dc:title>Matplotlib v3.3.4, https://matplotlib.org/</dc:title>
     </cc:Agent>
    </dc:creator>
   </cc:Work>
  </rdf:RDF>
 </metadata>
 <defs>
  <style type="text/css">*{stroke-linecap:butt;stroke-linejoin:round;}</style>
 </defs>
 <g id="figure_1">
  <g id="patch_1">
   <path d="M 0 129.6 
L 180 129.6 
L 180 0 
L 0 0 
z
" style="fill:none;"/>
  </g>
  <g id="axes_1">
   <g id="patch_2">
    <path d="M 34.13 104.6 
L 169.2 104.6 
L 169.2 13.68 
L 34.13 13.68 
z
" style="fill:none;"/>
   </g>
   <g id="matplotlib.axis_1">
    <g id="xtick_1">
     <g id="line2d_1">
      <defs>
       <path d="M 0 0 
L 0 3.5 
" id="m93e489a940" style="stroke:#000000;stroke-width:0.8;"/>
      </defs>
      <g>
       <use style="stroke:#000000;stroke-width:0.8;" x="40.269545" xlink:href="#m93e489a940" y="104.6"/>
      </g>
     </g>
     <g id="text_1">
      <text style="font-family:DejaVu Sans;font-size:8px;font-stretch:normal;font-style:normal;font-weight:normal;text-anchor:middle;" transform="rotate(-0, 40.269545, 117.67875)" x="40.269545" y="117.67875">A</text>
     </g>
    </g>
    <g id="xtick_2">
     <g id="line2d_2">
      <g>
       <use style="stroke:#000000;stroke-width:0.8;" x="163.060455" xlink:href="#m93e489a940" y="104.6"/>
      </g>
     </g>
     <g id="text_2">
      <text style="font-family:DejaVu Sans;font-size:8px;font-stretch:normal;font-style:normal;font-weight:normal;text-anchor:middle;" transform="rotate(-0, 163.060455, 117.67875)" x="163.060455" y="117.67875">P</text>
     </g>
    </g>
   </g>
   <g id="matplotlib.axis_2">
    <g id="ytick_1">
     <g id="line2d_3">
      <defs>
       <path d="M 0 0 
L -3.5 0 
" id="m62de83ac81" style="stroke:#000000;stroke-width:0.8;"/>
      </defs>
      <g>
       <use style="stroke:#000000;stroke-width:0.8;" x="34.13" xlink:href="#m62de83ac81" y="101.390164"/>
      </g>
     </g>
     <g id="text_3">
      <text style="font-family:DejaVu Sans;font-size:8px;font-stretch:normal;font-style:normal;font-weight:normal;text-anchor:end;" transform="rotate(-0, 27.13, 104.429539)" x="27.13" y="104.429539">0</text>
     </g>
    </g>
    <g id="ytick_2">
     <g id="line2d_4">
      <g>
       <use style="stroke:#000000;stroke-width:0.8;" x="34.13" xlink:href="#m62de83ac81" y="72.153443"/>
      </g>
     </g>
     <g id="text_4">
      <text style="font-family:DejaVu Sans;font-size:8px;font-stretch:normal;font-style:normal;font-weight:normal;text-anchor:end;" transform="rotate(-0, 27.13, 75.192818)" x="27.13" y="75.192818">1</text>
     </g>
    </g>
    <g id="ytick_3">
     <g id="line2d_5">
      <g>
       <use style="stroke:#000000;stroke-width:0.8;" x="34.13" xlink:href="#m62de83ac81" y="42.916721"/>
      </g>
     </g>
     <g id="text_5">
      <text style="font-family:DejaVu Sans;font-size:8px;font-stretch:normal;font-style:normal;font-weight:normal;text-anchor:end;" transform="rotate(-0, 27.13, 45.956096)" x="27.13" y="45.956096">2</text>
     </g>
    </g>
    <g id="ytick_4">
     <g id="line2d_6">
      <g>
       <use style="stroke:#000000;stroke-width:0.8;" x="34.13" xlink:href="#m62de83ac81" y="13.68"/>
      </g>
     </g>
     <g id="text_6">
      <text style="font-family:DejaVu Sans;font-size:8px;font-stretch:normal;font-style:normal;font-weight:normal;text-anchor:end;" transform="rotate(-0, 27.13, 16.719375)" x="27.13" y="16.719375">3</text>
     </g>
    </g>
    <g id="text_7">
     <text style="font-family:DejaVu Sans;font-size:8px;font-stretch:normal;font-style:normal;font-weight:normal;text-anchor:middle;" transform="rotate(-90, 16.37625, 59.14)" x="16.37625" y="59.14">Normalised concentration</text>
    </g>
   </g>
   <g id="line2d_7">
    <path clip-path="url(#pa81c243da6)" d="M 40.269545 74.593505 
L 41.509858 74.539132 
L 42.75017 74.383692 
L 43.990482 74.127632 
L 45.230794 73.771491 
L 46.471107 73.315998 
L 47.711419 72.762097 
L 48.951731 72.110956 
L 50.192043 71.363957 
L 51.432355 70.522664 
L 52.672668 69.588779 
L 53.91298 68.564064 
L 55.153292 67.450263 
L 56.393604 66.249008 
L 57.633916 64.961728 
L 58.874229 63.589588 
L 60.114541 62.133457 
L 61.354853 60.593944 
L 62.595165 58.971493 
L 63.835478 57.266587 
L 65.07579 55.480029 
L 66.316102 53.613346 
L 67.556414 51.669281 
L 68.796726 49.652379 
L 70.037039 47.569653 
L 71.277351 45.43129 
L 72.517663 43.25138 
L 73.757975 41.048613 
L 74.998287 38.846891 
L 76.2386 36.675815 
L 77.478912 34.570943 
L 78.719224 32.573781 
L 79.959536 30.731408 
L 81.199848 29.095679 
L 82.440161 27.72194 
L 83.680473 26.667231 
L 84.920785 25.987983 
L 86.161097 25.737248 
L 87.40141 25.961588 
L 88.641722 26.697779 
L 89.882034 27.969576 
L 91.122346 29.784808 
L 92.362658 32.133131 
L 93.602971 34.984722 
L 94.843283 38.290207 
L 96.083595 41.981973 
L 97.323907 45.976915 
L 98.564219 50.180515 
L 99.804532 54.49196 
L 101.044844 58.809876 
L 102.285156 63.038133 
L 103.525468 67.09117 
L 104.765781 70.898288 
L 106.006093 74.406523 
L 107.246405 77.581877 
L 108.486717 80.408897 
L 109.727029 82.888815 
L 110.967342 85.036605 
L 112.207654 86.877436 
L 113.447966 88.442966 
L 114.688278 89.767914 
L 115.92859 90.887198 
L 117.168903 91.833792 
L 118.409215 92.63735 
L 119.649527 93.323506 
L 120.889839 93.913724 
L 122.130152 94.425528 
L 123.370464 94.872959 
L 124.610776 95.267127 
L 125.851088 95.616771 
L 127.0914 95.928765 
L 128.331713 96.208543 
L 129.572025 96.460446 
L 130.812337 96.687982 
L 132.052649 96.894026 
L 133.292961 97.080969 
L 134.533274 97.250821 
L 135.773586 97.40529 
L 137.013898 97.545842 
L 138.25421 97.673742 
L 139.494522 97.790086 
L 140.734835 97.895827 
L 141.975147 97.991794 
L 143.215459 98.078709 
L 144.455771 98.157194 
L 145.696084 98.227783 
L 146.936396 98.290931 
L 148.176708 98.347013 
L 149.41702 98.396329 
L 150.657332 98.439102 
L 151.897645 98.475473 
L 153.137957 98.505492 
L 154.378269 98.529106 
L 155.618581 98.546133 
L 156.858893 98.556228 
L 158.099206 98.55883 
L 159.339518 98.553069 
L 160.57983 98.537612 
L 161.820142 98.510268 
L 163.060455 98.466577 
" style="fill:none;stroke:#1f77b4;stroke-linecap:square;stroke-width:1.5;"/>
   </g>
   <g id="line2d_8">
    <path clip-path="url(#pa81c243da6)" d="M 40.269545 100.837709 
L 41.509858 100.83788 
L 42.75017 100.837893 
L 43.990482 100.837867 
L 45.230794 100.837825 
L 46.471107 100.837773 
L 47.711419 100.837713 
L 48.951731 100.837647 
L 50.192043 100.837577 
L 51.432355 100.837505 
L 52.672668 100.837432 
L 53.91298 100.837361 
L 55.153292 100.837292 
L 56.393604 100.837227 
L 57.633916 100.837166 
L 58.874229 100.837111 
L 60.114541 100.837061 
L 61.354853 100.837017 
L 62.595165 100.836978 
L 63.835478 100.836943 
L 65.07579 100.836912 
L 66.316102 100.836884 
L 67.556414 100.836857 
L 68.796726 100.836831 
L 70.037039 100.836805 
L 71.277351 100.836778 
L 72.517663 100.836747 
L 73.757975 100.836714 
L 74.998287 100.836677 
L 76.2386 100.836634 
L 77.478912 100.836587 
L 78.719224 100.836533 
L 79.959536 100.836473 
L 81.199848 100.836407 
L 82.440161 100.836335 
L 83.680473 100.836257 
L 84.920785 100.836172 
L 86.161097 100.836081 
L 87.40141 100.835984 
L 88.641722 100.835882 
L 89.882034 100.835775 
L 91.122346 100.835663 
L 92.362658 100.835548 
L 93.602971 100.83543 
L 94.843283 100.835309 
L 96.083595 100.835187 
L 97.323907 100.835065 
L 98.564219 100.834943 
L 99.804532 100.834823 
L 101.044844 100.834706 
L 102.285156 100.834593 
L 103.525468 100.834486 
L 104.765781 100.834385 
L 106.006093 100.834294 
L 107.246405 100.834212 
L 108.486717 100.834142 
L 109.727029 100.834086 
L 110.967342 100.834044 
L 112.207654 100.834018 
L 113.447966 100.834011 
L 114.688278 100.834024 
L 115.92859 100.834057 
L 117.168903 100.834112 
L 118.409215 100.834191 
L 119.649527 100.834294 
L 120.889839 100.834423 
L 122.130152 100.834577 
L 123.370464 100.834757 
L 124.610776 100.834964 
L 125.851088 100.835198 
L 127.0914 100.835457 
L 128.331713 100.835741 
L 129.572025 100.83605 
L 130.812337 100.836382 
L 132.052649 100.836736 
L 133.292961 100.83711 
L 134.533274 100.837501 
L 135.773586 100.837909 
L 137.013898 100.838329 
L 138.25421 100.838759 
L 139.494522 100.839197 
L 140.734835 100.83964 
L 141.975147 100.840083 
L 143.215459 100.840525 
L 144.455771 100.840961 
L 145.696084 100.841388 
L 146.936396 100.841804 
L 148.176708 100.842204 
L 149.41702 100.842585 
L 150.657332 100.842945 
L 151.897645 100.84328 
L 153.137957 100.843588 
L 154.378269 100.843866 
L 155.618581 100.844111 
L 156.858893 100.844322 
L 158.099206 100.844495 
L 159.339518 100.844616 
L 160.57983 100.844631 
L 161.820142 100.844238 
L 163.060455 100.841792 
" style="fill:none;stroke:#ff7f0e;stroke-dasharray:5.55,2.4;stroke-dashoffset:0;stroke-width:1.5;"/>
   </g>
   <g id="line2d_9">
    <path clip-path="url(#pa81c243da6)" d="M 40.269545 75.145961 
L 41.509858 75.091416 
L 42.75017 74.935963 
L 43.990482 74.679929 
L 45.230794 74.32383 
L 46.471107 73.868389 
L 47.711419 73.314547 
L 48.951731 72.663472 
L 50.192043 71.916543 
L 51.432355 71.075323 
L 52.672668 70.14151 
L 53.91298 69.116867 
L 55.153292 68.003136 
L 56.393604 66.801945 
L 57.633916 65.514726 
L 58.874229 64.142641 
L 60.114541 62.68656 
L 61.354853 61.147091 
L 62.595165 59.52468 
L 63.835478 57.819808 
L 65.07579 56.033281 
L 66.316102 54.166627 
L 67.556414 52.222588 
L 68.796726 50.205711 
L 70.037039 48.123011 
L 71.277351 45.984676 
L 72.517663 43.804797 
L 73.757975 41.602062 
L 74.998287 39.400379 
L 76.2386 37.229345 
L 77.478912 35.12452 
L 78.719224 33.127412 
L 79.959536 31.285099 
L 81.199848 29.649436 
L 82.440161 28.275768 
L 83.680473 27.221138 
L 84.920785 26.541975 
L 86.161097 26.291331 
L 87.40141 26.515768 
L 88.641722 27.252061 
L 89.882034 28.523965 
L 91.122346 30.339309 
L 92.362658 32.687747 
L 93.602971 35.539456 
L 94.843283 38.845062 
L 96.083595 42.536949 
L 97.323907 46.532014 
L 98.564219 50.735736 
L 99.804532 55.047301 
L 101.044844 59.365334 
L 102.285156 63.593704 
L 103.525468 67.646849 
L 104.765781 71.454067 
L 106.006093 74.962393 
L 107.246405 78.137829 
L 108.486717 80.964919 
L 109.727029 83.444893 
L 110.967342 85.592726 
L 112.207654 87.433582 
L 113.447966 88.999119 
L 114.688278 90.324055 
L 115.92859 91.443305 
L 117.168903 92.389844 
L 118.409215 93.193323 
L 119.649527 93.879376 
L 120.889839 94.469465 
L 122.130152 94.981115 
L 123.370464 95.428365 
L 124.610776 95.822326 
L 125.851088 96.171737 
L 127.0914 96.483472 
L 128.331713 96.762966 
L 129.572025 97.01456 
L 130.812337 97.241763 
L 132.052649 97.447454 
L 133.292961 97.634023 
L 134.533274 97.803483 
L 135.773586 97.957545 
L 137.013898 98.097677 
L 138.25421 98.225146 
L 139.494522 98.341052 
L 140.734835 98.446351 
L 141.975147 98.541875 
L 143.215459 98.628348 
L 144.455771 98.706396 
L 145.696084 98.776559 
L 146.936396 98.839291 
L 148.176708 98.894974 
L 149.41702 98.943908 
L 150.657332 98.986321 
L 151.897645 99.022357 
L 153.137957 99.052068 
L 154.378269 99.075404 
L 155.618581 99.092186 
L 156.858893 99.10207 
L 158.099206 99.104499 
L 159.339518 99.098616 
L 160.57983 99.083145 
L 161.820142 99.056194 
L 163.060455 99.014949 
" style="fill:none;stroke:#ff7f0e;stroke-linecap:square;stroke-width:1.5;"/>
   </g>
   <g id="patch_3">
    <path d="M 34.13 104.6 
L 34.13 13.68 
" style="fill:none;stroke:#000000;stroke-linecap:square;stroke-linejoin:miter;stroke-width:0.8;"/>
   </g>
   <g id="patch_4">
    <path d="M 169.2 104.6 
L 169.2 13.68 
" style="fill:none;stroke:#000000;stroke-linecap:square;stroke-linejoin:miter;stroke-width:0.8;"/>
   </g>
   <g id="patch_5">
    <path d="M 34.13 104.6 
L 169.2 104.6 
" style="fill:none;stroke:#000000;stroke-linecap:square;stroke-linejoin:miter;stroke-width:0.8;"/>
   </g>
   <g id="patch_6">
    <path d="M 34.13 13.68 
L 169.2 13.68 
" style="fill:none;stroke:#000000;stroke-linecap:square;stroke-linejoin:miter;stroke-width:0.8;"/>
   </g>
   <g id="legend_1">
    <g id="line2d_10">
     <path d="M 106.947031 22.848906 
L 120.947031 22.848906 
" style="fill:none;stroke:#1f77b4;stroke-linecap:square;stroke-width:1.5;"/>
    </g>
    <g id="line2d_11"/>
    <g id="text_8">
     <text style="font-family:DejaVu Sans;font-size:7px;font-stretch:normal;font-style:normal;font-weight:normal;text-anchor:start;" transform="rotate(-0, 126.547031, 25.298906)" x="126.547031" y="25.298906">Total</text>
    </g>
    <g id="line2d_12">
     <path d="M 106.947031 33.123594 
L 120.947031 33.123594 
" style="fill:none;stroke:#ff7f0e;stroke-dasharray:5.55,2.4;stroke-dashoffset:0;stroke-width:1.5;"/>
    </g>
    <g id="line2d_13"/>
    <g id="text_9">
     <text style="font-family:DejaVu Sans;font-size:7px;font-stretch:normal;font-style:normal;font-weight:normal;text-anchor:start;" transform="rotate(-0, 126.547031, 35.573594)" x="126.547031" y="35.573594">Fast state</text>
    </g>
    <g id="line2d_14">
     <path d="M 106.947031 43.398281 
L 120.947031 43.398281 
" style="fill:none;stroke:#ff7f0e;stroke-linecap:square;stroke-width:1.5;"/>
    </g>
    <g id="line2d_15"/>
    <g id="text_10">
     <text style="font-family:DejaVu Sans;font-size:7px;font-stretch:normal;font-style:normal;font-weight:normal;text-anchor:start;" transform="rotate(-0, 126.547031, 45.848281)" x="126.547031" y="45.848281">Slow state</text>
    </g>
   </g>
  </g>
 </g>
 <defs>
  <clipPath id="pa81c243da6">
   <rect height="90.92" width="135.07" x="34.13" y="13.68"/>
  </clipPath>
 </defs>
</svg>
