<?xml version="1.0" encoding="utf-8" standalone="no"?>
<!DOCTYPE svg PUBLIC "-//W3C//DTD SVG 1.1//EN"
  "http://www.w3.org/Graphics/SVG/1.1/DTD/svg11.dtd">
<!-- Created with matplotlib (https://matplotlib.org/) -->
<svg height="129.6pt" version="1.1" viewBox="0 0 180 129.6" width="180pt" xmlns="http://www.w3.org/2000/svg" xmlns:xlink="http://www.w3.org/1999/xlink">
 <metadata>
  <rdf:RDF xmlns:cc="http://creativecommons.org/ns#" xmlns:dc="http://purl.org/dc/elements/1.1/" xmlns:rdf="http://www.w3.org/1999/02/22-rdf-syntax-ns#">
   <cc:Work>
    <dc:type rdf:resource="http://purl.org/dc/dcmitype/StillImage"/>
    <dc:date>2023-01-20T10:48:21.370714</dc:date>
    <dc:format>image/svg+xml</dc:format>
    <dc:creator>
     <cc:Agent>
      <dc:title>Matplotlib v3.3.4, https://matplotlib.org/</dc:title>
     </cc:Agent>
    </dc:creator>
   </cc:Work>
  </rdf:RDF>
 </metadata>
 <defs>
  <style type="text/css">*{stroke-linecap:butt;stroke-linejoin:round;}</style>
 </defs>
 <g id="figure_1">
  <g id="patch_1">
   <path d="M 0 129.6 
L 180 129.6 
L 180 0 
L 0 0 
z
" style="fill:none;"/>
  </g>
  <g id="axes_1">
   <g id="patch_2">
    <path d="M 34.13 104.6 
L 169.2 104.6 
L 169.2 13.68 
L 34.13 13.68 
z
" style="fill:none;"/>
   </g>
   <g id="PolyCollection_1">
    <defs>
     <path d="M 40.269545 -58.415712 
L 40.269545 -54.463564 
L 41.509858 -54.517706 
L 42.75017 -54.677934 
L 43.990482 -54.943688 
L 45.230794 -55.314119 
L 46.471107 -55.788072 
L 47.711419 -56.364084 
L 48.951731 -57.040394 
L 50.192043 -57.814968 
L 51.432355 -58.68555 
L 52.672668 -59.64974 
L 53.91298 -60.705092 
L 55.153292 -61.849233 
L 56.393604 -63.079991 
L 57.633916 -64.395519 
L 58.874229 -65.794395 
L 60.114541 -67.275683 
L 61.354853 -68.83893 
L 62.595165 -70.484082 
L 63.835478 -72.211311 
L 65.07579 -74.020723 
L 66.316102 -75.911968 
L 67.556414 -77.883736 
L 68.796726 -79.933147 
L 70.037039 -82.055065 
L 71.277351 -84.241352 
L 72.517663 -86.480095 
L 73.757975 -88.75484 
L 74.998287 -91.043903 
L 76.2386 -93.319798 
L 77.478912 -95.548852 
L 78.719224 -97.691092 
L 79.959536 -99.700465 
L 81.199848 -101.525479 
L 82.440161 -103.110319 
L 83.680473 -104.396479 
L 84.920785 -105.324929 
L 86.161097 -105.838776 
L 87.40141 -105.886328 
L 88.641722 -105.424417 
L 89.882034 -104.421754 
L 91.122346 -102.862057 
L 92.362658 -100.746639 
L 93.602971 -98.09614 
L 94.843283 -94.951122 
L 96.083595 -91.371312 
L 97.323907 -87.433409 
L 98.564219 -83.227503 
L 99.804532 -78.852345 
L 101.044844 -74.409828 
L 102.285156 -69.999201 
L 103.525468 -65.711558 
L 104.765781 -61.625156 
L 106.006093 -57.801994 
L 107.246405 -54.28594 
L 108.486717 -51.102478 
L 109.727029 -48.25994 
L 110.967342 -45.751923 
L 112.207654 -43.560474 
L 113.447966 -41.659582 
L 114.688278 -40.018564 
L 115.92859 -38.605031 
L 117.168903 -37.38721 
L 118.409215 -36.335585 
L 119.649527 -35.423858 
L 120.889839 -34.629354 
L 122.130152 -33.933012 
L 123.370464 -33.319104 
L 124.610776 -32.774808 
L 125.851088 -32.289737 
L 127.0914 -31.855484 
L 128.331713 -31.465219 
L 129.572025 -31.113354 
L 130.812337 -30.795273 
L 132.052649 -30.507129 
L 133.292961 -30.245678 
L 134.533274 -30.008162 
L 135.773586 -29.792217 
L 137.013898 -29.595804 
L 138.25421 -29.417154 
L 139.494522 -29.25473 
L 140.734835 -29.107191 
L 141.975147 -28.973369 
L 143.215459 -28.852247 
L 144.455771 -28.742944 
L 145.696084 -28.644703 
L 146.936396 -28.556881 
L 148.176708 -28.478943 
L 149.41702 -28.410463 
L 150.657332 -28.351121 
L 151.897645 -28.300714 
L 153.137957 -28.259163 
L 154.378269 -28.226537 
L 155.618581 -28.203085 
L 156.858893 -28.18928 
L 158.099206 -28.185898 
L 159.339518 -28.194128 
L 160.57983 -28.215743 
L 161.820142 -28.25337 
L 163.060455 -28.310909 
L 163.060455 -32.233836 
L 163.060455 -32.233836 
L 161.820142 -32.158795 
L 160.57983 -32.11836 
L 159.339518 -32.096848 
L 158.099206 -32.089489 
L 156.858893 -32.094104 
L 155.618581 -32.109419 
L 154.378269 -32.134629 
L 153.137957 -32.169244 
L 151.897645 -32.212997 
L 150.657332 -32.265803 
L 149.41702 -32.327718 
L 148.176708 -32.398928 
L 146.936396 -32.479727 
L 145.696084 -32.570522 
L 144.455771 -32.671821 
L 143.215459 -32.784245 
L 141.975147 -32.908526 
L 140.734835 -33.045522 
L 139.494522 -33.196227 
L 138.25421 -33.361785 
L 137.013898 -33.543516 
L 135.773586 -33.742936 
L 134.533274 -33.961794 
L 133.292961 -34.202112 
L 132.052649 -34.466237 
L 130.812337 -34.756913 
L 129.572025 -35.077369 
L 128.331713 -35.431445 
L 127.0914 -35.823746 
L 125.851088 -36.259854 
L 124.610776 -36.746594 
L 123.370464 -37.292371 
L 122.130152 -37.907571 
L 120.889839 -38.605017 
L 119.649527 -39.40044 
L 118.409215 -40.312906 
L 117.168903 -41.365095 
L 115.92859 -42.583312 
L 114.688278 -43.997083 
L 113.447966 -45.638188 
L 112.207654 -47.539029 
L 110.967342 -49.730297 
L 109.727029 -52.238015 
L 108.486717 -55.080148 
L 107.246405 -58.26311 
L 106.006093 -61.77858 
L 104.765781 -65.601085 
L 103.525468 -69.68677 
L 102.285156 -73.973645 
L 101.044844 -78.383464 
L 99.804532 -82.825143 
L 98.564219 -87.199442 
L 97.323907 -91.404476 
L 96.083595 -95.341504 
L 94.843283 -98.920441 
L 93.602971 -102.064596 
L 92.362658 -104.714249 
L 91.122346 -106.828842 
L 89.882034 -108.387742 
L 88.641722 -109.38964 
L 87.40141 -109.85082 
L 86.161097 -109.802575 
L 84.920785 -109.288077 
L 83.680473 -108.359019 
L 82.440161 -107.072297 
L 81.199848 -105.48694 
L 79.959536 -103.661453 
L 78.719224 -101.651654 
L 77.478912 -99.509032 
L 76.2386 -97.279636 
L 74.998287 -95.003438 
L 73.757975 -92.714106 
L 72.517663 -90.439122 
L 71.277351 -88.200165 
L 70.037039 -86.013679 
L 68.796726 -83.891574 
L 67.556414 -81.841979 
L 66.316102 -79.870021 
L 65.07579 -77.978573 
L 63.835478 -76.16894 
L 62.595165 -74.441463 
L 61.354853 -72.796029 
L 60.114541 -71.232465 
L 58.874229 -69.750821 
L 57.633916 -68.35155 
L 56.393604 -67.035589 
L 55.153292 -65.804365 
L 53.91298 -64.659731 
L 52.672668 -63.603867 
L 51.432355 -62.639156 
L 50.192043 -61.768056 
L 48.951731 -60.992981 
L 47.711419 -60.3162 
L 46.471107 -59.739759 
L 45.230794 -59.265435 
L 43.990482 -58.894706 
L 42.75017 -58.628765 
L 41.509858 -58.468628 
L 40.269545 -58.415712 
z
" id="m35ef784922"/>
    </defs>
    <g clip-path="url(#pd836794a69)">
     <use style="fill:#1f77b4;" x="0" xlink:href="#m35ef784922" y="129.6"/>
    </g>
   </g>
   <g id="PolyCollection_2">
    <defs>
     <path d="M 40.269545 -54.463564 
L 40.269545 -25 
L 41.509858 -25 
L 42.75017 -25 
L 43.990482 -25 
L 45.230794 -25 
L 46.471107 -25 
L 47.711419 -25 
L 48.951731 -25 
L 50.192043 -25 
L 51.432355 -25 
L 52.672668 -25 
L 53.91298 -25 
L 55.153292 -25 
L 56.393604 -25 
L 57.633916 -25 
L 58.874229 -25 
L 60.114541 -25 
L 61.354853 -25 
L 62.595165 -25 
L 63.835478 -25 
L 65.07579 -25 
L 66.316102 -25 
L 67.556414 -25 
L 68.796726 -25 
L 70.037039 -25 
L 71.277351 -25 
L 72.517663 -25 
L 73.757975 -25 
L 74.998287 -25 
L 76.2386 -25 
L 77.478912 -25 
L 78.719224 -25 
L 79.959536 -25 
L 81.199848 -25 
L 82.440161 -25 
L 83.680473 -25 
L 84.920785 -25 
L 86.161097 -25 
L 87.40141 -25 
L 88.641722 -25 
L 89.882034 -25 
L 91.122346 -25 
L 92.362658 -25 
L 93.602971 -25 
L 94.843283 -25 
L 96.083595 -25 
L 97.323907 -25 
L 98.564219 -25 
L 99.804532 -25 
L 101.044844 -25 
L 102.285156 -25 
L 103.525468 -25 
L 104.765781 -25 
L 106.006093 -25 
L 107.246405 -25 
L 108.486717 -25 
L 109.727029 -25 
L 110.967342 -25 
L 112.207654 -25 
L 113.447966 -25 
L 114.688278 -25 
L 115.92859 -25 
L 117.168903 -25 
L 118.409215 -25 
L 119.649527 -25 
L 120.889839 -25 
L 122.130152 -25 
L 123.370464 -25 
L 124.610776 -25 
L 125.851088 -25 
L 127.0914 -25 
L 128.331713 -25 
L 129.572025 -25 
L 130.812337 -25 
L 132.052649 -25 
L 133.292961 -25 
L 134.533274 -25 
L 135.773586 -25 
L 137.013898 -25 
L 138.25421 -25 
L 139.494522 -25 
L 140.734835 -25 
L 141.975147 -25 
L 143.215459 -25 
L 144.455771 -25 
L 145.696084 -25 
L 146.936396 -25 
L 148.176708 -25 
L 149.41702 -25 
L 150.657332 -25 
L 151.897645 -25 
L 153.137957 -25 
L 154.378269 -25 
L 155.618581 -25 
L 156.858893 -25 
L 158.099206 -25 
L 159.339518 -25 
L 160.57983 -25 
L 161.820142 -25 
L 163.060455 -25 
L 163.060455 -28.310909 
L 163.060455 -28.310909 
L 161.820142 -28.25337 
L 160.57983 -28.215743 
L 159.339518 -28.194128 
L 158.099206 -28.185898 
L 156.858893 -28.18928 
L 155.618581 -28.203085 
L 154.378269 -28.226537 
L 153.137957 -28.259163 
L 151.897645 -28.300714 
L 150.657332 -28.351121 
L 149.41702 -28.410463 
L 148.176708 -28.478943 
L 146.936396 -28.556881 
L 145.696084 -28.644703 
L 144.455771 -28.742944 
L 143.215459 -28.852247 
L 141.975147 -28.973369 
L 140.734835 -29.107191 
L 139.494522 -29.25473 
L 138.25421 -29.417154 
L 137.013898 -29.595804 
L 135.773586 -29.792217 
L 134.533274 -30.008162 
L 133.292961 -30.245678 
L 132.052649 -30.507129 
L 130.812337 -30.795273 
L 129.572025 -31.113354 
L 128.331713 -31.465219 
L 127.0914 -31.855484 
L 125.851088 -32.289737 
L 124.610776 -32.774808 
L 123.370464 -33.319104 
L 122.130152 -33.933012 
L 120.889839 -34.629354 
L 119.649527 -35.423858 
L 118.409215 -36.335585 
L 117.168903 -37.38721 
L 115.92859 -38.605031 
L 114.688278 -40.018564 
L 113.447966 -41.659582 
L 112.207654 -43.560474 
L 110.967342 -45.751923 
L 109.727029 -48.25994 
L 108.486717 -51.102478 
L 107.246405 -54.28594 
L 106.006093 -57.801994 
L 104.765781 -61.625156 
L 103.525468 -65.711558 
L 102.285156 -69.999201 
L 101.044844 -74.409828 
L 99.804532 -78.852345 
L 98.564219 -83.227503 
L 97.323907 -87.433409 
L 96.083595 -91.371312 
L 94.843283 -94.951122 
L 93.602971 -98.09614 
L 92.362658 -100.746639 
L 91.122346 -102.862057 
L 89.882034 -104.421754 
L 88.641722 -105.424417 
L 87.40141 -105.886328 
L 86.161097 -105.838776 
L 84.920785 -105.324929 
L 83.680473 -104.396479 
L 82.440161 -103.110319 
L 81.199848 -101.525479 
L 79.959536 -99.700465 
L 78.719224 -97.691092 
L 77.478912 -95.548852 
L 76.2386 -93.319798 
L 74.998287 -91.043903 
L 73.757975 -88.75484 
L 72.517663 -86.480095 
L 71.277351 -84.241352 
L 70.037039 -82.055065 
L 68.796726 -79.933147 
L 67.556414 -77.883736 
L 66.316102 -75.911968 
L 65.07579 -74.020723 
L 63.835478 -72.211311 
L 62.595165 -70.484082 
L 61.354853 -68.83893 
L 60.114541 -67.275683 
L 58.874229 -65.794395 
L 57.633916 -64.395519 
L 56.393604 -63.079991 
L 55.153292 -61.849233 
L 53.91298 -60.705092 
L 52.672668 -59.64974 
L 51.432355 -58.68555 
L 50.192043 -57.814968 
L 48.951731 -57.040394 
L 47.711419 -56.364084 
L 46.471107 -55.788072 
L 45.230794 -55.314119 
L 43.990482 -54.943688 
L 42.75017 -54.677934 
L 41.509858 -54.517706 
L 40.269545 -54.463564 
z
" id="mcca09bebde"/>
    </defs>
    <g clip-path="url(#pd836794a69)">
     <use style="fill:#90c6ec;" x="0" xlink:href="#mcca09bebde" y="129.6"/>
    </g>
   </g>
   <g id="matplotlib.axis_1">
    <g id="xtick_1">
     <g id="line2d_1">
      <defs>
       <path d="M 0 0 
L 0 3.5 
" id="m9b7efeac6a" style="stroke:#000000;stroke-width:0.8;"/>
      </defs>
      <g>
       <use style="stroke:#000000;stroke-width:0.8;" x="40.269545" xlink:href="#m9b7efeac6a" y="104.6"/>
      </g>
     </g>
     <g id="text_1">
      <text style="font-family:DejaVu Sans;font-size:8px;font-stretch:normal;font-style:normal;font-weight:normal;text-anchor:middle;" transform="rotate(-0, 40.269545, 117.67875)" x="40.269545" y="117.67875">A</text>
     </g>
    </g>
    <g id="xtick_2">
     <g id="line2d_2">
      <g>
       <use style="stroke:#000000;stroke-width:0.8;" x="163.060455" xlink:href="#m9b7efeac6a" y="104.6"/>
      </g>
     </g>
     <g id="text_2">
      <text style="font-family:DejaVu Sans;font-size:8px;font-stretch:normal;font-style:normal;font-weight:normal;text-anchor:middle;" transform="rotate(-0, 163.060455, 117.67875)" x="163.060455" y="117.67875">P</text>
     </g>
    </g>
   </g>
   <g id="matplotlib.axis_2">
    <g id="ytick_1">
     <g id="line2d_3">
      <defs>
       <path d="M 0 0 
L -3.5 0 
" id="maf3aaa5a54" style="stroke:#000000;stroke-width:0.8;"/>
      </defs>
      <g>
       <use style="stroke:#000000;stroke-width:0.8;" x="34.13" xlink:href="#maf3aaa5a54" y="104.6"/>
      </g>
     </g>
     <g id="text_3">
      <text style="font-family:DejaVu Sans;font-size:8px;font-stretch:normal;font-style:normal;font-weight:normal;text-anchor:end;" transform="rotate(-0, 27.13, 107.639375)" x="27.13" y="107.639375">0</text>
     </g>
    </g>
    <g id="ytick_2">
     <g id="line2d_4">
      <g>
       <use style="stroke:#000000;stroke-width:0.8;" x="34.13" xlink:href="#maf3aaa5a54" y="74.293333"/>
      </g>
     </g>
     <g id="text_4">
      <text style="font-family:DejaVu Sans;font-size:8px;font-stretch:normal;font-style:normal;font-weight:normal;text-anchor:end;" transform="rotate(-0, 27.13, 77.332708)" x="27.13" y="77.332708">1</text>
     </g>
    </g>
    <g id="ytick_3">
     <g id="line2d_5">
      <g>
       <use style="stroke:#000000;stroke-width:0.8;" x="34.13" xlink:href="#maf3aaa5a54" y="43.986667"/>
      </g>
     </g>
     <g id="text_5">
      <text style="font-family:DejaVu Sans;font-size:8px;font-stretch:normal;font-style:normal;font-weight:normal;text-anchor:end;" transform="rotate(-0, 27.13, 47.026042)" x="27.13" y="47.026042">2</text>
     </g>
    </g>
    <g id="ytick_4">
     <g id="line2d_6">
      <g>
       <use style="stroke:#000000;stroke-width:0.8;" x="34.13" xlink:href="#maf3aaa5a54" y="13.68"/>
      </g>
     </g>
     <g id="text_6">
      <text style="font-family:DejaVu Sans;font-size:8px;font-stretch:normal;font-style:normal;font-weight:normal;text-anchor:end;" transform="rotate(-0, 27.13, 16.719375)" x="27.13" y="16.719375">3</text>
     </g>
    </g>
    <g id="text_7">
     <text style="font-family:DejaVu Sans;font-size:8px;font-stretch:normal;font-style:normal;font-weight:normal;text-anchor:middle;" transform="rotate(-90, 16.37625, 59.14)" x="16.37625" y="59.14">Normalised concentration</text>
    </g>
   </g>
   <g id="patch_3">
    <path d="M 34.13 104.6 
L 34.13 13.68 
" style="fill:none;stroke:#000000;stroke-linecap:square;stroke-linejoin:miter;stroke-width:0.8;"/>
   </g>
   <g id="patch_4">
    <path d="M 169.2 104.6 
L 169.2 13.68 
" style="fill:none;stroke:#000000;stroke-linecap:square;stroke-linejoin:miter;stroke-width:0.8;"/>
   </g>
   <g id="patch_5">
    <path d="M 34.13 104.6 
L 169.2 104.6 
" style="fill:none;stroke:#000000;stroke-linecap:square;stroke-linejoin:miter;stroke-width:0.8;"/>
   </g>
   <g id="patch_6">
    <path d="M 34.13 13.68 
L 169.2 13.68 
" style="fill:none;stroke:#000000;stroke-linecap:square;stroke-linejoin:miter;stroke-width:0.8;"/>
   </g>
   <g id="legend_1">
    <g id="patch_7">
     <path d="M 106.947031 25.298906 
L 120.947031 25.298906 
L 120.947031 20.398906 
L 106.947031 20.398906 
z
" style="fill:#1f77b4;"/>
    </g>
    <g id="text_8">
     <text style="font-family:DejaVu Sans;font-size:7px;font-stretch:normal;font-style:normal;font-weight:normal;text-anchor:start;" transform="rotate(-0, 126.547031, 25.298906)" x="126.547031" y="25.298906">Fast state</text>
    </g>
    <g id="patch_8">
     <path d="M 106.947031 35.573594 
L 120.947031 35.573594 
L 120.947031 30.673594 
L 106.947031 30.673594 
z
" style="fill:#90c6ec;"/>
    </g>
    <g id="text_9">
     <text style="font-family:DejaVu Sans;font-size:7px;font-stretch:normal;font-style:normal;font-weight:normal;text-anchor:start;" transform="rotate(-0, 126.547031, 35.573594)" x="126.547031" y="35.573594">Slow state</text>
    </g>
   </g>
  </g>
 </g>
 <defs>
  <clipPath id="pd836794a69">
   <rect height="90.92" width="135.07" x="34.13" y="13.68"/>
  </clipPath>
 </defs>
</svg>
