<?xml version="1.0" encoding="utf-8" standalone="no"?>
<!DOCTYPE svg PUBLIC "-//W3C//DTD SVG 1.1//EN"
  "http://www.w3.org/Graphics/SVG/1.1/DTD/svg11.dtd">
<!-- Created with matplotlib (https://matplotlib.org/) -->
<svg height="129.6pt" version="1.1" viewBox="0 0 180 129.6" width="180pt" xmlns="http://www.w3.org/2000/svg" xmlns:xlink="http://www.w3.org/1999/xlink">
 <metadata>
  <rdf:RDF xmlns:cc="http://creativecommons.org/ns#" xmlns:dc="http://purl.org/dc/elements/1.1/" xmlns:rdf="http://www.w3.org/1999/02/22-rdf-syntax-ns#">
   <cc:Work>
    <dc:type rdf:resource="http://purl.org/dc/dcmitype/StillImage"/>
    <dc:date>2023-01-20T10:48:20.463410</dc:date>
    <dc:format>image/svg+xml</dc:format>
    <dc:creator>
     <cc:Agent>
      <dc:title>Matplotlib v3.3.4, https://matplotlib.org/</dc:title>
     </cc:Agent>
    </dc:creator>
   </cc:Work>
  </rdf:RDF>
 </metadata>
 <defs>
  <style type="text/css">*{stroke-linecap:butt;stroke-linejoin:round;}</style>
 </defs>
 <g id="figure_1">
  <g id="patch_1">
   <path d="M 0 129.6 
L 180 129.6 
L 180 0 
L 0 0 
z
" style="fill:none;"/>
  </g>
  <g id="axes_1">
   <g id="patch_2">
    <path d="M 34.13 104.6 
L 169.2 104.6 
L 169.2 13.68 
L 34.13 13.68 
z
" style="fill:none;"/>
   </g>
   <g id="matplotlib.axis_1">
    <g id="xtick_1">
     <g id="line2d_1">
      <defs>
       <path d="M 0 0 
L 0 3.5 
" id="mc5ca89650a" style="stroke:#000000;stroke-width:0.8;"/>
      </defs>
      <g>
       <use style="stroke:#000000;stroke-width:0.8;" x="40.269545" xlink:href="#mc5ca89650a" y="104.6"/>
      </g>
     </g>
     <g id="text_1">
      <text style="font-family:DejaVu Sans;font-size:8px;font-stretch:normal;font-style:normal;font-weight:normal;text-anchor:middle;" transform="rotate(-0, 40.269545, 117.67875)" x="40.269545" y="117.67875">A</text>
     </g>
    </g>
    <g id="xtick_2">
     <g id="line2d_2">
      <g>
       <use style="stroke:#000000;stroke-width:0.8;" x="163.060455" xlink:href="#mc5ca89650a" y="104.6"/>
      </g>
     </g>
     <g id="text_2">
      <text style="font-family:DejaVu Sans;font-size:8px;font-stretch:normal;font-style:normal;font-weight:normal;text-anchor:middle;" transform="rotate(-0, 163.060455, 117.67875)" x="163.060455" y="117.67875">P</text>
     </g>
    </g>
   </g>
   <g id="matplotlib.axis_2">
    <g id="ytick_1">
     <g id="line2d_3">
      <defs>
       <path d="M 0 0 
L -3.5 0 
" id="mb7966b00d6" style="stroke:#000000;stroke-width:0.8;"/>
      </defs>
      <g>
       <use style="stroke:#000000;stroke-width:0.8;" x="34.13" xlink:href="#mb7966b00d6" y="103.100546"/>
      </g>
     </g>
     <g id="text_3">
      <text style="font-family:DejaVu Sans;font-size:8px;font-stretch:normal;font-style:normal;font-weight:normal;text-anchor:end;" transform="rotate(-0, 27.13, 106.139921)" x="27.13" y="106.139921">0</text>
     </g>
    </g>
    <g id="ytick_2">
     <g id="line2d_4">
      <g>
       <use style="stroke:#000000;stroke-width:0.8;" x="34.13" xlink:href="#mb7966b00d6" y="73.293697"/>
      </g>
     </g>
     <g id="text_4">
      <text style="font-family:DejaVu Sans;font-size:8px;font-stretch:normal;font-style:normal;font-weight:normal;text-anchor:end;" transform="rotate(-0, 27.13, 76.333072)" x="27.13" y="76.333072">1</text>
     </g>
    </g>
    <g id="ytick_3">
     <g id="line2d_5">
      <g>
       <use style="stroke:#000000;stroke-width:0.8;" x="34.13" xlink:href="#mb7966b00d6" y="43.486849"/>
      </g>
     </g>
     <g id="text_5">
      <text style="font-family:DejaVu Sans;font-size:8px;font-stretch:normal;font-style:normal;font-weight:normal;text-anchor:end;" transform="rotate(-0, 27.13, 46.526224)" x="27.13" y="46.526224">2</text>
     </g>
    </g>
    <g id="ytick_4">
     <g id="line2d_6">
      <g>
       <use style="stroke:#000000;stroke-width:0.8;" x="34.13" xlink:href="#mb7966b00d6" y="13.68"/>
      </g>
     </g>
     <g id="text_6">
      <text style="font-family:DejaVu Sans;font-size:8px;font-stretch:normal;font-style:normal;font-weight:normal;text-anchor:end;" transform="rotate(-0, 27.13, 16.719375)" x="27.13" y="16.719375">3</text>
     </g>
    </g>
    <g id="text_7">
     <text style="font-family:DejaVu Sans;font-size:8px;font-stretch:normal;font-style:normal;font-weight:normal;text-anchor:middle;" transform="rotate(-90, 16.37625, 59.14)" x="16.37625" y="59.14">Normalised concentration</text>
    </g>
   </g>
   <g id="line2d_7">
    <path clip-path="url(#p2b9ad66009)" d="M 40.269545 73.310843 
L 41.509858 73.320081 
L 42.75017 73.320761 
L 43.990482 73.319357 
L 45.230794 73.317111 
L 46.471107 73.314311 
L 47.711419 73.311084 
L 48.951731 73.307531 
L 50.192043 73.303755 
L 51.432355 73.299855 
L 52.672668 73.295931 
L 53.91298 73.292071 
L 55.153292 73.288352 
L 56.393604 73.284839 
L 57.633916 73.281578 
L 58.874229 73.278601 
L 60.114541 73.275919 
L 61.354853 73.273529 
L 62.595165 73.271414 
L 63.835478 73.26954 
L 65.07579 73.267867 
L 66.316102 73.266345 
L 67.556414 73.264917 
L 68.796726 73.263526 
L 70.037039 73.262114 
L 71.277351 73.260624 
L 72.517663 73.259003 
L 73.757975 73.257202 
L 74.998287 73.255178 
L 76.2386 73.252894 
L 77.478912 73.250322 
L 78.719224 73.247437 
L 79.959536 73.244223 
L 81.199848 73.240668 
L 82.440161 73.23677 
L 83.680473 73.232528 
L 84.920785 73.227948 
L 86.161097 73.223042 
L 87.40141 73.217826 
L 88.641722 73.21232 
L 89.882034 73.206548 
L 91.122346 73.20054 
L 92.362658 73.194328 
L 93.602971 73.187951 
L 94.843283 73.181451 
L 96.083595 73.174875 
L 97.323907 73.168275 
L 98.564219 73.161707 
L 99.804532 73.155232 
L 101.044844 73.148915 
L 102.285156 73.142826 
L 103.525468 73.13704 
L 104.765781 73.131634 
L 106.006093 73.126689 
L 107.246405 73.122289 
L 108.486717 73.118518 
L 109.727029 73.115464 
L 110.967342 73.113213 
L 112.207654 73.111851 
L 113.447966 73.111461 
L 114.688278 73.112123 
L 115.92859 73.113914 
L 117.168903 73.116903 
L 118.409215 73.121153 
L 119.649527 73.126719 
L 120.889839 73.133644 
L 122.130152 73.141964 
L 123.370464 73.151698 
L 124.610776 73.162857 
L 125.851088 73.175436 
L 127.0914 73.189413 
L 128.331713 73.204756 
L 129.572025 73.221413 
L 130.812337 73.23932 
L 132.052649 73.258396 
L 133.292961 73.278545 
L 134.533274 73.299658 
L 135.773586 73.321611 
L 137.013898 73.34427 
L 138.25421 73.367486 
L 139.494522 73.391104 
L 140.734835 73.414959 
L 141.975147 73.438878 
L 143.215459 73.462686 
L 144.455771 73.486203 
L 145.696084 73.509248 
L 146.936396 73.531642 
L 148.176708 73.553208 
L 149.41702 73.573773 
L 150.657332 73.593171 
L 151.897645 73.611243 
L 153.137957 73.627842 
L 154.378269 73.642829 
L 155.618581 73.656075 
L 156.858893 73.667449 
L 158.099206 73.676743 
L 159.339518 73.683308 
L 160.57983 73.684087 
L 161.820142 73.662927 
L 163.060455 73.531037 
" style="fill:none;stroke:#1f77b4;stroke-linecap:square;stroke-width:1.5;"/>
   </g>
   <g id="line2d_8">
    <path clip-path="url(#p2b9ad66009)" d="M 40.269545 73.310843 
L 41.509858 73.320081 
L 42.75017 73.320761 
L 43.990482 73.319357 
L 45.230794 73.317111 
L 46.471107 73.314311 
L 47.711419 73.311084 
L 48.951731 73.307531 
L 50.192043 73.303755 
L 51.432355 73.299855 
L 52.672668 73.295931 
L 53.91298 73.292071 
L 55.153292 73.288352 
L 56.393604 73.284839 
L 57.633916 73.281578 
L 58.874229 73.278601 
L 60.114541 73.275919 
L 61.354853 73.273529 
L 62.595165 73.271414 
L 63.835478 73.26954 
L 65.07579 73.267867 
L 66.316102 73.266345 
L 67.556414 73.264917 
L 68.796726 73.263526 
L 70.037039 73.262114 
L 71.277351 73.260624 
L 72.517663 73.259003 
L 73.757975 73.257202 
L 74.998287 73.255178 
L 76.2386 73.252894 
L 77.478912 73.250322 
L 78.719224 73.247437 
L 79.959536 73.244223 
L 81.199848 73.240668 
L 82.440161 73.23677 
L 83.680473 73.232528 
L 84.920785 73.227948 
L 86.161097 73.223042 
L 87.40141 73.217826 
L 88.641722 73.21232 
L 89.882034 73.206548 
L 91.122346 73.20054 
L 92.362658 73.194328 
L 93.602971 73.187951 
L 94.843283 73.181451 
L 96.083595 73.174875 
L 97.323907 73.168275 
L 98.564219 73.161707 
L 99.804532 73.155232 
L 101.044844 73.148915 
L 102.285156 73.142826 
L 103.525468 73.13704 
L 104.765781 73.131634 
L 106.006093 73.126689 
L 107.246405 73.122289 
L 108.486717 73.118518 
L 109.727029 73.115464 
L 110.967342 73.113213 
L 112.207654 73.111851 
L 113.447966 73.111461 
L 114.688278 73.112123 
L 115.92859 73.113914 
L 117.168903 73.116903 
L 118.409215 73.121153 
L 119.649527 73.126719 
L 120.889839 73.133644 
L 122.130152 73.141964 
L 123.370464 73.151698 
L 124.610776 73.162857 
L 125.851088 73.175436 
L 127.0914 73.189413 
L 128.331713 73.204756 
L 129.572025 73.221413 
L 130.812337 73.23932 
L 132.052649 73.258396 
L 133.292961 73.278545 
L 134.533274 73.299658 
L 135.773586 73.321611 
L 137.013898 73.34427 
L 138.25421 73.367486 
L 139.494522 73.391104 
L 140.734835 73.414959 
L 141.975147 73.438878 
L 143.215459 73.462686 
L 144.455771 73.486203 
L 145.696084 73.509248 
L 146.936396 73.531642 
L 148.176708 73.553208 
L 149.41702 73.573773 
L 150.657332 73.593171 
L 151.897645 73.611243 
L 153.137957 73.627842 
L 154.378269 73.642829 
L 155.618581 73.656075 
L 156.858893 73.667449 
L 158.099206 73.676743 
L 159.339518 73.683308 
L 160.57983 73.684087 
L 161.820142 73.662927 
L 163.060455 73.531037 
" style="fill:none;stroke:#ff7f0e;stroke-dasharray:5.55,2.4;stroke-dashoffset:0;stroke-width:1.5;"/>
   </g>
   <g id="line2d_9">
    <path clip-path="url(#p2b9ad66009)" d="M 40.269545 103.100546 
L 41.509858 103.100546 
L 42.75017 103.100546 
L 43.990482 103.100546 
L 45.230794 103.100546 
L 46.471107 103.100546 
L 47.711419 103.100546 
L 48.951731 103.100546 
L 50.192043 103.100546 
L 51.432355 103.100546 
L 52.672668 103.100546 
L 53.91298 103.100546 
L 55.153292 103.100546 
L 56.393604 103.100546 
L 57.633916 103.100546 
L 58.874229 103.100546 
L 60.114541 103.100546 
L 61.354853 103.100546 
L 62.595165 103.100546 
L 63.835478 103.100546 
L 65.07579 103.100546 
L 66.316102 103.100546 
L 67.556414 103.100546 
L 68.796726 103.100546 
L 70.037039 103.100546 
L 71.277351 103.100546 
L 72.517663 103.100546 
L 73.757975 103.100546 
L 74.998287 103.100546 
L 76.2386 103.100546 
L 77.478912 103.100546 
L 78.719224 103.100546 
L 79.959536 103.100546 
L 81.199848 103.100546 
L 82.440161 103.100546 
L 83.680473 103.100546 
L 84.920785 103.100546 
L 86.161097 103.100546 
L 87.40141 103.100546 
L 88.641722 103.100546 
L 89.882034 103.100546 
L 91.122346 103.100546 
L 92.362658 103.100546 
L 93.602971 103.100546 
L 94.843283 103.100546 
L 96.083595 103.100546 
L 97.323907 103.100546 
L 98.564219 103.100546 
L 99.804532 103.100546 
L 101.044844 103.100546 
L 102.285156 103.100546 
L 103.525468 103.100546 
L 104.765781 103.100546 
L 106.006093 103.100546 
L 107.246405 103.100546 
L 108.486717 103.100546 
L 109.727029 103.100546 
L 110.967342 103.100546 
L 112.207654 103.100546 
L 113.447966 103.100546 
L 114.688278 103.100546 
L 115.92859 103.100546 
L 117.168903 103.100546 
L 118.409215 103.100546 
L 119.649527 103.100546 
L 120.889839 103.100546 
L 122.130152 103.100546 
L 123.370464 103.100546 
L 124.610776 103.100546 
L 125.851088 103.100546 
L 127.0914 103.100546 
L 128.331713 103.100546 
L 129.572025 103.100546 
L 130.812337 103.100546 
L 132.052649 103.100546 
L 133.292961 103.100546 
L 134.533274 103.100546 
L 135.773586 103.100546 
L 137.013898 103.100546 
L 138.25421 103.100546 
L 139.494522 103.100546 
L 140.734835 103.100546 
L 141.975147 103.100546 
L 143.215459 103.100546 
L 144.455771 103.100546 
L 145.696084 103.100546 
L 146.936396 103.100546 
L 148.176708 103.100546 
L 149.41702 103.100546 
L 150.657332 103.100546 
L 151.897645 103.100546 
L 153.137957 103.100546 
L 154.378269 103.100546 
L 155.618581 103.100546 
L 156.858893 103.100546 
L 158.099206 103.100546 
L 159.339518 103.100546 
L 160.57983 103.100546 
L 161.820142 103.100546 
L 163.060455 103.100546 
" style="fill:none;stroke:#ff7f0e;stroke-linecap:square;stroke-width:1.5;"/>
   </g>
   <g id="patch_3">
    <path d="M 34.13 104.6 
L 34.13 13.68 
" style="fill:none;stroke:#000000;stroke-linecap:square;stroke-linejoin:miter;stroke-width:0.8;"/>
   </g>
   <g id="patch_4">
    <path d="M 169.2 104.6 
L 169.2 13.68 
" style="fill:none;stroke:#000000;stroke-linecap:square;stroke-linejoin:miter;stroke-width:0.8;"/>
   </g>
   <g id="patch_5">
    <path d="M 34.13 104.6 
L 169.2 104.6 
" style="fill:none;stroke:#000000;stroke-linecap:square;stroke-linejoin:miter;stroke-width:0.8;"/>
   </g>
   <g id="patch_6">
    <path d="M 34.13 13.68 
L 169.2 13.68 
" style="fill:none;stroke:#000000;stroke-linecap:square;stroke-linejoin:miter;stroke-width:0.8;"/>
   </g>
   <g id="legend_1">
    <g id="line2d_10">
     <path d="M 106.947031 22.848906 
L 120.947031 22.848906 
" style="fill:none;stroke:#1f77b4;stroke-linecap:square;stroke-width:1.5;"/>
    </g>
    <g id="line2d_11"/>
    <g id="text_8">
     <text style="font-family:DejaVu Sans;font-size:7px;font-stretch:normal;font-style:normal;font-weight:normal;text-anchor:start;" transform="rotate(-0, 126.547031, 25.298906)" x="126.547031" y="25.298906">Total</text>
    </g>
    <g id="line2d_12">
     <path d="M 106.947031 33.123594 
L 120.947031 33.123594 
" style="fill:none;stroke:#ff7f0e;stroke-dasharray:5.55,2.4;stroke-dashoffset:0;stroke-width:1.5;"/>
    </g>
    <g id="line2d_13"/>
    <g id="text_9">
     <text style="font-family:DejaVu Sans;font-size:7px;font-stretch:normal;font-style:normal;font-weight:normal;text-anchor:start;" transform="rotate(-0, 126.547031, 35.573594)" x="126.547031" y="35.573594">Fast state</text>
    </g>
    <g id="line2d_14">
     <path d="M 106.947031 43.398281 
L 120.947031 43.398281 
" style="fill:none;stroke:#ff7f0e;stroke-linecap:square;stroke-width:1.5;"/>
    </g>
    <g id="line2d_15"/>
    <g id="text_10">
     <text style="font-family:DejaVu Sans;font-size:7px;font-stretch:normal;font-style:normal;font-weight:normal;text-anchor:start;" transform="rotate(-0, 126.547031, 45.848281)" x="126.547031" y="45.848281">Slow state</text>
    </g>
   </g>
  </g>
 </g>
 <defs>
  <clipPath id="p2b9ad66009">
   <rect height="90.92" width="135.07" x="34.13" y="13.68"/>
  </clipPath>
 </defs>
</svg>
