<?xml version="1.0" encoding="utf-8" standalone="no"?>
<!DOCTYPE svg PUBLIC "-//W3C//DTD SVG 1.1//EN"
  "http://www.w3.org/Graphics/SVG/1.1/DTD/svg11.dtd">
<!-- Created with matplotlib (https://matplotlib.org/) -->
<svg height="129.6pt" version="1.1" viewBox="0 0 180 129.6" width="180pt" xmlns="http://www.w3.org/2000/svg" xmlns:xlink="http://www.w3.org/1999/xlink">
 <metadata>
  <rdf:RDF xmlns:cc="http://creativecommons.org/ns#" xmlns:dc="http://purl.org/dc/elements/1.1/" xmlns:rdf="http://www.w3.org/1999/02/22-rdf-syntax-ns#">
   <cc:Work>
    <dc:type rdf:resource="http://purl.org/dc/dcmitype/StillImage"/>
    <dc:date>2023-01-20T10:48:21.180505</dc:date>
    <dc:format>image/svg+xml</dc:format>
    <dc:creator>
     <cc:Agent>
      <dc:title>Matplotlib v3.3.4, https://matplotlib.org/</dc:title>
     </cc:Agent>
    </dc:creator>
   </cc:Work>
  </rdf:RDF>
 </metadata>
 <defs>
  <style type="text/css">*{stroke-linecap:butt;stroke-linejoin:round;}</style>
 </defs>
 <g id="figure_1">
  <g id="patch_1">
   <path d="M 0 129.6 
L 180 129.6 
L 180 0 
L 0 0 
z
" style="fill:none;"/>
  </g>
  <g id="axes_1">
   <g id="patch_2">
    <path d="M 34.13 104.6 
L 169.2 104.6 
L 169.2 13.68 
L 34.13 13.68 
z
" style="fill:none;"/>
   </g>
   <g id="PolyCollection_1">
    <defs>
     <path d="M 40.269545 -55.289234 
L 40.269545 -25 
L 41.509858 -25 
L 42.75017 -25 
L 43.990482 -25 
L 45.230794 -25 
L 46.471107 -25 
L 47.711419 -25 
L 48.951731 -25 
L 50.192043 -25 
L 51.432355 -25 
L 52.672668 -25 
L 53.91298 -25 
L 55.153292 -25 
L 56.393604 -25 
L 57.633916 -25 
L 58.874229 -25 
L 60.114541 -25 
L 61.354853 -25 
L 62.595165 -25 
L 63.835478 -25 
L 65.07579 -25 
L 66.316102 -25 
L 67.556414 -25 
L 68.796726 -25 
L 70.037039 -25 
L 71.277351 -25 
L 72.517663 -25 
L 73.757975 -25 
L 74.998287 -25 
L 76.2386 -25 
L 77.478912 -25 
L 78.719224 -25 
L 79.959536 -25 
L 81.199848 -25 
L 82.440161 -25 
L 83.680473 -25 
L 84.920785 -25 
L 86.161097 -25 
L 87.40141 -25 
L 88.641722 -25 
L 89.882034 -25 
L 91.122346 -25 
L 92.362658 -25 
L 93.602971 -25 
L 94.843283 -25 
L 96.083595 -25 
L 97.323907 -25 
L 98.564219 -25 
L 99.804532 -25 
L 101.044844 -25 
L 102.285156 -25 
L 103.525468 -25 
L 104.765781 -25 
L 106.006093 -25 
L 107.246405 -25 
L 108.486717 -25 
L 109.727029 -25 
L 110.967342 -25 
L 112.207654 -25 
L 113.447966 -25 
L 114.688278 -25 
L 115.92859 -25 
L 117.168903 -25 
L 118.409215 -25 
L 119.649527 -25 
L 120.889839 -25 
L 122.130152 -25 
L 123.370464 -25 
L 124.610776 -25 
L 125.851088 -25 
L 127.0914 -25 
L 128.331713 -25 
L 129.572025 -25 
L 130.812337 -25 
L 132.052649 -25 
L 133.292961 -25 
L 134.533274 -25 
L 135.773586 -25 
L 137.013898 -25 
L 138.25421 -25 
L 139.494522 -25 
L 140.734835 -25 
L 141.975147 -25 
L 143.215459 -25 
L 144.455771 -25 
L 145.696084 -25 
L 146.936396 -25 
L 148.176708 -25 
L 149.41702 -25 
L 150.657332 -25 
L 151.897645 -25 
L 153.137957 -25 
L 154.378269 -25 
L 155.618581 -25 
L 156.858893 -25 
L 158.099206 -25 
L 159.339518 -25 
L 160.57983 -25 
L 161.820142 -25 
L 163.060455 -25 
L 163.060455 -55.065347 
L 163.060455 -55.065347 
L 161.820142 -54.931245 
L 160.57983 -54.90973 
L 159.339518 -54.910523 
L 158.099206 -54.917198 
L 156.858893 -54.926648 
L 155.618581 -54.938212 
L 154.378269 -54.95168 
L 153.137957 -54.966919 
L 151.897645 -54.983796 
L 150.657332 -55.002172 
L 149.41702 -55.021895 
L 148.176708 -55.042804 
L 146.936396 -55.064732 
L 145.696084 -55.087501 
L 144.455771 -55.110933 
L 143.215459 -55.134844 
L 141.975147 -55.159051 
L 140.734835 -55.183372 
L 139.494522 -55.207626 
L 138.25421 -55.23164 
L 137.013898 -55.255246 
L 135.773586 -55.278284 
L 134.533274 -55.300606 
L 133.292961 -55.322073 
L 132.052649 -55.34256 
L 130.812337 -55.361956 
L 129.572025 -55.380163 
L 128.331713 -55.3971 
L 127.0914 -55.412699 
L 125.851088 -55.426911 
L 124.610776 -55.4397 
L 123.370464 -55.451046 
L 122.130152 -55.460945 
L 120.889839 -55.469403 
L 119.649527 -55.476445 
L 118.409215 -55.482104 
L 117.168903 -55.486425 
L 115.92859 -55.489464 
L 114.688278 -55.491285 
L 113.447966 -55.491959 
L 112.207654 -55.491562 
L 110.967342 -55.490177 
L 109.727029 -55.487889 
L 108.486717 -55.484783 
L 107.246405 -55.48095 
L 106.006093 -55.476475 
L 104.765781 -55.471447 
L 103.525468 -55.465951 
L 102.285156 -55.460067 
L 101.044844 -55.453877 
L 99.804532 -55.447454 
L 98.564219 -55.44087 
L 97.323907 -55.434192 
L 96.083595 -55.427481 
L 94.843283 -55.420795 
L 93.602971 -55.414186 
L 92.362658 -55.407702 
L 91.122346 -55.401386 
L 89.882034 -55.395277 
L 88.641722 -55.389408 
L 87.40141 -55.38381 
L 86.161097 -55.378506 
L 84.920785 -55.373518 
L 83.680473 -55.368862 
L 82.440161 -55.364549 
L 81.199848 -55.360585 
L 79.959536 -55.356971 
L 78.719224 -55.353703 
L 77.478912 -55.350769 
L 76.2386 -55.348154 
L 74.998287 -55.345832 
L 73.757975 -55.343774 
L 72.517663 -55.341943 
L 71.277351 -55.340294 
L 70.037039 -55.338779 
L 68.796726 -55.337343 
L 67.556414 -55.335929 
L 66.316102 -55.334478 
L 65.07579 -55.33293 
L 63.835478 -55.331229 
L 62.595165 -55.329324 
L 61.354853 -55.327173 
L 60.114541 -55.324743 
L 58.874229 -55.322016 
L 57.633916 -55.318989 
L 56.393604 -55.315674 
L 55.153292 -55.312101 
L 53.91298 -55.308321 
L 52.672668 -55.304395 
L 51.432355 -55.300405 
L 50.192043 -55.296441 
L 48.951731 -55.292601 
L 47.711419 -55.288988 
L 46.471107 -55.285707 
L 45.230794 -55.28286 
L 43.990482 -55.280576 
L 42.75017 -55.279149 
L 41.509858 -55.27984 
L 40.269545 -55.289234 
z
" id="mc96cdc395e"/>
    </defs>
    <g clip-path="url(#p1026ff83c9)">
     <use style="fill:#1f77b4;" x="0" xlink:href="#mc96cdc395e" y="129.6"/>
    </g>
   </g>
   <g id="PolyCollection_2">
    <defs>
     <path d="M 40.269545 -25 
L 40.269545 -25 
L 41.509858 -25 
L 42.75017 -25 
L 43.990482 -25 
L 45.230794 -25 
L 46.471107 -25 
L 47.711419 -25 
L 48.951731 -25 
L 50.192043 -25 
L 51.432355 -25 
L 52.672668 -25 
L 53.91298 -25 
L 55.153292 -25 
L 56.393604 -25 
L 57.633916 -25 
L 58.874229 -25 
L 60.114541 -25 
L 61.354853 -25 
L 62.595165 -25 
L 63.835478 -25 
L 65.07579 -25 
L 66.316102 -25 
L 67.556414 -25 
L 68.796726 -25 
L 70.037039 -25 
L 71.277351 -25 
L 72.517663 -25 
L 73.757975 -25 
L 74.998287 -25 
L 76.2386 -25 
L 77.478912 -25 
L 78.719224 -25 
L 79.959536 -25 
L 81.199848 -25 
L 82.440161 -25 
L 83.680473 -25 
L 84.920785 -25 
L 86.161097 -25 
L 87.40141 -25 
L 88.641722 -25 
L 89.882034 -25 
L 91.122346 -25 
L 92.362658 -25 
L 93.602971 -25 
L 94.843283 -25 
L 96.083595 -25 
L 97.323907 -25 
L 98.564219 -25 
L 99.804532 -25 
L 101.044844 -25 
L 102.285156 -25 
L 103.525468 -25 
L 104.765781 -25 
L 106.006093 -25 
L 107.246405 -25 
L 108.486717 -25 
L 109.727029 -25 
L 110.967342 -25 
L 112.207654 -25 
L 113.447966 -25 
L 114.688278 -25 
L 115.92859 -25 
L 117.168903 -25 
L 118.409215 -25 
L 119.649527 -25 
L 120.889839 -25 
L 122.130152 -25 
L 123.370464 -25 
L 124.610776 -25 
L 125.851088 -25 
L 127.0914 -25 
L 128.331713 -25 
L 129.572025 -25 
L 130.812337 -25 
L 132.052649 -25 
L 133.292961 -25 
L 134.533274 -25 
L 135.773586 -25 
L 137.013898 -25 
L 138.25421 -25 
L 139.494522 -25 
L 140.734835 -25 
L 141.975147 -25 
L 143.215459 -25 
L 144.455771 -25 
L 145.696084 -25 
L 146.936396 -25 
L 148.176708 -25 
L 149.41702 -25 
L 150.657332 -25 
L 151.897645 -25 
L 153.137957 -25 
L 154.378269 -25 
L 155.618581 -25 
L 156.858893 -25 
L 158.099206 -25 
L 159.339518 -25 
L 160.57983 -25 
L 161.820142 -25 
L 163.060455 -25 
L 163.060455 -25 
L 163.060455 -25 
L 161.820142 -25 
L 160.57983 -25 
L 159.339518 -25 
L 158.099206 -25 
L 156.858893 -25 
L 155.618581 -25 
L 154.378269 -25 
L 153.137957 -25 
L 151.897645 -25 
L 150.657332 -25 
L 149.41702 -25 
L 148.176708 -25 
L 146.936396 -25 
L 145.696084 -25 
L 144.455771 -25 
L 143.215459 -25 
L 141.975147 -25 
L 140.734835 -25 
L 139.494522 -25 
L 138.25421 -25 
L 137.013898 -25 
L 135.773586 -25 
L 134.533274 -25 
L 133.292961 -25 
L 132.052649 -25 
L 130.812337 -25 
L 129.572025 -25 
L 128.331713 -25 
L 127.0914 -25 
L 125.851088 -25 
L 124.610776 -25 
L 123.370464 -25 
L 122.130152 -25 
L 120.889839 -25 
L 119.649527 -25 
L 118.409215 -25 
L 117.168903 -25 
L 115.92859 -25 
L 114.688278 -25 
L 113.447966 -25 
L 112.207654 -25 
L 110.967342 -25 
L 109.727029 -25 
L 108.486717 -25 
L 107.246405 -25 
L 106.006093 -25 
L 104.765781 -25 
L 103.525468 -25 
L 102.285156 -25 
L 101.044844 -25 
L 99.804532 -25 
L 98.564219 -25 
L 97.323907 -25 
L 96.083595 -25 
L 94.843283 -25 
L 93.602971 -25 
L 92.362658 -25 
L 91.122346 -25 
L 89.882034 -25 
L 88.641722 -25 
L 87.40141 -25 
L 86.161097 -25 
L 84.920785 -25 
L 83.680473 -25 
L 82.440161 -25 
L 81.199848 -25 
L 79.959536 -25 
L 78.719224 -25 
L 77.478912 -25 
L 76.2386 -25 
L 74.998287 -25 
L 73.757975 -25 
L 72.517663 -25 
L 71.277351 -25 
L 70.037039 -25 
L 68.796726 -25 
L 67.556414 -25 
L 66.316102 -25 
L 65.07579 -25 
L 63.835478 -25 
L 62.595165 -25 
L 61.354853 -25 
L 60.114541 -25 
L 58.874229 -25 
L 57.633916 -25 
L 56.393604 -25 
L 55.153292 -25 
L 53.91298 -25 
L 52.672668 -25 
L 51.432355 -25 
L 50.192043 -25 
L 48.951731 -25 
L 47.711419 -25 
L 46.471107 -25 
L 45.230794 -25 
L 43.990482 -25 
L 42.75017 -25 
L 41.509858 -25 
L 40.269545 -25 
z
" id="m97cf5b790c"/>
    </defs>
    <g clip-path="url(#p1026ff83c9)">
     <use style="fill:#90c6ec;" x="0" xlink:href="#m97cf5b790c" y="129.6"/>
    </g>
   </g>
   <g id="matplotlib.axis_1">
    <g id="xtick_1">
     <g id="line2d_1">
      <defs>
       <path d="M 0 0 
L 0 3.5 
" id="m3b9c18951b" style="stroke:#000000;stroke-width:0.8;"/>
      </defs>
      <g>
       <use style="stroke:#000000;stroke-width:0.8;" x="40.269545" xlink:href="#m3b9c18951b" y="104.6"/>
      </g>
     </g>
     <g id="text_1">
      <text style="font-family:DejaVu Sans;font-size:8px;font-stretch:normal;font-style:normal;font-weight:normal;text-anchor:middle;" transform="rotate(-0, 40.269545, 117.67875)" x="40.269545" y="117.67875">A</text>
     </g>
    </g>
    <g id="xtick_2">
     <g id="line2d_2">
      <g>
       <use style="stroke:#000000;stroke-width:0.8;" x="163.060455" xlink:href="#m3b9c18951b" y="104.6"/>
      </g>
     </g>
     <g id="text_2">
      <text style="font-family:DejaVu Sans;font-size:8px;font-stretch:normal;font-style:normal;font-weight:normal;text-anchor:middle;" transform="rotate(-0, 163.060455, 117.67875)" x="163.060455" y="117.67875">P</text>
     </g>
    </g>
   </g>
   <g id="matplotlib.axis_2">
    <g id="ytick_1">
     <g id="line2d_3">
      <defs>
       <path d="M 0 0 
L -3.5 0 
" id="mc97bd52d37" style="stroke:#000000;stroke-width:0.8;"/>
      </defs>
      <g>
       <use style="stroke:#000000;stroke-width:0.8;" x="34.13" xlink:href="#mc97bd52d37" y="104.6"/>
      </g>
     </g>
     <g id="text_3">
      <text style="font-family:DejaVu Sans;font-size:8px;font-stretch:normal;font-style:normal;font-weight:normal;text-anchor:end;" transform="rotate(-0, 27.13, 107.639375)" x="27.13" y="107.639375">0</text>
     </g>
    </g>
    <g id="ytick_2">
     <g id="line2d_4">
      <g>
       <use style="stroke:#000000;stroke-width:0.8;" x="34.13" xlink:href="#mc97bd52d37" y="74.293333"/>
      </g>
     </g>
     <g id="text_4">
      <text style="font-family:DejaVu Sans;font-size:8px;font-stretch:normal;font-style:normal;font-weight:normal;text-anchor:end;" transform="rotate(-0, 27.13, 77.332708)" x="27.13" y="77.332708">1</text>
     </g>
    </g>
    <g id="ytick_3">
     <g id="line2d_5">
      <g>
       <use style="stroke:#000000;stroke-width:0.8;" x="34.13" xlink:href="#mc97bd52d37" y="43.986667"/>
      </g>
     </g>
     <g id="text_5">
      <text style="font-family:DejaVu Sans;font-size:8px;font-stretch:normal;font-style:normal;font-weight:normal;text-anchor:end;" transform="rotate(-0, 27.13, 47.026042)" x="27.13" y="47.026042">2</text>
     </g>
    </g>
    <g id="ytick_4">
     <g id="line2d_6">
      <g>
       <use style="stroke:#000000;stroke-width:0.8;" x="34.13" xlink:href="#mc97bd52d37" y="13.68"/>
      </g>
     </g>
     <g id="text_6">
      <text style="font-family:DejaVu Sans;font-size:8px;font-stretch:normal;font-style:normal;font-weight:normal;text-anchor:end;" transform="rotate(-0, 27.13, 16.719375)" x="27.13" y="16.719375">3</text>
     </g>
    </g>
    <g id="text_7">
     <text style="font-family:DejaVu Sans;font-size:8px;font-stretch:normal;font-style:normal;font-weight:normal;text-anchor:middle;" transform="rotate(-90, 16.37625, 59.14)" x="16.37625" y="59.14">Normalised concentration</text>
    </g>
   </g>
   <g id="patch_3">
    <path d="M 34.13 104.6 
L 34.13 13.68 
" style="fill:none;stroke:#000000;stroke-linecap:square;stroke-linejoin:miter;stroke-width:0.8;"/>
   </g>
   <g id="patch_4">
    <path d="M 169.2 104.6 
L 169.2 13.68 
" style="fill:none;stroke:#000000;stroke-linecap:square;stroke-linejoin:miter;stroke-width:0.8;"/>
   </g>
   <g id="patch_5">
    <path d="M 34.13 104.6 
L 169.2 104.6 
" style="fill:none;stroke:#000000;stroke-linecap:square;stroke-linejoin:miter;stroke-width:0.8;"/>
   </g>
   <g id="patch_6">
    <path d="M 34.13 13.68 
L 169.2 13.68 
" style="fill:none;stroke:#000000;stroke-linecap:square;stroke-linejoin:miter;stroke-width:0.8;"/>
   </g>
   <g id="legend_1">
    <g id="patch_7">
     <path d="M 106.947031 25.298906 
L 120.947031 25.298906 
L 120.947031 20.398906 
L 106.947031 20.398906 
z
" style="fill:#1f77b4;"/>
    </g>
    <g id="text_8">
     <text style="font-family:DejaVu Sans;font-size:7px;font-stretch:normal;font-style:normal;font-weight:normal;text-anchor:start;" transform="rotate(-0, 126.547031, 25.298906)" x="126.547031" y="25.298906">Fast state</text>
    </g>
    <g id="patch_8">
     <path d="M 106.947031 35.573594 
L 120.947031 35.573594 
L 120.947031 30.673594 
L 106.947031 30.673594 
z
" style="fill:#90c6ec;"/>
    </g>
    <g id="text_9">
     <text style="font-family:DejaVu Sans;font-size:7px;font-stretch:normal;font-style:normal;font-weight:normal;text-anchor:start;" transform="rotate(-0, 126.547031, 35.573594)" x="126.547031" y="35.573594">Slow state</text>
    </g>
   </g>
  </g>
 </g>
 <defs>
  <clipPath id="p1026ff83c9">
   <rect height="90.92" width="135.07" x="34.13" y="13.68"/>
  </clipPath>
 </defs>
</svg>
