<?xml version="1.0" encoding="utf-8" standalone="no"?>
<!DOCTYPE svg PUBLIC "-//W3C//DTD SVG 1.1//EN"
  "http://www.w3.org/Graphics/SVG/1.1/DTD/svg11.dtd">
<!-- Created with matplotlib (https://matplotlib.org/) -->
<svg height="129.6pt" version="1.1" viewBox="0 0 180 129.6" width="180pt" xmlns="http://www.w3.org/2000/svg" xmlns:xlink="http://www.w3.org/1999/xlink">
 <metadata>
  <rdf:RDF xmlns:cc="http://creativecommons.org/ns#" xmlns:dc="http://purl.org/dc/elements/1.1/" xmlns:rdf="http://www.w3.org/1999/02/22-rdf-syntax-ns#">
   <cc:Work>
    <dc:type rdf:resource="http://purl.org/dc/dcmitype/StillImage"/>
    <dc:date>2023-01-20T10:48:21.560400</dc:date>
    <dc:format>image/svg+xml</dc:format>
    <dc:creator>
     <cc:Agent>
      <dc:title>Matplotlib v3.3.4, https://matplotlib.org/</dc:title>
     </cc:Agent>
    </dc:creator>
   </cc:Work>
  </rdf:RDF>
 </metadata>
 <defs>
  <style type="text/css">*{stroke-linecap:butt;stroke-linejoin:round;}</style>
 </defs>
 <g id="figure_1">
  <g id="patch_1">
   <path d="M 0 129.6 
L 180 129.6 
L 180 0 
L 0 0 
z
" style="fill:none;"/>
  </g>
  <g id="axes_1">
   <g id="patch_2">
    <path d="M 34.13 104.6 
L 169.2 104.6 
L 169.2 13.68 
L 34.13 13.68 
z
" style="fill:none;"/>
   </g>
   <g id="PolyCollection_1">
    <defs>
     <path d="M 40.269545 -52.777307 
L 40.269545 -52.204635 
L 41.509858 -52.261176 
L 42.75017 -52.422317 
L 43.990482 -52.687721 
L 45.230794 -53.056852 
L 46.471107 -53.528961 
L 47.711419 -54.10307 
L 48.951731 -54.777972 
L 50.192043 -55.552236 
L 51.432355 -56.424241 
L 52.672668 -57.392228 
L 53.91298 -58.454369 
L 55.153292 -59.608858 
L 56.393604 -60.854007 
L 57.633916 -62.188334 
L 58.874229 -63.610631 
L 60.114541 -65.119999 
L 61.354853 -66.715806 
L 62.595165 -68.397591 
L 63.835478 -70.164854 
L 65.07579 -72.016761 
L 66.316102 -73.951727 
L 67.556414 -75.96691 
L 68.796726 -78.057596 
L 70.037039 -80.216514 
L 71.277351 -82.433104 
L 72.517663 -84.692758 
L 73.757975 -86.976103 
L 74.998287 -89.25836 
L 76.2386 -91.508845 
L 77.478912 -93.690697 
L 78.719224 -95.760892 
L 79.959536 -97.670626 
L 81.199848 -99.366148 
L 82.440161 -100.790086 
L 83.680473 -101.883311 
L 84.920785 -102.587329 
L 86.161097 -102.847145 
L 87.40141 -102.614495 
L 88.641722 -101.851257 
L 89.882034 -100.532806 
L 91.122346 -98.651028 
L 92.362658 -96.216647 
L 93.602971 -93.260577 
L 94.843283 -89.833999 
L 96.083595 -86.007003 
L 97.323907 -81.865736 
L 98.564219 -77.508175 
L 99.804532 -73.038823 
L 101.044844 -68.562768 
L 102.285156 -64.179657 
L 103.525468 -59.978184 
L 104.765781 -56.031637 
L 106.006093 -52.39492 
L 107.246405 -49.103276 
L 108.486717 -46.172726 
L 109.727029 -43.601995 
L 110.967342 -41.375561 
L 112.207654 -39.467336 
L 113.447966 -37.844507 
L 114.688278 -36.471084 
L 115.92859 -35.310873 
L 117.168903 -34.329695 
L 118.409215 -33.496812 
L 119.649527 -32.785653 
L 120.889839 -32.173968 
L 122.130152 -31.643594 
L 123.370464 -31.179977 
L 124.610776 -30.771598 
L 125.851088 -30.4094 
L 127.0914 -30.086257 
L 128.331713 -29.796535 
L 129.572025 -29.535734 
L 130.812337 -29.300215 
L 132.052649 -29.086997 
L 133.292961 -28.8936 
L 134.533274 -28.717939 
L 135.773586 -28.558239 
L 137.013898 -28.412979 
L 138.25421 -28.280844 
L 139.494522 -28.160697 
L 140.734835 -28.051545 
L 141.975147 -27.952525 
L 143.215459 -27.862887 
L 144.455771 -27.781982 
L 145.696084 -27.709253 
L 146.936396 -27.644224 
L 148.176708 -27.586504 
L 149.41702 -27.535779 
L 150.657332 -27.491814 
L 151.897645 -27.45446 
L 153.137957 -27.423661 
L 154.378269 -27.399471 
L 155.618581 -27.382075 
L 156.858893 -27.371829 
L 158.099206 -27.369311 
L 159.339518 -27.375409 
L 160.57983 -27.391446 
L 161.820142 -27.419384 
L 163.060455 -27.462139 
L 163.060455 -28.030578 
L 163.060455 -28.030578 
L 161.820142 -27.985288 
L 160.57983 -27.956944 
L 159.339518 -27.940921 
L 158.099206 -27.93495 
L 156.858893 -27.937646 
L 155.618581 -27.948111 
L 154.378269 -27.965761 
L 153.137957 -27.990239 
L 151.897645 -28.021357 
L 150.657332 -28.059059 
L 149.41702 -28.103397 
L 148.176708 -28.154518 
L 146.936396 -28.212652 
L 145.696084 -28.278111 
L 144.455771 -28.351284 
L 143.215459 -28.432641 
L 141.975147 -28.522736 
L 140.734835 -28.622216 
L 139.494522 -28.731827 
L 138.25421 -28.852428 
L 137.013898 -28.985009 
L 135.773586 -29.130704 
L 134.533274 -29.290826 
L 133.292961 -29.466894 
L 132.052649 -29.660678 
L 130.812337 -29.874263 
L 129.572025 -30.110126 
L 128.331713 -30.371247 
L 127.0914 -30.661264 
L 125.851088 -30.984676 
L 124.610776 -31.347116 
L 123.370464 -31.755709 
L 122.130152 -32.219514 
L 120.889839 -32.750048 
L 119.649527 -33.361865 
L 118.409215 -34.073132 
L 117.168903 -34.906096 
L 115.92859 -35.887332 
L 114.688278 -37.047577 
L 113.447966 -38.421013 
L 112.207654 -40.043835 
L 110.967342 -41.952032 
L 109.727029 -44.178424 
L 108.486717 -46.749096 
L 107.246405 -49.679573 
L 106.006093 -52.971132 
L 104.765781 -56.607755 
L 103.525468 -60.554198 
L 102.285156 -64.755559 
L 101.044844 -69.138554 
L 99.804532 -73.614487 
L 98.564219 -78.083715 
L 97.323907 -82.441149 
L 96.083595 -86.58229 
L 94.843283 -90.409159 
L 93.602971 -93.835612 
L 92.362658 -96.79156 
L 91.122346 -99.225821 
L 89.882034 -101.107484 
L 88.641722 -102.425823 
L 87.40141 -103.188956 
L 86.161097 -103.421506 
L 84.920785 -103.161595 
L 83.680473 -102.457489 
L 82.440161 -101.364182 
L 81.199848 -99.94017 
L 79.959536 -98.24458 
L 78.719224 -96.334784 
L 77.478912 -94.264534 
L 76.2386 -92.082632 
L 74.998287 -89.832103 
L 73.757975 -87.549807 
L 72.517663 -85.266427 
L 71.277351 -83.006742 
L 70.037039 -80.790124 
L 68.796726 -78.631178 
L 67.556414 -76.540466 
L 66.316102 -74.525255 
L 65.07579 -72.59026 
L 63.835478 -70.738321 
L 62.595165 -68.971022 
L 61.354853 -67.289196 
L 60.114541 -65.693343 
L 58.874229 -64.183924 
L 57.633916 -62.761569 
L 56.393604 -61.42718 
L 55.153292 -60.181963 
L 53.91298 -59.027402 
L 52.672668 -57.965187 
L 51.432355 -56.997125 
L 50.192043 -56.125045 
L 48.951731 -55.350708 
L 47.711419 -54.675738 
L 46.471107 -54.101567 
L 45.230794 -53.629404 
L 43.990482 -53.26023 
L 42.75017 -52.994799 
L 41.509858 -52.833671 
L 40.269545 -52.777307 
z
" id="m5192503793"/>
    </defs>
    <g clip-path="url(#p087b1a0f92)">
     <use style="fill:#1f77b4;" x="0" xlink:href="#m5192503793" y="129.6"/>
    </g>
   </g>
   <g id="PolyCollection_2">
    <defs>
     <path d="M 40.269545 -52.204635 
L 40.269545 -25 
L 41.509858 -25 
L 42.75017 -25 
L 43.990482 -25 
L 45.230794 -25 
L 46.471107 -25 
L 47.711419 -25 
L 48.951731 -25 
L 50.192043 -25 
L 51.432355 -25 
L 52.672668 -25 
L 53.91298 -25 
L 55.153292 -25 
L 56.393604 -25 
L 57.633916 -25 
L 58.874229 -25 
L 60.114541 -25 
L 61.354853 -25 
L 62.595165 -25 
L 63.835478 -25 
L 65.07579 -25 
L 66.316102 -25 
L 67.556414 -25 
L 68.796726 -25 
L 70.037039 -25 
L 71.277351 -25 
L 72.517663 -25 
L 73.757975 -25 
L 74.998287 -25 
L 76.2386 -25 
L 77.478912 -25 
L 78.719224 -25 
L 79.959536 -25 
L 81.199848 -25 
L 82.440161 -25 
L 83.680473 -25 
L 84.920785 -25 
L 86.161097 -25 
L 87.40141 -25 
L 88.641722 -25 
L 89.882034 -25 
L 91.122346 -25 
L 92.362658 -25 
L 93.602971 -25 
L 94.843283 -25 
L 96.083595 -25 
L 97.323907 -25 
L 98.564219 -25 
L 99.804532 -25 
L 101.044844 -25 
L 102.285156 -25 
L 103.525468 -25 
L 104.765781 -25 
L 106.006093 -25 
L 107.246405 -25 
L 108.486717 -25 
L 109.727029 -25 
L 110.967342 -25 
L 112.207654 -25 
L 113.447966 -25 
L 114.688278 -25 
L 115.92859 -25 
L 117.168903 -25 
L 118.409215 -25 
L 119.649527 -25 
L 120.889839 -25 
L 122.130152 -25 
L 123.370464 -25 
L 124.610776 -25 
L 125.851088 -25 
L 127.0914 -25 
L 128.331713 -25 
L 129.572025 -25 
L 130.812337 -25 
L 132.052649 -25 
L 133.292961 -25 
L 134.533274 -25 
L 135.773586 -25 
L 137.013898 -25 
L 138.25421 -25 
L 139.494522 -25 
L 140.734835 -25 
L 141.975147 -25 
L 143.215459 -25 
L 144.455771 -25 
L 145.696084 -25 
L 146.936396 -25 
L 148.176708 -25 
L 149.41702 -25 
L 150.657332 -25 
L 151.897645 -25 
L 153.137957 -25 
L 154.378269 -25 
L 155.618581 -25 
L 156.858893 -25 
L 158.099206 -25 
L 159.339518 -25 
L 160.57983 -25 
L 161.820142 -25 
L 163.060455 -25 
L 163.060455 -27.462139 
L 163.060455 -27.462139 
L 161.820142 -27.419384 
L 160.57983 -27.391446 
L 159.339518 -27.375409 
L 158.099206 -27.369311 
L 156.858893 -27.371829 
L 155.618581 -27.382075 
L 154.378269 -27.399471 
L 153.137957 -27.423661 
L 151.897645 -27.45446 
L 150.657332 -27.491814 
L 149.41702 -27.535779 
L 148.176708 -27.586504 
L 146.936396 -27.644224 
L 145.696084 -27.709253 
L 144.455771 -27.781982 
L 143.215459 -27.862887 
L 141.975147 -27.952525 
L 140.734835 -28.051545 
L 139.494522 -28.160697 
L 138.25421 -28.280844 
L 137.013898 -28.412979 
L 135.773586 -28.558239 
L 134.533274 -28.717939 
L 133.292961 -28.8936 
L 132.052649 -29.086997 
L 130.812337 -29.300215 
L 129.572025 -29.535734 
L 128.331713 -29.796535 
L 127.0914 -30.086257 
L 125.851088 -30.4094 
L 124.610776 -30.771598 
L 123.370464 -31.179977 
L 122.130152 -31.643594 
L 120.889839 -32.173968 
L 119.649527 -32.785653 
L 118.409215 -33.496812 
L 117.168903 -34.329695 
L 115.92859 -35.310873 
L 114.688278 -36.471084 
L 113.447966 -37.844507 
L 112.207654 -39.467336 
L 110.967342 -41.375561 
L 109.727029 -43.601995 
L 108.486717 -46.172726 
L 107.246405 -49.103276 
L 106.006093 -52.39492 
L 104.765781 -56.031637 
L 103.525468 -59.978184 
L 102.285156 -64.179657 
L 101.044844 -68.562768 
L 99.804532 -73.038823 
L 98.564219 -77.508175 
L 97.323907 -81.865736 
L 96.083595 -86.007003 
L 94.843283 -89.833999 
L 93.602971 -93.260577 
L 92.362658 -96.216647 
L 91.122346 -98.651028 
L 89.882034 -100.532806 
L 88.641722 -101.851257 
L 87.40141 -102.614495 
L 86.161097 -102.847145 
L 84.920785 -102.587329 
L 83.680473 -101.883311 
L 82.440161 -100.790086 
L 81.199848 -99.366148 
L 79.959536 -97.670626 
L 78.719224 -95.760892 
L 77.478912 -93.690697 
L 76.2386 -91.508845 
L 74.998287 -89.25836 
L 73.757975 -86.976103 
L 72.517663 -84.692758 
L 71.277351 -82.433104 
L 70.037039 -80.216514 
L 68.796726 -78.057596 
L 67.556414 -75.96691 
L 66.316102 -73.951727 
L 65.07579 -72.016761 
L 63.835478 -70.164854 
L 62.595165 -68.397591 
L 61.354853 -66.715806 
L 60.114541 -65.119999 
L 58.874229 -63.610631 
L 57.633916 -62.188334 
L 56.393604 -60.854007 
L 55.153292 -59.608858 
L 53.91298 -58.454369 
L 52.672668 -57.392228 
L 51.432355 -56.424241 
L 50.192043 -55.552236 
L 48.951731 -54.777972 
L 47.711419 -54.10307 
L 46.471107 -53.528961 
L 45.230794 -53.056852 
L 43.990482 -52.687721 
L 42.75017 -52.422317 
L 41.509858 -52.261176 
L 40.269545 -52.204635 
z
" id="m4d7d1b7bff"/>
    </defs>
    <g clip-path="url(#p087b1a0f92)">
     <use style="fill:#90c6ec;" x="0" xlink:href="#m4d7d1b7bff" y="129.6"/>
    </g>
   </g>
   <g id="matplotlib.axis_1">
    <g id="xtick_1">
     <g id="line2d_1">
      <defs>
       <path d="M 0 0 
L 0 3.5 
" id="m609db1248d" style="stroke:#000000;stroke-width:0.8;"/>
      </defs>
      <g>
       <use style="stroke:#000000;stroke-width:0.8;" x="40.269545" xlink:href="#m609db1248d" y="104.6"/>
      </g>
     </g>
     <g id="text_1">
      <text style="font-family:DejaVu Sans;font-size:8px;font-stretch:normal;font-style:normal;font-weight:normal;text-anchor:middle;" transform="rotate(-0, 40.269545, 117.67875)" x="40.269545" y="117.67875">A</text>
     </g>
    </g>
    <g id="xtick_2">
     <g id="line2d_2">
      <g>
       <use style="stroke:#000000;stroke-width:0.8;" x="163.060455" xlink:href="#m609db1248d" y="104.6"/>
      </g>
     </g>
     <g id="text_2">
      <text style="font-family:DejaVu Sans;font-size:8px;font-stretch:normal;font-style:normal;font-weight:normal;text-anchor:middle;" transform="rotate(-0, 163.060455, 117.67875)" x="163.060455" y="117.67875">P</text>
     </g>
    </g>
   </g>
   <g id="matplotlib.axis_2">
    <g id="ytick_1">
     <g id="line2d_3">
      <defs>
       <path d="M 0 0 
L -3.5 0 
" id="ma8698e173c" style="stroke:#000000;stroke-width:0.8;"/>
      </defs>
      <g>
       <use style="stroke:#000000;stroke-width:0.8;" x="34.13" xlink:href="#ma8698e173c" y="104.6"/>
      </g>
     </g>
     <g id="text_3">
      <text style="font-family:DejaVu Sans;font-size:8px;font-stretch:normal;font-style:normal;font-weight:normal;text-anchor:end;" transform="rotate(-0, 27.13, 107.639375)" x="27.13" y="107.639375">0</text>
     </g>
    </g>
    <g id="ytick_2">
     <g id="line2d_4">
      <g>
       <use style="stroke:#000000;stroke-width:0.8;" x="34.13" xlink:href="#ma8698e173c" y="74.293333"/>
      </g>
     </g>
     <g id="text_4">
      <text style="font-family:DejaVu Sans;font-size:8px;font-stretch:normal;font-style:normal;font-weight:normal;text-anchor:end;" transform="rotate(-0, 27.13, 77.332708)" x="27.13" y="77.332708">1</text>
     </g>
    </g>
    <g id="ytick_3">
     <g id="line2d_5">
      <g>
       <use style="stroke:#000000;stroke-width:0.8;" x="34.13" xlink:href="#ma8698e173c" y="43.986667"/>
      </g>
     </g>
     <g id="text_5">
      <text style="font-family:DejaVu Sans;font-size:8px;font-stretch:normal;font-style:normal;font-weight:normal;text-anchor:end;" transform="rotate(-0, 27.13, 47.026042)" x="27.13" y="47.026042">2</text>
     </g>
    </g>
    <g id="ytick_4">
     <g id="line2d_6">
      <g>
       <use style="stroke:#000000;stroke-width:0.8;" x="34.13" xlink:href="#ma8698e173c" y="13.68"/>
      </g>
     </g>
     <g id="text_6">
      <text style="font-family:DejaVu Sans;font-size:8px;font-stretch:normal;font-style:normal;font-weight:normal;text-anchor:end;" transform="rotate(-0, 27.13, 16.719375)" x="27.13" y="16.719375">3</text>
     </g>
    </g>
    <g id="text_7">
     <text style="font-family:DejaVu Sans;font-size:8px;font-stretch:normal;font-style:normal;font-weight:normal;text-anchor:middle;" transform="rotate(-90, 16.37625, 59.14)" x="16.37625" y="59.14">Normalised concentration</text>
    </g>
   </g>
   <g id="patch_3">
    <path d="M 34.13 104.6 
L 34.13 13.68 
" style="fill:none;stroke:#000000;stroke-linecap:square;stroke-linejoin:miter;stroke-width:0.8;"/>
   </g>
   <g id="patch_4">
    <path d="M 169.2 104.6 
L 169.2 13.68 
" style="fill:none;stroke:#000000;stroke-linecap:square;stroke-linejoin:miter;stroke-width:0.8;"/>
   </g>
   <g id="patch_5">
    <path d="M 34.13 104.6 
L 169.2 104.6 
" style="fill:none;stroke:#000000;stroke-linecap:square;stroke-linejoin:miter;stroke-width:0.8;"/>
   </g>
   <g id="patch_6">
    <path d="M 34.13 13.68 
L 169.2 13.68 
" style="fill:none;stroke:#000000;stroke-linecap:square;stroke-linejoin:miter;stroke-width:0.8;"/>
   </g>
   <g id="legend_1">
    <g id="patch_7">
     <path d="M 106.947031 25.298906 
L 120.947031 25.298906 
L 120.947031 20.398906 
L 106.947031 20.398906 
z
" style="fill:#1f77b4;"/>
    </g>
    <g id="text_8">
     <text style="font-family:DejaVu Sans;font-size:7px;font-stretch:normal;font-style:normal;font-weight:normal;text-anchor:start;" transform="rotate(-0, 126.547031, 25.298906)" x="126.547031" y="25.298906">Fast state</text>
    </g>
    <g id="patch_8">
     <path d="M 106.947031 35.573594 
L 120.947031 35.573594 
L 120.947031 30.673594 
L 106.947031 30.673594 
z
" style="fill:#90c6ec;"/>
    </g>
    <g id="text_9">
     <text style="font-family:DejaVu Sans;font-size:7px;font-stretch:normal;font-style:normal;font-weight:normal;text-anchor:start;" transform="rotate(-0, 126.547031, 35.573594)" x="126.547031" y="35.573594">Slow state</text>
    </g>
   </g>
  </g>
 </g>
 <defs>
  <clipPath id="p087b1a0f92">
   <rect height="90.92" width="135.07" x="34.13" y="13.68"/>
  </clipPath>
 </defs>
</svg>
