<?xml version="1.0" encoding="utf-8" standalone="no"?>
<!DOCTYPE svg PUBLIC "-//W3C//DTD SVG 1.1//EN"
  "http://www.w3.org/Graphics/SVG/1.1/DTD/svg11.dtd">
<!-- Created with matplotlib (https://matplotlib.org/) -->
<svg height="129.6pt" version="1.1" viewBox="0 0 180 129.6" width="180pt" xmlns="http://www.w3.org/2000/svg" xmlns:xlink="http://www.w3.org/1999/xlink">
 <metadata>
  <rdf:RDF xmlns:cc="http://creativecommons.org/ns#" xmlns:dc="http://purl.org/dc/elements/1.1/" xmlns:rdf="http://www.w3.org/1999/02/22-rdf-syntax-ns#">
   <cc:Work>
    <dc:type rdf:resource="http://purl.org/dc/dcmitype/StillImage"/>
    <dc:date>2023-01-20T10:48:20.666586</dc:date>
    <dc:format>image/svg+xml</dc:format>
    <dc:creator>
     <cc:Agent>
      <dc:title>Matplotlib v3.3.4, https://matplotlib.org/</dc:title>
     </cc:Agent>
    </dc:creator>
   </cc:Work>
  </rdf:RDF>
 </metadata>
 <defs>
  <style type="text/css">*{stroke-linecap:butt;stroke-linejoin:round;}</style>
 </defs>
 <g id="figure_1">
  <g id="patch_1">
   <path d="M 0 129.6 
L 180 129.6 
L 180 0 
L 0 0 
z
" style="fill:none;"/>
  </g>
  <g id="axes_1">
   <g id="patch_2">
    <path d="M 34.13 104.6 
L 169.2 104.6 
L 169.2 13.68 
L 34.13 13.68 
z
" style="fill:none;"/>
   </g>
   <g id="matplotlib.axis_1">
    <g id="xtick_1">
     <g id="line2d_1">
      <defs>
       <path d="M 0 0 
L 0 3.5 
" id="m2d48d950a6" style="stroke:#000000;stroke-width:0.8;"/>
      </defs>
      <g>
       <use style="stroke:#000000;stroke-width:0.8;" x="40.269545" xlink:href="#m2d48d950a6" y="104.6"/>
      </g>
     </g>
     <g id="text_1">
      <text style="font-family:DejaVu Sans;font-size:8px;font-stretch:normal;font-style:normal;font-weight:normal;text-anchor:middle;" transform="rotate(-0, 40.269545, 117.67875)" x="40.269545" y="117.67875">A</text>
     </g>
    </g>
    <g id="xtick_2">
     <g id="line2d_2">
      <g>
       <use style="stroke:#000000;stroke-width:0.8;" x="163.060455" xlink:href="#m2d48d950a6" y="104.6"/>
      </g>
     </g>
     <g id="text_2">
      <text style="font-family:DejaVu Sans;font-size:8px;font-stretch:normal;font-style:normal;font-weight:normal;text-anchor:middle;" transform="rotate(-0, 163.060455, 117.67875)" x="163.060455" y="117.67875">P</text>
     </g>
    </g>
   </g>
   <g id="matplotlib.axis_2">
    <g id="ytick_1">
     <g id="line2d_3">
      <defs>
       <path d="M 0 0 
L -3.5 0 
" id="mb0d9e72a74" style="stroke:#000000;stroke-width:0.8;"/>
      </defs>
      <g>
       <use style="stroke:#000000;stroke-width:0.8;" x="34.13" xlink:href="#mb0d9e72a74" y="103.711422"/>
      </g>
     </g>
     <g id="text_3">
      <text style="font-family:DejaVu Sans;font-size:8px;font-stretch:normal;font-style:normal;font-weight:normal;text-anchor:end;" transform="rotate(-0, 27.13, 106.750797)" x="27.13" y="106.750797">0</text>
     </g>
    </g>
    <g id="ytick_2">
     <g id="line2d_4">
      <g>
       <use style="stroke:#000000;stroke-width:0.8;" x="34.13" xlink:href="#mb0d9e72a74" y="73.700948"/>
      </g>
     </g>
     <g id="text_4">
      <text style="font-family:DejaVu Sans;font-size:8px;font-stretch:normal;font-style:normal;font-weight:normal;text-anchor:end;" transform="rotate(-0, 27.13, 76.740323)" x="27.13" y="76.740323">1</text>
     </g>
    </g>
    <g id="ytick_3">
     <g id="line2d_5">
      <g>
       <use style="stroke:#000000;stroke-width:0.8;" x="34.13" xlink:href="#mb0d9e72a74" y="43.690474"/>
      </g>
     </g>
     <g id="text_5">
      <text style="font-family:DejaVu Sans;font-size:8px;font-stretch:normal;font-style:normal;font-weight:normal;text-anchor:end;" transform="rotate(-0, 27.13, 46.729849)" x="27.13" y="46.729849">2</text>
     </g>
    </g>
    <g id="ytick_4">
     <g id="line2d_6">
      <g>
       <use style="stroke:#000000;stroke-width:0.8;" x="34.13" xlink:href="#mb0d9e72a74" y="13.68"/>
      </g>
     </g>
     <g id="text_6">
      <text style="font-family:DejaVu Sans;font-size:8px;font-stretch:normal;font-style:normal;font-weight:normal;text-anchor:end;" transform="rotate(-0, 27.13, 16.719375)" x="27.13" y="16.719375">3</text>
     </g>
    </g>
    <g id="text_7">
     <text style="font-family:DejaVu Sans;font-size:8px;font-stretch:normal;font-style:normal;font-weight:normal;text-anchor:middle;" transform="rotate(-90, 16.37625, 59.14)" x="16.37625" y="59.14">Normalised concentration</text>
    </g>
   </g>
   <g id="line2d_7">
    <path clip-path="url(#p733d1443df)" d="M 40.269545 70.622288 
L 41.509858 70.569889 
L 42.75017 70.411317 
L 43.990482 70.147975 
L 45.230794 69.780869 
L 46.471107 69.311181 
L 47.711419 68.740374 
L 48.951731 68.070207 
L 50.192043 67.302707 
L 51.432355 66.44012 
L 52.672668 65.484838 
L 53.91298 64.439293 
L 55.153292 63.305845 
L 56.393604 62.086654 
L 57.633916 60.783555 
L 58.874229 59.397959 
L 60.114541 57.930795 
L 61.354853 56.382512 
L 62.595165 54.75316 
L 63.835478 53.042566 
L 65.07579 51.250618 
L 66.316102 49.377655 
L 67.556414 47.42497 
L 68.796726 45.395407 
L 70.037039 43.294041 
L 71.277351 41.128924 
L 72.517663 38.911849 
L 73.757975 36.659099 
L 74.998287 34.39214 
L 76.2386 32.138188 
L 77.478912 29.930581 
L 78.719224 27.808899 
L 79.959536 25.818742 
L 81.199848 24.011096 
L 82.440161 22.441233 
L 83.680473 21.167086 
L 84.920785 20.247108 
L 86.161097 19.737638 
L 87.40141 19.689865 
L 88.641722 20.146538 
L 89.882034 21.138644 
L 91.122346 22.682308 
L 92.362658 24.776235 
L 93.602971 27.399992 
L 94.843283 30.513419 
L 96.083595 34.057379 
L 97.323907 37.955929 
L 98.564219 42.119867 
L 99.804532 46.451415 
L 101.044844 50.849684 
L 102.285156 55.216405 
L 103.525468 59.461384 
L 104.765781 63.507138 
L 106.006093 67.292286 
L 107.246405 70.773398 
L 108.486717 73.925252 
L 109.727029 76.739609 
L 110.967342 79.222818 
L 112.207654 81.392671 
L 113.447966 83.274934 
L 114.688278 84.900001 
L 115.92859 86.299955 
L 117.168903 87.506266 
L 118.409215 88.548172 
L 119.649527 89.45172 
L 120.889839 90.239369 
L 122.130152 90.929999 
L 123.370464 91.539186 
L 124.610776 92.079629 
L 125.851088 92.561612 
L 127.0914 92.993458 
L 128.331713 93.381925 
L 129.572025 93.732541 
L 130.812337 94.049865 
L 132.052649 94.3377 
L 133.292961 94.599243 
L 134.533274 94.837213 
L 135.773586 95.053932 
L 137.013898 95.251403 
L 138.25421 95.431358 
L 139.494522 95.595298 
L 140.734835 95.74453 
L 141.975147 95.880187 
L 143.215459 96.003254 
L 144.455771 96.114579 
L 145.696084 96.214888 
L 146.936396 96.304795 
L 148.176708 96.384805 
L 149.41702 96.455318 
L 150.657332 96.516629 
L 151.897645 96.568918 
L 153.137957 96.612244 
L 154.378269 96.646521 
L 155.618581 96.671485 
L 156.858893 96.686649 
L 158.099206 96.691219 
L 159.339518 96.683932 
L 160.57983 96.662631 
L 161.820142 96.622591 
L 163.060455 96.548284 
" style="fill:none;stroke:#1f77b4;stroke-linecap:square;stroke-width:1.5;"/>
   </g>
   <g id="line2d_8">
    <path clip-path="url(#p733d1443df)" d="M 40.269545 99.797899 
L 41.509858 99.799113 
L 42.75017 99.799202 
L 43.990482 99.799018 
L 45.230794 99.798723 
L 46.471107 99.798355 
L 47.711419 99.797931 
L 48.951731 99.797464 
L 50.192043 99.796967 
L 51.432355 99.796455 
L 52.672668 99.795939 
L 53.91298 99.795432 
L 55.153292 99.794943 
L 56.393604 99.794482 
L 57.633916 99.794053 
L 58.874229 99.793662 
L 60.114541 99.79331 
L 61.354853 99.792996 
L 62.595165 99.792718 
L 63.835478 99.792471 
L 65.07579 99.792252 
L 66.316102 99.792052 
L 67.556414 99.791864 
L 68.796726 99.791681 
L 70.037039 99.791496 
L 71.277351 99.7913 
L 72.517663 99.791087 
L 73.757975 99.79085 
L 74.998287 99.790584 
L 76.2386 99.790284 
L 77.478912 99.789946 
L 78.719224 99.789567 
L 79.959536 99.789145 
L 81.199848 99.788677 
L 82.440161 99.788165 
L 83.680473 99.787608 
L 84.920785 99.787006 
L 86.161097 99.786361 
L 87.40141 99.785676 
L 88.641722 99.784952 
L 89.882034 99.784194 
L 91.122346 99.783404 
L 92.362658 99.782588 
L 93.602971 99.78175 
L 94.843283 99.780896 
L 96.083595 99.780032 
L 97.323907 99.779164 
L 98.564219 99.778301 
L 99.804532 99.77745 
L 101.044844 99.77662 
L 102.285156 99.77582 
L 103.525468 99.77506 
L 104.765781 99.774349 
L 106.006093 99.7737 
L 107.246405 99.773121 
L 108.486717 99.772626 
L 109.727029 99.772225 
L 110.967342 99.771929 
L 112.207654 99.77175 
L 113.447966 99.771699 
L 114.688278 99.771786 
L 115.92859 99.772021 
L 117.168903 99.772414 
L 118.409215 99.772972 
L 119.649527 99.773704 
L 120.889839 99.774614 
L 122.130152 99.775707 
L 123.370464 99.776986 
L 124.610776 99.778453 
L 125.851088 99.780105 
L 127.0914 99.781942 
L 128.331713 99.783958 
L 129.572025 99.786147 
L 130.812337 99.7885 
L 132.052649 99.791007 
L 133.292961 99.793655 
L 134.533274 99.796429 
L 135.773586 99.799314 
L 137.013898 99.802292 
L 138.25421 99.805342 
L 139.494522 99.808446 
L 140.734835 99.811581 
L 141.975147 99.814724 
L 143.215459 99.817852 
L 144.455771 99.820943 
L 145.696084 99.823971 
L 146.936396 99.826914 
L 148.176708 99.829748 
L 149.41702 99.83245 
L 150.657332 99.834999 
L 151.897645 99.837374 
L 153.137957 99.839555 
L 154.378269 99.841524 
L 155.618581 99.843265 
L 156.858893 99.84476 
L 158.099206 99.845981 
L 159.339518 99.846843 
L 160.57983 99.846946 
L 161.820142 99.844165 
L 163.060455 99.826835 
" style="fill:none;stroke:#ff7f0e;stroke-dasharray:5.55,2.4;stroke-dashoffset:0;stroke-width:1.5;"/>
   </g>
   <g id="line2d_9">
    <path clip-path="url(#p733d1443df)" d="M 40.269545 74.535811 
L 41.509858 74.482198 
L 42.75017 74.323536 
L 43.990482 74.060379 
L 45.230794 73.693568 
L 46.471107 73.224248 
L 47.711419 72.653865 
L 48.951731 71.984164 
L 50.192043 71.217161 
L 51.432355 70.355087 
L 52.672668 69.40032 
L 53.91298 68.355282 
L 55.153292 67.222323 
L 56.393604 66.003594 
L 57.633916 64.700923 
L 58.874229 63.315718 
L 60.114541 61.848907 
L 61.354853 60.300938 
L 62.595165 58.671864 
L 63.835478 56.961516 
L 65.07579 55.169788 
L 66.316102 53.297026 
L 67.556414 51.344528 
L 68.796726 49.315147 
L 70.037039 47.213967 
L 71.277351 45.049046 
L 72.517663 42.832184 
L 73.757975 40.57967 
L 74.998287 38.312978 
L 76.2386 36.059326 
L 77.478912 33.852057 
L 78.719224 31.730754 
L 79.959536 29.741019 
L 81.199848 27.93384 
L 82.440161 26.36449 
L 83.680473 25.0909 
L 84.920785 24.171524 
L 86.161097 23.662699 
L 87.40141 23.615611 
L 88.641722 24.073007 
L 89.882034 25.065872 
L 91.122346 26.610326 
L 92.362658 28.705069 
L 93.602971 31.329664 
L 94.843283 34.443945 
L 96.083595 37.988769 
L 97.323907 41.888187 
L 98.564219 46.052987 
L 99.804532 50.385386 
L 101.044844 54.784485 
L 102.285156 59.152007 
L 103.525468 63.397746 
L 104.765781 67.444211 
L 106.006093 71.230008 
L 107.246405 74.711699 
L 108.486717 77.864048 
L 109.727029 80.678806 
L 110.967342 83.162311 
L 112.207654 85.332343 
L 113.447966 87.214657 
L 114.688278 88.839637 
L 115.92859 90.239356 
L 117.168903 91.445274 
L 118.409215 92.486621 
L 119.649527 93.389438 
L 120.889839 94.176177 
L 122.130152 94.865714 
L 123.370464 95.473622 
L 124.610776 96.012598 
L 125.851088 96.492928 
L 127.0914 96.922937 
L 128.331713 97.309388 
L 129.572025 97.657815 
L 130.812337 97.972787 
L 132.052649 98.258114 
L 133.292961 98.51701 
L 134.533274 98.752205 
L 135.773586 98.96604 
L 137.013898 99.160533 
L 138.25421 99.337437 
L 139.494522 99.498274 
L 140.734835 99.644371 
L 141.975147 99.776885 
L 143.215459 99.896823 
L 144.455771 100.005058 
L 145.696084 100.102339 
L 146.936396 100.189303 
L 148.176708 100.266479 
L 149.41702 100.33429 
L 150.657332 100.393052 
L 151.897645 100.442966 
L 153.137957 100.484111 
L 154.378269 100.516418 
L 155.618581 100.539641 
L 156.858893 100.553312 
L 158.099206 100.55666 
L 159.339518 100.548511 
L 160.57983 100.527107 
L 161.820142 100.489848 
L 163.060455 100.432871 
" style="fill:none;stroke:#ff7f0e;stroke-linecap:square;stroke-width:1.5;"/>
   </g>
   <g id="patch_3">
    <path d="M 34.13 104.6 
L 34.13 13.68 
" style="fill:none;stroke:#000000;stroke-linecap:square;stroke-linejoin:miter;stroke-width:0.8;"/>
   </g>
   <g id="patch_4">
    <path d="M 169.2 104.6 
L 169.2 13.68 
" style="fill:none;stroke:#000000;stroke-linecap:square;stroke-linejoin:miter;stroke-width:0.8;"/>
   </g>
   <g id="patch_5">
    <path d="M 34.13 104.6 
L 169.2 104.6 
" style="fill:none;stroke:#000000;stroke-linecap:square;stroke-linejoin:miter;stroke-width:0.8;"/>
   </g>
   <g id="patch_6">
    <path d="M 34.13 13.68 
L 169.2 13.68 
" style="fill:none;stroke:#000000;stroke-linecap:square;stroke-linejoin:miter;stroke-width:0.8;"/>
   </g>
   <g id="legend_1">
    <g id="line2d_10">
     <path d="M 106.947031 22.848906 
L 120.947031 22.848906 
" style="fill:none;stroke:#1f77b4;stroke-linecap:square;stroke-width:1.5;"/>
    </g>
    <g id="line2d_11"/>
    <g id="text_8">
     <text style="font-family:DejaVu Sans;font-size:7px;font-stretch:normal;font-style:normal;font-weight:normal;text-anchor:start;" transform="rotate(-0, 126.547031, 25.298906)" x="126.547031" y="25.298906">Total</text>
    </g>
    <g id="line2d_12">
     <path d="M 106.947031 33.123594 
L 120.947031 33.123594 
" style="fill:none;stroke:#ff7f0e;stroke-dasharray:5.55,2.4;stroke-dashoffset:0;stroke-width:1.5;"/>
    </g>
    <g id="line2d_13"/>
    <g id="text_9">
     <text style="font-family:DejaVu Sans;font-size:7px;font-stretch:normal;font-style:normal;font-weight:normal;text-anchor:start;" transform="rotate(-0, 126.547031, 35.573594)" x="126.547031" y="35.573594">Fast state</text>
    </g>
    <g id="line2d_14">
     <path d="M 106.947031 43.398281 
L 120.947031 43.398281 
" style="fill:none;stroke:#ff7f0e;stroke-linecap:square;stroke-width:1.5;"/>
    </g>
    <g id="line2d_15"/>
    <g id="text_10">
     <text style="font-family:DejaVu Sans;font-size:7px;font-stretch:normal;font-style:normal;font-weight:normal;text-anchor:start;" transform="rotate(-0, 126.547031, 45.848281)" x="126.547031" y="45.848281">Slow state</text>
    </g>
   </g>
  </g>
 </g>
 <defs>
  <clipPath id="p733d1443df">
   <rect height="90.92" width="135.07" x="34.13" y="13.68"/>
  </clipPath>
 </defs>
</svg>
